<svg width="400" height="400" viewBox="0 0 400 400" fill="none" xmlns="http://www.w3.org/2000/svg">
<circle cx="200" cy="200" r="200" fill="#BFC1C0"/>
<path d="M155.509 74.5839C155.535 74.5039 155.629 74.464 155.788 74.464C155.975 74.4373 156.082 74.4773 156.108 74.5839L166.939 99.8425H163.462L154.39 78.5405L155.828 76.5022L146.276 99.8425H145.157L155.509 74.5839ZM142.959 106.117C142.959 104.812 142.919 103.733 142.839 102.88C142.786 102.054 142.719 101.361 142.64 100.802C142.56 100.295 142.52 99.8026 142.52 99.323C142.52 99.1098 142.546 98.9899 142.6 98.9633C142.653 98.91 142.773 98.8833 142.959 98.8833H168.618C168.857 98.8833 168.991 98.91 169.017 98.9633C169.071 98.9899 169.097 99.1098 169.097 99.323C169.097 99.4828 169.071 99.8559 169.017 100.442C168.804 102.227 168.698 104.119 168.698 106.117C168.698 106.25 168.618 106.317 168.458 106.317C168.325 106.317 168.258 106.25 168.258 106.117C168.258 103.986 167.658 102.4 166.459 101.361C165.26 100.349 163.409 99.8425 160.904 99.8425H149.714C147.715 99.8425 146.157 100.335 145.038 101.321C143.945 102.334 143.399 103.932 143.399 106.117C143.399 106.25 143.319 106.317 143.159 106.317C143.026 106.317 142.959 106.25 142.959 106.117ZM186.854 78.4206C187.094 77.8877 187.214 77.4481 187.214 77.1017C187.214 75.9294 186.201 75.3432 184.176 75.3432C184.096 75.3432 184.056 75.2633 184.056 75.1034C184.056 74.9436 184.096 74.8636 184.176 74.8636L185.855 74.9036C186.814 74.9569 187.667 74.9835 188.413 74.9835C188.892 74.9835 189.479 74.9569 190.171 74.9036L191.69 74.8636C191.77 74.8636 191.81 74.9436 191.81 75.1034C191.81 75.2633 191.77 75.3432 191.69 75.3432C190.971 75.3432 190.265 75.623 189.572 76.1825C188.906 76.742 188.333 77.528 187.853 78.5405L180.619 94.1673C179.953 95.6061 179.46 96.7518 179.141 97.6044C178.741 98.5903 178.448 99.2164 178.261 99.4828C178.075 99.7226 177.768 99.8425 177.342 99.8425H170.788C170.734 99.8425 170.708 99.7626 170.708 99.6027C170.708 99.4429 170.734 99.3629 170.788 99.3629C172.733 99.3629 174.478 98.91 176.023 98.0041C177.595 97.0715 178.794 95.6994 179.62 93.8876L186.854 78.4206ZM170.828 78.1808C170.241 77.0884 169.709 76.3424 169.229 75.9427C168.776 75.543 168.163 75.3432 167.391 75.3432C167.337 75.3432 167.311 75.2633 167.311 75.1034C167.311 74.9436 167.337 74.8636 167.391 74.8636L168.829 74.9036C169.629 74.9569 170.441 74.9835 171.267 74.9835C172.52 74.9835 173.732 74.9569 174.904 74.9036C175.304 74.8769 175.797 74.8636 176.383 74.8636C176.436 74.8636 176.463 74.9436 176.463 75.1034C176.463 75.2633 176.436 75.3432 176.383 75.3432C174.704 75.3432 173.865 75.7562 173.865 76.5822C173.865 76.9285 173.998 77.3282 174.265 77.7812L181.579 91.2498L179.82 94.6869L170.828 78.1808ZM192.058 99.8425C192.005 99.8425 191.978 99.7626 191.978 99.6027C191.978 99.4429 192.005 99.3629 192.058 99.3629C193.044 99.3629 193.763 99.2963 194.216 99.1631C194.696 99.0299 195.016 98.7768 195.176 98.4037C195.362 98.0041 195.455 97.4046 195.455 96.6053V78.1009C195.455 77.3016 195.362 76.7154 195.176 76.3424C195.016 75.9694 194.696 75.7162 194.216 75.583C193.763 75.4231 193.044 75.3432 192.058 75.3432C192.005 75.3432 191.978 75.2633 191.978 75.1034C191.978 74.9436 192.005 74.8636 192.058 74.8636L194.136 74.9036C195.309 74.9569 196.241 74.9835 196.934 74.9835C197.653 74.9835 198.599 74.9569 199.772 74.9036L201.69 74.8636C201.77 74.8636 201.81 74.9436 201.81 75.1034C201.81 75.2633 201.77 75.3432 201.69 75.3432C200.784 75.3432 200.118 75.4231 199.692 75.583C199.265 75.7162 198.972 75.9694 198.812 76.3424C198.679 76.7154 198.613 77.3016 198.613 78.1009V96.5253C198.613 97.4312 198.653 98.0307 198.733 98.3238C198.839 98.6169 199.052 98.8034 199.372 98.8833C199.718 98.9633 200.398 99.0032 201.41 99.0032H206.966C208.005 99.0032 208.711 98.9633 209.084 98.8833C209.457 98.7768 209.683 98.5769 209.763 98.2838C209.87 97.9641 209.923 97.3779 209.923 96.5253V78.1009C209.923 77.3016 209.843 76.7154 209.683 76.3424C209.55 75.9694 209.27 75.7162 208.844 75.583C208.418 75.4231 207.752 75.3432 206.846 75.3432C206.766 75.3432 206.726 75.2633 206.726 75.1034C206.726 74.9436 206.766 74.8636 206.846 74.8636C209.324 74.9436 210.882 74.9835 211.522 74.9835C212.214 74.9835 213.12 74.9569 214.239 74.9036L216.238 74.8636C216.291 74.8636 216.318 74.9436 216.318 75.1034C216.318 75.2633 216.291 75.3432 216.238 75.3432C215.305 75.3432 214.626 75.4231 214.199 75.583C213.773 75.7162 213.48 75.9694 213.32 76.3424C213.16 76.7154 213.08 77.3016 213.08 78.1009V96.5653C213.08 97.3646 213.16 97.9375 213.32 98.2838C213.507 98.6036 213.786 98.8034 214.159 98.8833C214.559 98.9633 215.252 99.0032 216.238 99.0032H221.433C222.499 99.0032 223.218 98.9633 223.592 98.8833C223.965 98.8034 224.191 98.6169 224.271 98.3238C224.378 98.0041 224.431 97.4046 224.431 96.5253V78.1009C224.431 77.3016 224.351 76.7154 224.191 76.3424C224.058 75.9694 223.765 75.7162 223.312 75.583C222.885 75.4231 222.219 75.3432 221.313 75.3432C221.26 75.3432 221.234 75.2633 221.234 75.1034C221.234 74.9436 221.26 74.8636 221.313 74.8636L223.272 74.9036C224.444 74.9569 225.39 74.9835 226.109 74.9835C226.855 74.9835 227.788 74.9569 228.907 74.9036L230.945 74.8636C231.025 74.8636 231.065 74.9436 231.065 75.1034C231.065 75.2633 231.025 75.3432 230.945 75.3432C229.959 75.3432 229.227 75.4231 228.747 75.583C228.294 75.7162 227.974 75.9694 227.788 76.3424C227.628 76.7154 227.548 77.3016 227.548 78.1009V96.6053C227.548 97.4046 227.628 97.9908 227.788 98.3638C227.974 98.7368 228.294 99.0032 228.747 99.1631C229.227 99.2963 229.959 99.3629 230.945 99.3629C231.025 99.3629 231.065 99.4429 231.065 99.6027C231.065 99.7626 231.025 99.8425 230.945 99.8425H192.058ZM239.499 88.5321H250.37L250.649 89.4113H239.019L239.499 88.5321ZM259.682 99.3629C259.815 99.3629 259.882 99.4429 259.882 99.6027C259.882 99.7626 259.815 99.8425 259.682 99.8425C259.175 99.8425 258.389 99.8159 257.324 99.7626C256.205 99.7093 255.405 99.6827 254.926 99.6827C254.313 99.6827 253.554 99.7093 252.648 99.7626C251.742 99.8159 251.062 99.8425 250.609 99.8425C250.503 99.8425 250.449 99.7626 250.449 99.6027C250.449 99.4429 250.503 99.3629 250.609 99.3629C251.515 99.3629 252.168 99.283 252.568 99.1231C252.967 98.9366 253.167 98.6169 253.167 98.1639C253.167 97.711 252.967 97.0849 252.568 96.2855L243.975 78.4206L245.254 76.5022L237.46 94.567C237.087 95.4729 236.901 96.2189 236.901 96.8051C236.901 97.6577 237.234 98.2972 237.9 98.7235C238.566 99.1498 239.525 99.3629 240.778 99.3629C240.911 99.3629 240.977 99.4429 240.977 99.6027C240.977 99.7626 240.911 99.8425 240.778 99.8425C240.298 99.8425 239.605 99.8159 238.699 99.7626C237.687 99.7093 236.808 99.6827 236.062 99.6827C235.369 99.6827 234.543 99.7093 233.584 99.7626C232.731 99.8159 232.038 99.8425 231.505 99.8425C231.399 99.8425 231.346 99.7626 231.346 99.6027C231.346 99.4429 231.399 99.3629 231.505 99.3629C232.251 99.3629 232.878 99.2164 233.384 98.9233C233.917 98.6302 234.423 98.124 234.903 97.4046C235.382 96.6852 235.928 95.6194 236.541 94.2073L245.054 74.5839C245.081 74.5039 245.174 74.464 245.334 74.464C245.494 74.4373 245.587 74.4773 245.614 74.5839L255.205 94.3672C256.138 96.3122 256.911 97.6311 257.523 98.3238C258.163 99.0166 258.882 99.3629 259.682 99.3629ZM132.681 133.734C134.306 133.734 135.745 134.028 136.997 134.614C138.25 135.2 139.209 136.013 139.875 137.052C140.568 138.064 140.914 139.223 140.914 140.529C140.914 141.941 140.541 143.22 139.795 144.365C139.076 145.485 138.076 146.377 136.797 147.043C135.545 147.683 134.133 148.002 132.561 148.002C131.708 148.002 130.776 147.962 129.763 147.882C129.39 147.856 128.951 147.829 128.445 147.803C127.938 147.776 127.365 147.763 126.726 147.763L123.928 147.803C123.422 147.829 122.743 147.843 121.89 147.843C121.81 147.843 121.77 147.763 121.77 147.603C121.77 147.443 121.81 147.363 121.89 147.363C122.823 147.363 123.515 147.296 123.968 147.163C124.421 147.003 124.728 146.737 124.888 146.364C125.074 145.991 125.167 145.405 125.167 144.605V126.101C125.167 125.302 125.074 124.715 124.888 124.342C124.728 123.969 124.421 123.716 123.968 123.583C123.542 123.423 122.863 123.343 121.93 123.343C121.877 123.343 121.85 123.263 121.85 123.103C121.85 122.944 121.877 122.864 121.93 122.864L123.928 122.904C125.101 122.957 126.033 122.984 126.726 122.984C127.472 122.984 128.258 122.944 129.084 122.864C129.377 122.837 129.723 122.81 130.123 122.784C130.549 122.757 131.002 122.744 131.482 122.744C133.773 122.744 135.505 123.223 136.678 124.183C137.877 125.115 138.476 126.381 138.476 127.979C138.476 129.471 137.917 130.777 136.797 131.896C135.678 133.015 134.16 133.801 132.241 134.254L132.681 133.734ZM130.723 123.423C130.083 123.423 129.59 123.49 129.244 123.623C128.924 123.756 128.684 124.023 128.524 124.422C128.391 124.795 128.325 125.381 128.325 126.181V134.014L127.006 133.694C128.151 133.774 129.177 133.814 130.083 133.814C131.842 133.814 133.161 133.308 134.04 132.296C134.919 131.283 135.359 129.951 135.359 128.299C135.359 126.78 134.972 125.595 134.2 124.742C133.454 123.863 132.295 123.423 130.723 123.423ZM131.922 147.203C133.813 147.203 135.212 146.71 136.118 145.724C137.051 144.738 137.517 143.326 137.517 141.488C137.517 139.463 136.957 137.838 135.838 136.612C134.719 135.386 133.134 134.76 131.082 134.734C129.75 134.68 128.431 134.747 127.126 134.933L128.325 134.494V144.605C128.325 145.271 128.418 145.791 128.604 146.164C128.791 146.51 129.137 146.777 129.643 146.963C130.15 147.123 130.909 147.203 131.922 147.203ZM150.119 136.532H160.99L161.269 137.411H149.639L150.119 136.532ZM170.302 147.363C170.435 147.363 170.501 147.443 170.501 147.603C170.501 147.763 170.435 147.843 170.302 147.843C169.795 147.843 169.009 147.816 167.944 147.763C166.825 147.709 166.025 147.683 165.546 147.683C164.933 147.683 164.173 147.709 163.268 147.763C162.362 147.816 161.682 147.843 161.229 147.843C161.123 147.843 161.069 147.763 161.069 147.603C161.069 147.443 161.123 147.363 161.229 147.363C162.135 147.363 162.788 147.283 163.188 147.123C163.587 146.937 163.787 146.617 163.787 146.164C163.787 145.711 163.587 145.085 163.188 144.286L154.595 126.421L155.874 124.502L148.08 142.567C147.707 143.473 147.521 144.219 147.521 144.805C147.521 145.658 147.854 146.297 148.52 146.723C149.186 147.15 150.145 147.363 151.398 147.363C151.531 147.363 151.597 147.443 151.597 147.603C151.597 147.763 151.531 147.843 151.398 147.843C150.918 147.843 150.225 147.816 149.319 147.763C148.307 147.709 147.428 147.683 146.682 147.683C145.989 147.683 145.163 147.709 144.204 147.763C143.351 147.816 142.658 147.843 142.125 147.843C142.019 147.843 141.966 147.763 141.966 147.603C141.966 147.443 142.019 147.363 142.125 147.363C142.871 147.363 143.498 147.216 144.004 146.923C144.537 146.63 145.043 146.124 145.523 145.405C146.002 144.685 146.548 143.619 147.161 142.207L155.674 122.584C155.701 122.504 155.794 122.464 155.954 122.464C156.114 122.437 156.207 122.477 156.234 122.584L165.825 142.367C166.758 144.312 167.531 145.631 168.143 146.324C168.783 147.017 169.502 147.363 170.302 147.363ZM170.903 147.843C170.85 147.843 170.823 147.763 170.823 147.603C170.823 147.443 170.85 147.363 170.903 147.363C171.889 147.363 172.609 147.296 173.062 147.163C173.541 147.03 173.861 146.777 174.021 146.404C174.207 146.004 174.3 145.405 174.3 144.605V126.101C174.3 125.302 174.207 124.715 174.021 124.342C173.861 123.969 173.541 123.716 173.062 123.583C172.609 123.423 171.889 123.343 170.903 123.343C170.85 123.343 170.823 123.263 170.823 123.103C170.823 122.944 170.85 122.864 170.903 122.864L172.982 122.904C174.154 122.957 175.086 122.984 175.779 122.984C176.499 122.984 177.444 122.957 178.617 122.904L180.535 122.864C180.615 122.864 180.655 122.944 180.655 123.103C180.655 123.263 180.615 123.343 180.535 123.343C179.629 123.343 178.963 123.423 178.537 123.583C178.111 123.716 177.817 123.969 177.658 124.342C177.524 124.715 177.458 125.302 177.458 126.101V144.525C177.458 145.431 177.498 146.031 177.578 146.324C177.684 146.617 177.897 146.803 178.217 146.883C178.564 146.963 179.243 147.003 180.255 147.003H185.811C186.85 147.003 187.556 146.963 187.929 146.883C188.302 146.777 188.528 146.577 188.608 146.284C188.715 145.964 188.768 145.378 188.768 144.525V126.101C188.768 125.302 188.688 124.715 188.528 124.342C188.395 123.969 188.115 123.716 187.689 123.583C187.263 123.423 186.597 123.343 185.691 123.343C185.611 123.343 185.571 123.263 185.571 123.103C185.571 122.944 185.611 122.864 185.691 122.864C188.169 122.944 189.727 122.984 190.367 122.984C191.06 122.984 191.966 122.957 193.085 122.904L195.083 122.864C195.136 122.864 195.163 122.944 195.163 123.103C195.163 123.263 195.136 123.343 195.083 123.343C194.15 123.343 193.471 123.423 193.045 123.583C192.618 123.716 192.325 123.969 192.165 124.342C192.006 124.715 191.926 125.302 191.926 126.101V144.565C191.926 145.365 192.006 145.937 192.165 146.284C192.352 146.604 192.632 146.803 193.005 146.883C193.404 146.963 194.097 147.003 195.083 147.003H200.279C201.344 147.003 202.064 146.963 202.437 146.883C202.81 146.803 203.036 146.617 203.116 146.324C203.223 146.004 203.276 145.405 203.276 144.525V126.101C203.276 125.302 203.196 124.715 203.036 124.342C202.903 123.969 202.61 123.716 202.157 123.583C201.731 123.423 201.065 123.343 200.159 123.343C200.105 123.343 200.079 123.263 200.079 123.103C200.079 122.944 200.105 122.864 200.159 122.864L202.117 122.904C203.289 122.957 204.235 122.984 204.955 122.984C205.701 122.984 206.633 122.957 207.752 122.904L209.791 122.864C209.87 122.864 209.91 122.944 209.91 123.103C209.91 123.263 209.87 123.343 209.791 123.343C208.805 123.343 208.072 123.423 207.592 123.583C207.139 123.716 206.82 123.969 206.633 124.342C206.473 124.715 206.393 125.302 206.393 126.101V144.605C206.393 145.405 206.473 145.991 206.633 146.364C206.82 146.737 207.139 147.003 207.592 147.163C208.072 147.296 208.805 147.363 209.791 147.363C209.87 147.363 209.91 147.443 209.91 147.603C209.91 147.763 209.87 147.843 209.791 147.843H170.903ZM212.109 147.843C212.029 147.843 211.989 147.763 211.989 147.603C211.989 147.443 212.029 147.363 212.109 147.363C213.068 147.363 213.761 147.296 214.187 147.163C214.64 147.03 214.947 146.777 215.107 146.404C215.267 146.004 215.346 145.405 215.346 144.605V126.101C215.346 125.302 215.267 124.715 215.107 124.342C214.947 123.969 214.64 123.716 214.187 123.583C213.761 123.423 213.068 123.343 212.109 123.343C212.029 123.343 211.989 123.263 211.989 123.103C211.989 122.944 212.029 122.864 212.109 122.864H228.415C228.682 122.864 228.815 122.984 228.815 123.223L228.895 128.259C228.895 128.339 228.815 128.392 228.655 128.419C228.522 128.419 228.442 128.379 228.415 128.299C228.229 126.834 227.709 125.715 226.857 124.942C226.004 124.169 224.885 123.783 223.5 123.783H221.461C220.289 123.783 219.503 123.956 219.103 124.302C218.704 124.649 218.504 125.302 218.504 126.261V144.445C218.504 145.405 218.677 146.057 219.023 146.404C219.396 146.75 220.129 146.923 221.221 146.923H223.859C225.351 146.923 226.59 146.484 227.576 145.604C228.589 144.699 229.281 143.42 229.654 141.768C229.654 141.714 229.708 141.688 229.814 141.688C229.894 141.688 229.961 141.714 230.014 141.768C230.094 141.794 230.134 141.821 230.134 141.848C229.868 143.766 229.734 145.564 229.734 147.243C229.734 147.456 229.694 147.616 229.614 147.723C229.534 147.803 229.375 147.843 229.135 147.843H212.109ZM226.897 138.65C226.897 137.505 226.564 136.665 225.898 136.132C225.258 135.573 224.232 135.293 222.82 135.293H216.985V134.374H222.9C224.259 134.374 225.258 134.147 225.898 133.694C226.537 133.215 226.857 132.482 226.857 131.496C226.857 131.443 226.923 131.416 227.057 131.416C227.216 131.416 227.296 131.443 227.296 131.496L227.256 134.853L227.296 136.652C227.35 137.505 227.376 138.171 227.376 138.65C227.376 138.704 227.296 138.73 227.136 138.73C226.977 138.73 226.897 138.704 226.897 138.65ZM232.851 147.843C232.771 147.843 232.731 147.763 232.731 147.603C232.731 147.443 232.771 147.363 232.851 147.363C233.837 147.363 234.557 147.296 235.01 147.163C235.462 147.03 235.769 146.777 235.929 146.404C236.115 146.004 236.209 145.405 236.209 144.605V126.101C236.209 125.302 236.129 124.715 235.969 124.342C235.809 123.969 235.502 123.716 235.049 123.583C234.623 123.423 233.93 123.343 232.971 123.343C232.891 123.343 232.851 123.263 232.851 123.103C232.851 122.944 232.891 122.864 232.971 122.864H249.997C250.263 122.864 250.397 122.984 250.397 123.223L250.476 128.899C250.476 128.978 250.397 129.032 250.237 129.058C250.103 129.058 250.024 129.018 249.997 128.938C249.81 127.26 249.264 125.981 248.358 125.102C247.479 124.222 246.32 123.783 244.881 123.783H242.323C241.178 123.783 240.392 123.956 239.965 124.302C239.566 124.622 239.366 125.235 239.366 126.141V144.445C239.366 145.298 239.472 145.924 239.686 146.324C239.925 146.697 240.365 146.963 241.004 147.123C241.644 147.283 242.656 147.363 244.042 147.363C244.095 147.363 244.122 147.443 244.122 147.603C244.122 147.763 244.095 147.843 244.042 147.843C242.949 147.843 242.097 147.829 241.484 147.803L237.727 147.763L234.93 147.803C234.423 147.829 233.731 147.843 232.851 147.843ZM265.181 148.322C262.703 148.322 260.492 147.749 258.547 146.604C256.628 145.431 255.136 143.859 254.071 141.888C253.031 139.889 252.512 137.718 252.512 135.373C252.512 132.629 253.205 130.284 254.59 128.339C255.976 126.367 257.748 124.889 259.906 123.903C262.091 122.917 264.315 122.424 266.58 122.424C269.111 122.424 271.336 123.023 273.254 124.222C275.173 125.395 276.638 126.953 277.651 128.899C278.69 130.844 279.209 132.908 279.209 135.093C279.209 137.518 278.57 139.743 277.291 141.768C276.012 143.793 274.294 145.391 272.135 146.564C270.004 147.736 267.686 148.322 265.181 148.322ZM266.58 147.443C268.285 147.443 269.817 147.003 271.176 146.124C272.535 145.245 273.601 143.966 274.373 142.287C275.173 140.582 275.572 138.557 275.572 136.212C275.572 133.734 275.133 131.523 274.254 129.578C273.401 127.633 272.162 126.114 270.537 125.022C268.938 123.929 267.073 123.383 264.941 123.383C262.17 123.383 260.012 124.329 258.467 126.221C256.922 128.086 256.149 130.67 256.149 133.974C256.149 136.505 256.588 138.797 257.468 140.848C258.347 142.9 259.573 144.512 261.145 145.684C262.743 146.857 264.555 147.443 266.58 147.443ZM155.168 170.584C155.194 170.504 155.287 170.464 155.447 170.464C155.634 170.437 155.74 170.477 155.767 170.584L166.598 195.843H163.121L154.049 174.541L155.487 172.502L145.935 195.843H144.816L155.168 170.584ZM142.618 202.117C142.618 200.812 142.578 199.733 142.498 198.88C142.445 198.054 142.378 197.361 142.298 196.802C142.219 196.295 142.179 195.803 142.179 195.323C142.179 195.11 142.205 194.99 142.258 194.963C142.312 194.91 142.432 194.883 142.618 194.883H168.277C168.516 194.883 168.65 194.91 168.676 194.963C168.729 194.99 168.756 195.11 168.756 195.323C168.756 195.483 168.729 195.856 168.676 196.442C168.463 198.227 168.356 200.119 168.356 202.117C168.356 202.25 168.277 202.317 168.117 202.317C167.983 202.317 167.917 202.25 167.917 202.117C167.917 199.986 167.317 198.4 166.118 197.361C164.919 196.349 163.068 195.843 160.563 195.843H149.372C147.374 195.843 145.815 196.335 144.696 197.321C143.604 198.334 143.058 199.932 143.058 202.117C143.058 202.25 142.978 202.317 142.818 202.317C142.685 202.317 142.618 202.25 142.618 202.117ZM183.071 196.322C180.593 196.322 178.382 195.749 176.436 194.604C174.518 193.431 173.026 191.859 171.96 189.888C170.921 187.889 170.402 185.718 170.402 183.373C170.402 180.629 171.094 178.284 172.48 176.339C173.865 174.367 175.637 172.889 177.795 171.903C179.98 170.917 182.205 170.424 184.47 170.424C187.001 170.424 189.226 171.023 191.144 172.222C193.062 173.395 194.528 174.953 195.54 176.899C196.579 178.844 197.099 180.908 197.099 183.093C197.099 185.518 196.46 187.743 195.181 189.768C193.902 191.793 192.183 193.391 190.025 194.564C187.893 195.736 185.575 196.322 183.071 196.322ZM184.47 195.443C186.175 195.443 187.707 195.003 189.066 194.124C190.425 193.245 191.49 191.966 192.263 190.287C193.062 188.582 193.462 186.557 193.462 184.212C193.462 181.734 193.022 179.523 192.143 177.578C191.291 175.633 190.052 174.114 188.426 173.022C186.828 171.929 184.963 171.383 182.831 171.383C180.06 171.383 177.902 172.329 176.357 174.221C174.811 176.086 174.039 178.67 174.039 181.974C174.039 184.505 174.478 186.797 175.357 188.848C176.237 190.9 177.462 192.512 179.034 193.684C180.633 194.857 182.445 195.443 184.47 195.443ZM203.399 171.783L204.398 171.863L203.998 191.286C203.972 192.672 204.225 193.698 204.758 194.364C205.29 195.03 206.156 195.363 207.355 195.363C207.435 195.363 207.475 195.443 207.475 195.603C207.475 195.763 207.435 195.843 207.355 195.843C206.636 195.843 206.076 195.829 205.677 195.803L203.479 195.763L201.281 195.803C200.907 195.829 200.361 195.843 199.642 195.843C199.589 195.843 199.562 195.763 199.562 195.603C199.562 195.443 199.589 195.363 199.642 195.363C201.853 195.363 202.972 194.004 202.999 191.286L203.399 171.783ZM230.975 195.363C231.029 195.363 231.055 195.443 231.055 195.603C231.055 195.763 231.029 195.843 230.975 195.843C230.096 195.843 229.403 195.829 228.897 195.803L226.1 195.763L223.422 195.803C222.969 195.829 222.343 195.843 221.543 195.843C221.49 195.843 221.463 195.763 221.463 195.603C221.463 195.443 221.49 195.363 221.543 195.363C222.449 195.363 223.115 195.296 223.542 195.163C223.968 195.003 224.248 194.737 224.381 194.364C224.514 193.991 224.554 193.405 224.501 192.605L223.702 173.781L225.26 171.543L214.909 195.563C214.856 195.669 214.749 195.723 214.589 195.723C214.429 195.723 214.323 195.669 214.27 195.563L203.838 174.181C203.359 173.195 202.799 172.476 202.16 172.023C201.52 171.57 200.774 171.343 199.922 171.343C199.868 171.343 199.842 171.263 199.842 171.103C199.842 170.944 199.868 170.864 199.922 170.864L201.52 170.904C201.84 170.93 202.253 170.944 202.759 170.944C203.345 170.944 203.825 170.93 204.198 170.904C204.571 170.877 204.864 170.864 205.077 170.864C205.424 170.864 205.703 170.984 205.917 171.223C206.13 171.463 206.463 172.036 206.916 172.942L215.988 191.366L214.509 193.924L224.141 171.863C224.408 171.197 224.807 170.864 225.34 170.864C225.5 170.864 225.713 170.877 225.98 170.904C226.246 170.93 226.592 170.944 227.019 170.944L229.057 170.904C229.377 170.877 229.843 170.864 230.456 170.864C230.509 170.864 230.536 170.944 230.536 171.103C230.536 171.263 230.509 171.343 230.456 171.343C229.124 171.343 228.178 171.556 227.618 171.983C227.059 172.409 226.792 173.155 226.819 174.221L227.658 192.605C227.712 193.431 227.818 194.031 227.978 194.404C228.138 194.777 228.431 195.03 228.857 195.163C229.31 195.296 230.016 195.363 230.975 195.363ZM239.041 184.532H249.911L250.191 185.411H238.561L239.041 184.532ZM259.223 195.363C259.357 195.363 259.423 195.443 259.423 195.603C259.423 195.763 259.357 195.843 259.223 195.843C258.717 195.843 257.931 195.816 256.865 195.763C255.746 195.709 254.947 195.683 254.467 195.683C253.855 195.683 253.095 195.709 252.189 195.763C251.284 195.816 250.604 195.843 250.151 195.843C250.045 195.843 249.991 195.763 249.991 195.603C249.991 195.443 250.045 195.363 250.151 195.363C251.057 195.363 251.71 195.283 252.109 195.123C252.509 194.937 252.709 194.617 252.709 194.164C252.709 193.711 252.509 193.085 252.109 192.286L243.517 174.421L244.796 172.502L237.002 190.567C236.629 191.473 236.443 192.219 236.443 192.805C236.443 193.658 236.776 194.297 237.442 194.723C238.108 195.15 239.067 195.363 240.319 195.363C240.453 195.363 240.519 195.443 240.519 195.603C240.519 195.763 240.453 195.843 240.319 195.843C239.84 195.843 239.147 195.816 238.241 195.763C237.229 195.709 236.349 195.683 235.603 195.683C234.911 195.683 234.085 195.709 233.125 195.763C232.273 195.816 231.58 195.843 231.047 195.843C230.941 195.843 230.887 195.763 230.887 195.603C230.887 195.443 230.941 195.363 231.047 195.363C231.793 195.363 232.419 195.216 232.926 194.923C233.459 194.63 233.965 194.124 234.444 193.405C234.924 192.685 235.47 191.619 236.083 190.207L244.596 170.584C244.622 170.504 244.716 170.464 244.876 170.464C245.035 170.437 245.129 170.477 245.155 170.584L254.747 190.367C255.68 192.312 256.452 193.631 257.065 194.324C257.705 195.017 258.424 195.363 259.223 195.363Z" fill="#040605"/>
<path d="M124.296 262.284C124.348 262.214 124.461 262.179 124.634 262.179C124.738 262.179 124.833 262.197 124.92 262.231C125.007 262.266 125.05 262.31 125.05 262.362V276.563C125.05 277.083 125.102 277.473 125.206 277.733C125.328 277.976 125.536 278.14 125.83 278.227C126.125 278.314 126.593 278.357 127.235 278.357C127.287 278.357 127.313 278.409 127.313 278.513C127.313 278.617 127.287 278.669 127.235 278.669C126.68 278.669 126.238 278.661 125.908 278.643L124.036 278.617L121.981 278.643C121.686 278.661 121.279 278.669 120.759 278.669C120.707 278.669 120.681 278.617 120.681 278.513C120.681 278.409 120.707 278.357 120.759 278.357C121.435 278.357 121.92 278.314 122.215 278.227C122.527 278.14 122.735 277.976 122.839 277.733C122.943 277.49 122.995 277.1 122.995 276.563V264.234H123.594L112.046 278.929C111.994 278.981 111.881 279.007 111.707 279.007C111.43 279.007 111.291 278.947 111.291 278.825V264.52C111.291 264 111.231 263.619 111.109 263.376C111.005 263.133 110.797 262.968 110.485 262.882C110.19 262.778 109.722 262.726 109.08 262.726C109.046 262.726 109.028 262.674 109.028 262.57C109.028 262.466 109.046 262.414 109.08 262.414L110.459 262.44C111.257 262.474 111.872 262.492 112.306 262.492C112.86 262.492 113.537 262.474 114.334 262.44L115.583 262.414C115.635 262.414 115.661 262.466 115.661 262.57C115.661 262.674 115.635 262.726 115.583 262.726C114.907 262.726 114.412 262.778 114.1 262.882C113.805 262.968 113.606 263.133 113.502 263.376C113.398 263.619 113.346 264 113.346 264.52V276.979H112.748L124.296 262.284ZM142.257 264.572C142.257 264.052 142.205 263.671 142.101 263.428C141.997 263.168 141.789 262.986 141.477 262.882C141.165 262.778 140.679 262.726 140.02 262.726C139.968 262.726 139.942 262.674 139.942 262.57C139.942 262.466 139.968 262.414 140.02 262.414L141.243 262.44C142.041 262.474 142.725 262.492 143.298 262.492C143.783 262.492 144.407 262.474 145.17 262.44L146.497 262.414C146.549 262.414 146.575 262.466 146.575 262.57C146.575 262.674 146.549 262.726 146.497 262.726C145.855 262.726 145.378 262.778 145.066 262.882C144.771 262.968 144.572 263.133 144.468 263.376C144.364 263.619 144.312 264 144.312 264.52V276.563C144.312 277.083 144.364 277.473 144.468 277.733C144.572 277.976 144.771 278.14 145.066 278.227C145.378 278.314 145.855 278.357 146.497 278.357C146.549 278.357 146.575 278.409 146.575 278.513C146.575 278.617 146.549 278.669 146.497 278.669C145.942 278.669 145.5 278.661 145.17 278.643L143.298 278.617L141.243 278.643C140.948 278.661 140.541 278.669 140.02 278.669C139.968 278.669 139.942 278.617 139.942 278.513C139.942 278.409 139.968 278.357 140.02 278.357C140.697 278.357 141.182 278.314 141.477 278.227C141.789 278.14 141.997 277.976 142.101 277.733C142.205 277.49 142.257 277.1 142.257 276.563V264.572ZM131.672 269.904H143.168V270.502H131.672V269.904ZM130.709 264.52C130.709 264 130.657 263.619 130.553 263.376C130.449 263.133 130.25 262.968 129.955 262.882C129.66 262.778 129.192 262.726 128.55 262.726C128.498 262.726 128.472 262.674 128.472 262.57C128.472 262.466 128.498 262.414 128.55 262.414L129.877 262.44C130.605 262.474 131.212 262.492 131.698 262.492C132.235 262.492 132.903 262.474 133.7 262.44L135.027 262.414C135.061 262.414 135.079 262.466 135.079 262.57C135.079 262.674 135.061 262.726 135.027 262.726C134.368 262.726 133.882 262.778 133.57 262.882C133.258 262.986 133.041 263.168 132.92 263.428C132.816 263.671 132.764 264.052 132.764 264.572V276.563C132.764 277.083 132.816 277.473 132.92 277.733C133.041 277.976 133.249 278.14 133.544 278.227C133.856 278.314 134.35 278.357 135.027 278.357C135.061 278.357 135.079 278.409 135.079 278.513C135.079 278.617 135.061 278.669 135.027 278.669C134.454 278.669 134.012 278.661 133.7 278.643L131.698 278.617L129.851 278.643C129.521 278.661 129.071 278.669 128.498 278.669C128.464 278.669 128.446 278.617 128.446 278.513C128.446 278.409 128.464 278.357 128.498 278.357C129.14 278.357 129.608 278.314 129.903 278.227C130.215 278.14 130.423 277.976 130.527 277.733C130.648 277.473 130.709 277.083 130.709 276.563V264.52ZM152.082 262.934C151.007 262.934 150.166 263.237 149.559 263.844C148.952 264.434 148.501 265.387 148.207 266.705C148.189 266.74 148.129 266.757 148.025 266.757C147.938 266.757 147.895 266.731 147.895 266.679C147.964 266.194 148.042 265.405 148.129 264.312C148.215 263.22 148.259 262.396 148.259 261.841C148.259 261.755 148.311 261.711 148.415 261.711C148.519 261.711 148.571 261.755 148.571 261.841C148.571 262.223 149.048 262.414 150.001 262.414C151.492 262.466 153.235 262.492 155.229 262.492C156.252 262.492 157.336 262.474 158.48 262.44L160.249 262.414C160.89 262.414 161.359 262.37 161.653 262.284C161.948 262.197 162.139 262.023 162.226 261.763C162.243 261.694 162.295 261.659 162.382 261.659C162.486 261.659 162.538 261.694 162.538 261.763C162.486 262.249 162.425 263.029 162.356 264.104C162.304 265.179 162.278 266.037 162.278 266.679C162.278 266.731 162.226 266.757 162.122 266.757C162.035 266.757 161.992 266.731 161.992 266.679C161.87 265.344 161.523 264.39 160.951 263.818C160.379 263.229 159.529 262.934 158.402 262.934C157.761 262.934 157.301 262.977 157.024 263.064C156.746 263.133 156.556 263.281 156.452 263.506C156.348 263.714 156.296 264.069 156.296 264.572V276.563C156.296 277.1 156.348 277.49 156.452 277.733C156.573 277.976 156.798 278.14 157.128 278.227C157.457 278.314 157.986 278.357 158.714 278.357C158.749 278.357 158.766 278.409 158.766 278.513C158.766 278.617 158.749 278.669 158.714 278.669C158.107 278.669 157.631 278.661 157.284 278.643L155.229 278.617L153.226 278.643C152.88 278.661 152.394 278.669 151.77 278.669C151.718 278.669 151.692 278.617 151.692 278.513C151.692 278.409 151.718 278.357 151.77 278.357C152.481 278.357 153.001 278.314 153.33 278.227C153.677 278.14 153.911 277.976 154.033 277.733C154.154 277.473 154.215 277.083 154.215 276.563V264.52C154.215 264.035 154.163 263.688 154.059 263.48C153.955 263.255 153.755 263.107 153.46 263.038C153.183 262.968 152.724 262.934 152.082 262.934ZM164.065 278.669C164.013 278.669 163.987 278.617 163.987 278.513C163.987 278.409 164.013 278.357 164.065 278.357C164.689 278.357 165.14 278.314 165.417 278.227C165.712 278.14 165.912 277.976 166.016 277.733C166.12 277.473 166.172 277.083 166.172 276.563V264.52C166.172 264 166.12 263.619 166.016 263.376C165.912 263.133 165.712 262.968 165.417 262.882C165.14 262.778 164.689 262.726 164.065 262.726C164.013 262.726 163.987 262.674 163.987 262.57C163.987 262.466 164.013 262.414 164.065 262.414H174.677C174.85 262.414 174.937 262.492 174.937 262.648L174.989 265.925C174.989 265.977 174.937 266.011 174.833 266.029C174.746 266.029 174.694 266.003 174.677 265.951C174.555 264.997 174.217 264.269 173.662 263.766C173.107 263.263 172.379 263.012 171.478 263.012H170.151C169.388 263.012 168.877 263.124 168.617 263.35C168.356 263.575 168.226 264 168.226 264.624V276.459C168.226 277.083 168.339 277.508 168.565 277.733C168.807 277.958 169.284 278.071 169.995 278.071H171.712C172.683 278.071 173.489 277.785 174.13 277.213C174.789 276.623 175.24 275.791 175.483 274.716C175.483 274.681 175.518 274.664 175.587 274.664C175.639 274.664 175.682 274.681 175.717 274.716C175.769 274.733 175.795 274.751 175.795 274.768C175.622 276.016 175.535 277.187 175.535 278.279C175.535 278.418 175.509 278.522 175.457 278.591C175.405 278.643 175.301 278.669 175.145 278.669H164.065ZM173.688 272.687C173.688 271.942 173.472 271.395 173.038 271.049C172.622 270.684 171.954 270.502 171.035 270.502H167.238V269.904H171.087C171.972 269.904 172.622 269.757 173.038 269.462C173.454 269.15 173.662 268.673 173.662 268.032C173.662 267.997 173.706 267.98 173.792 267.98C173.896 267.98 173.948 267.997 173.948 268.032L173.922 270.216L173.948 271.387C173.983 271.942 174 272.375 174 272.687C174 272.722 173.948 272.739 173.844 272.739C173.74 272.739 173.688 272.722 173.688 272.687ZM181.725 276.459C181.725 277.013 181.794 277.421 181.933 277.681C182.072 277.924 182.332 278.097 182.713 278.201C183.112 278.305 183.745 278.357 184.612 278.357C184.664 278.357 184.69 278.409 184.69 278.513C184.69 278.617 184.664 278.669 184.612 278.669C183.901 278.669 183.346 278.661 182.947 278.643L180.685 278.617L178.89 278.643C178.561 278.661 178.118 278.669 177.564 278.669C177.511 278.669 177.485 278.617 177.485 278.513C177.485 278.409 177.511 278.357 177.564 278.357C178.188 278.357 178.639 278.314 178.916 278.227C179.193 278.14 179.384 277.976 179.488 277.733C179.592 277.473 179.644 277.083 179.644 276.563V264.52C179.644 264 179.592 263.619 179.488 263.376C179.384 263.133 179.185 262.968 178.89 262.882C178.613 262.778 178.17 262.726 177.564 262.726C177.511 262.726 177.485 262.674 177.485 262.57C177.485 262.466 177.511 262.414 177.564 262.414L178.864 262.44C179.627 262.474 180.225 262.492 180.659 262.492C181.075 262.492 181.569 262.466 182.141 262.414C182.349 262.414 182.67 262.405 183.103 262.388C183.554 262.353 183.944 262.336 184.274 262.336C185.904 262.336 187.213 262.7 188.201 263.428C189.19 264.139 189.684 265.223 189.684 266.679C189.684 267.806 189.398 268.76 188.825 269.54C188.271 270.32 187.551 270.901 186.667 271.283C185.8 271.664 184.898 271.855 183.962 271.855C183.459 271.855 183.043 271.812 182.713 271.725C182.661 271.725 182.635 271.681 182.635 271.595C182.635 271.543 182.644 271.491 182.661 271.439C182.696 271.387 182.731 271.369 182.765 271.387C183.043 271.456 183.346 271.491 183.676 271.491C184.716 271.491 185.592 271.118 186.303 270.372C187.014 269.627 187.369 268.552 187.369 267.147C187.369 265.777 187.022 264.711 186.329 263.948C185.635 263.168 184.716 262.778 183.572 262.778C183.034 262.778 182.644 262.821 182.401 262.908C182.158 262.977 181.985 263.142 181.881 263.402C181.777 263.645 181.725 264.035 181.725 264.572V276.459ZM198.238 278.773C197.805 278.773 197.285 278.747 196.678 278.695C196.435 278.678 196.114 278.661 195.715 278.643C195.334 278.626 194.892 278.617 194.389 278.617L192.698 278.643C192.351 278.661 191.892 278.669 191.32 278.669C191.268 278.669 191.242 278.617 191.242 278.513C191.242 278.409 191.268 278.357 191.32 278.357C191.961 278.34 192.421 278.296 192.698 278.227C192.976 278.14 193.166 277.976 193.27 277.733C193.392 277.49 193.452 277.1 193.452 276.563V264.52C193.452 263.983 193.4 263.601 193.296 263.376C193.192 263.133 193.002 262.968 192.724 262.882C192.447 262.795 191.987 262.743 191.346 262.726C191.311 262.726 191.294 262.674 191.294 262.57C191.294 262.466 191.311 262.414 191.346 262.414L192.594 262.44C193.357 262.474 193.973 262.492 194.441 262.492C194.961 262.492 195.62 262.474 196.418 262.44L197.744 262.414C197.796 262.414 197.822 262.466 197.822 262.57C197.822 262.674 197.796 262.726 197.744 262.726C197.085 262.743 196.6 262.795 196.287 262.882C195.993 262.968 195.785 263.142 195.663 263.402C195.559 263.645 195.507 264.035 195.507 264.572V276.563C195.507 277.135 195.655 277.56 195.949 277.837C196.244 278.114 196.842 278.253 197.744 278.253C199.079 278.253 200.033 277.941 200.605 277.317C201.195 276.675 201.489 275.678 201.489 274.326C201.489 272.817 201.169 271.734 200.527 271.075C199.885 270.398 198.914 270.06 197.614 270.06C196.834 270.06 195.845 270.199 194.649 270.476L194.571 269.93C195.923 269.635 197.172 269.488 198.316 269.488C201.905 269.488 203.7 270.91 203.7 273.754C203.7 274.742 203.466 275.618 202.998 276.38C202.547 277.143 201.905 277.733 201.073 278.149C200.241 278.565 199.296 278.773 198.238 278.773ZM205.201 278.669C205.149 278.669 205.123 278.617 205.123 278.513C205.123 278.409 205.149 278.357 205.201 278.357C205.825 278.357 206.276 278.314 206.554 278.227C206.848 278.14 207.048 277.976 207.152 277.733C207.256 277.473 207.308 277.083 207.308 276.563V264.52C207.308 264 207.256 263.619 207.152 263.376C207.048 263.133 206.848 262.968 206.554 262.882C206.276 262.778 205.825 262.726 205.201 262.726C205.149 262.726 205.123 262.674 205.123 262.57C205.123 262.466 205.149 262.414 205.201 262.414H215.813C215.986 262.414 216.073 262.492 216.073 262.648L216.125 265.925C216.125 265.977 216.073 266.011 215.969 266.029C215.882 266.029 215.83 266.003 215.813 265.951C215.691 264.997 215.353 264.269 214.799 263.766C214.244 263.263 213.515 263.012 212.614 263.012H211.287C210.524 263.012 210.013 263.124 209.753 263.35C209.493 263.575 209.363 264 209.363 264.624V276.459C209.363 277.083 209.475 277.508 209.701 277.733C209.943 277.958 210.42 278.071 211.131 278.071H212.848C213.819 278.071 214.625 277.785 215.267 277.213C215.926 276.623 216.376 275.791 216.619 274.716C216.619 274.681 216.654 274.664 216.723 274.664C216.775 274.664 216.819 274.681 216.853 274.716C216.905 274.733 216.931 274.751 216.931 274.768C216.758 276.016 216.671 277.187 216.671 278.279C216.671 278.418 216.645 278.522 216.593 278.591C216.541 278.643 216.437 278.669 216.281 278.669H205.201ZM214.825 272.687C214.825 271.942 214.608 271.395 214.174 271.049C213.758 270.684 213.091 270.502 212.172 270.502H208.374V269.904H212.224C213.108 269.904 213.758 269.757 214.174 269.462C214.59 269.15 214.799 268.673 214.799 268.032C214.799 267.997 214.842 267.98 214.929 267.98C215.033 267.98 215.085 267.997 215.085 268.032L215.059 270.216L215.085 271.387C215.119 271.942 215.137 272.375 215.137 272.687C215.137 272.722 215.085 272.739 214.981 272.739C214.877 272.739 214.825 272.722 214.825 272.687ZM222.861 276.459C222.861 277.013 222.931 277.421 223.069 277.681C223.208 277.924 223.468 278.097 223.85 278.201C224.248 278.305 224.881 278.357 225.748 278.357C225.8 278.357 225.826 278.409 225.826 278.513C225.826 278.617 225.8 278.669 225.748 278.669C225.037 278.669 224.482 278.661 224.084 278.643L221.821 278.617L220.026 278.643C219.697 278.661 219.255 278.669 218.7 278.669C218.648 278.669 218.622 278.617 218.622 278.513C218.622 278.409 218.648 278.357 218.7 278.357C219.324 278.357 219.775 278.314 220.052 278.227C220.33 278.14 220.52 277.976 220.624 277.733C220.728 277.473 220.78 277.083 220.78 276.563V264.52C220.78 264 220.728 263.619 220.624 263.376C220.52 263.133 220.321 262.968 220.026 262.882C219.749 262.778 219.307 262.726 218.7 262.726C218.648 262.726 218.622 262.674 218.622 262.57C218.622 262.466 218.648 262.414 218.7 262.414L220 262.44C220.763 262.474 221.361 262.492 221.795 262.492C222.211 262.492 222.705 262.466 223.277 262.414C223.485 262.414 223.806 262.405 224.24 262.388C224.69 262.353 225.081 262.336 225.41 262.336C227.04 262.336 228.349 262.7 229.337 263.428C230.326 264.139 230.82 265.223 230.82 266.679C230.82 267.806 230.534 268.76 229.962 269.54C229.407 270.32 228.687 270.901 227.803 271.283C226.936 271.664 226.034 271.855 225.098 271.855C224.595 271.855 224.179 271.812 223.85 271.725C223.797 271.725 223.771 271.681 223.771 271.595C223.771 271.543 223.78 271.491 223.797 271.439C223.832 271.387 223.867 271.369 223.902 271.387C224.179 271.456 224.482 271.491 224.812 271.491C225.852 271.491 226.728 271.118 227.439 270.372C228.15 269.627 228.505 268.552 228.505 267.147C228.505 265.777 228.158 264.711 227.465 263.948C226.771 263.168 225.852 262.778 224.708 262.778C224.17 262.778 223.78 262.821 223.537 262.908C223.295 262.977 223.121 263.142 223.017 263.402C222.913 263.645 222.861 264.035 222.861 264.572V276.459ZM232.492 276.537C233.047 276.537 233.472 276.736 233.766 277.135C234.078 277.534 234.234 278.123 234.234 278.903C234.234 279.718 234.052 280.499 233.688 281.244C233.324 281.99 232.787 282.727 232.076 283.455C232.058 283.472 232.032 283.481 231.998 283.481C231.946 283.481 231.902 283.455 231.868 283.403C231.833 283.351 231.833 283.308 231.868 283.273C232.284 282.718 232.561 282.181 232.7 281.66C232.856 281.158 232.934 280.594 232.934 279.97C232.934 279.484 232.873 279.103 232.752 278.825C232.648 278.565 232.483 278.34 232.258 278.149L233.246 277.967C233.263 278.262 233.185 278.487 233.012 278.643C232.839 278.799 232.596 278.877 232.284 278.877C231.92 278.877 231.634 278.773 231.426 278.565C231.235 278.357 231.139 278.08 231.139 277.733C231.139 277.351 231.252 277.057 231.478 276.849C231.72 276.641 232.058 276.537 232.492 276.537ZM254.237 278.669C253.994 278.669 253.786 278.609 253.613 278.487C253.439 278.349 253.136 277.993 252.702 277.421C252.269 276.849 251.523 275.808 250.466 274.3L250.154 273.858C249.408 272.8 248.862 272.063 248.515 271.647C248.168 271.213 247.804 270.91 247.423 270.736C247.058 270.563 246.573 270.476 245.966 270.476C245.758 270.476 245.559 270.485 245.368 270.502C245.177 270.52 245.004 270.537 244.848 270.554L244.822 270.086C245.966 270.034 246.85 270.008 247.475 270.008C248.29 270.008 248.914 270.104 249.347 270.294C249.781 270.468 250.188 270.78 250.57 271.231C250.951 271.664 251.593 272.514 252.494 273.78C253.344 274.959 254.012 275.843 254.497 276.433C254.983 277.022 255.485 277.49 256.006 277.837C256.526 278.166 257.107 278.34 257.748 278.357C257.783 278.357 257.8 278.409 257.8 278.513C257.8 278.617 257.783 278.669 257.748 278.669H254.237ZM241.466 278.669C241.432 278.669 241.414 278.617 241.414 278.513C241.414 278.409 241.432 278.357 241.466 278.357C242.108 278.357 242.576 278.314 242.871 278.227C243.183 278.14 243.391 277.976 243.495 277.733C243.617 277.473 243.677 277.083 243.677 276.563V264.52C243.677 264 243.617 263.619 243.495 263.376C243.391 263.133 243.192 262.968 242.897 262.882C242.602 262.778 242.134 262.726 241.492 262.726C241.458 262.726 241.44 262.674 241.44 262.57C241.44 262.466 241.458 262.414 241.492 262.414L242.819 262.44C243.547 262.474 244.145 262.492 244.614 262.492C245.134 262.492 245.793 262.474 246.59 262.44L247.891 262.414C247.943 262.414 247.969 262.466 247.969 262.57C247.969 262.674 247.943 262.726 247.891 262.726C247.267 262.726 246.798 262.778 246.486 262.882C246.191 262.986 245.992 263.168 245.888 263.428C245.784 263.671 245.732 264.052 245.732 264.572V276.563C245.732 277.1 245.784 277.49 245.888 277.733C245.992 277.976 246.191 278.14 246.486 278.227C246.781 278.314 247.249 278.357 247.891 278.357C247.943 278.357 247.969 278.409 247.969 278.513C247.969 278.617 247.943 278.669 247.891 278.669C247.336 278.669 246.894 278.661 246.564 278.643L244.614 278.617L242.793 278.643C242.481 278.661 242.039 278.669 241.466 278.669ZM247.683 270.19L250.83 265.821C251.593 264.798 251.974 264.026 251.974 263.506C251.974 262.986 251.558 262.726 250.726 262.726C250.691 262.726 250.674 262.674 250.674 262.57C250.674 262.466 250.691 262.414 250.726 262.414L251.87 262.44C252.564 262.474 253.197 262.492 253.769 262.492C254.376 262.492 255.009 262.474 255.668 262.44L256.682 262.414C256.734 262.414 256.76 262.466 256.76 262.57C256.76 262.674 256.734 262.726 256.682 262.726C255.815 262.726 254.991 262.968 254.211 263.454C253.448 263.922 252.685 264.65 251.922 265.639L248.151 270.424L247.683 270.19ZM262.486 271.309H269.56L269.743 271.881H262.174L262.486 271.309ZM275.621 278.357C275.707 278.357 275.751 278.409 275.751 278.513C275.751 278.617 275.707 278.669 275.621 278.669C275.291 278.669 274.78 278.652 274.086 278.617C273.358 278.583 272.838 278.565 272.526 278.565C272.127 278.565 271.633 278.583 271.043 278.617C270.453 278.652 270.011 278.669 269.717 278.669C269.647 278.669 269.613 278.617 269.613 278.513C269.613 278.409 269.647 278.357 269.717 278.357C270.306 278.357 270.731 278.305 270.991 278.201C271.251 278.08 271.381 277.872 271.381 277.577C271.381 277.282 271.251 276.875 270.991 276.354L265.399 264.728L266.231 263.48L261.16 275.236C260.917 275.826 260.795 276.311 260.795 276.693C260.795 277.247 261.012 277.664 261.446 277.941C261.879 278.218 262.503 278.357 263.318 278.357C263.405 278.357 263.448 278.409 263.448 278.513C263.448 278.617 263.405 278.669 263.318 278.669C263.006 278.669 262.555 278.652 261.966 278.617C261.307 278.583 260.735 278.565 260.249 278.565C259.798 278.565 259.261 278.583 258.637 278.617C258.082 278.652 257.631 278.669 257.284 278.669C257.215 278.669 257.18 278.617 257.18 278.513C257.18 278.409 257.215 278.357 257.284 278.357C257.77 278.357 258.177 278.262 258.507 278.071C258.853 277.88 259.183 277.551 259.495 277.083C259.807 276.615 260.162 275.921 260.561 275.002L266.101 262.231C266.119 262.179 266.179 262.153 266.283 262.153C266.387 262.136 266.448 262.162 266.465 262.231L272.708 275.106C273.314 276.372 273.817 277.23 274.216 277.681C274.632 278.132 275.1 278.357 275.621 278.357ZM288.731 278.669C288.488 278.669 288.28 278.609 288.106 278.487C287.933 278.349 287.63 277.993 287.196 277.421C286.763 276.849 286.017 275.808 284.959 274.3L284.647 273.858C283.902 272.8 283.355 272.063 283.009 271.647C282.662 271.213 282.298 270.91 281.916 270.736C281.552 270.563 281.067 270.476 280.46 270.476C280.252 270.476 280.052 270.485 279.862 270.502C279.671 270.52 279.497 270.537 279.341 270.554L279.315 270.086C280.46 270.034 281.344 270.008 281.968 270.008C282.783 270.008 283.407 270.104 283.841 270.294C284.274 270.468 284.682 270.78 285.063 271.231C285.445 271.664 286.086 272.514 286.988 273.78C287.838 274.959 288.505 275.843 288.991 276.433C289.476 277.022 289.979 277.49 290.499 277.837C291.019 278.166 291.6 278.34 292.242 278.357C292.277 278.357 292.294 278.409 292.294 278.513C292.294 278.617 292.277 278.669 292.242 278.669H288.731ZM275.96 278.669C275.925 278.669 275.908 278.617 275.908 278.513C275.908 278.409 275.925 278.357 275.96 278.357C276.602 278.357 277.07 278.314 277.365 278.227C277.677 278.14 277.885 277.976 277.989 277.733C278.11 277.473 278.171 277.083 278.171 276.563V264.52C278.171 264 278.11 263.619 277.989 263.376C277.885 263.133 277.685 262.968 277.391 262.882C277.096 262.778 276.628 262.726 275.986 262.726C275.951 262.726 275.934 262.674 275.934 262.57C275.934 262.466 275.951 262.414 275.986 262.414L277.313 262.44C278.041 262.474 278.639 262.492 279.107 262.492C279.627 262.492 280.286 262.474 281.084 262.44L282.384 262.414C282.436 262.414 282.462 262.466 282.462 262.57C282.462 262.674 282.436 262.726 282.384 262.726C281.76 262.726 281.292 262.778 280.98 262.882C280.685 262.986 280.486 263.168 280.382 263.428C280.278 263.671 280.226 264.052 280.226 264.572V276.563C280.226 277.1 280.278 277.49 280.382 277.733C280.486 277.976 280.685 278.14 280.98 278.227C281.275 278.314 281.743 278.357 282.384 278.357C282.436 278.357 282.462 278.409 282.462 278.513C282.462 278.617 282.436 278.669 282.384 278.669C281.83 278.669 281.387 278.661 281.058 278.643L279.107 278.617L277.287 278.643C276.975 278.661 276.532 278.669 275.96 278.669ZM282.176 270.19L285.323 265.821C286.086 264.798 286.468 264.026 286.468 263.506C286.468 262.986 286.052 262.726 285.219 262.726C285.185 262.726 285.167 262.674 285.167 262.57C285.167 262.466 285.185 262.414 285.219 262.414L286.364 262.44C287.057 262.474 287.69 262.492 288.263 262.492C288.869 262.492 289.502 262.474 290.161 262.44L291.176 262.414C291.228 262.414 291.254 262.466 291.254 262.57C291.254 262.674 291.228 262.726 291.176 262.726C290.309 262.726 289.485 262.968 288.705 263.454C287.942 263.922 287.179 264.65 286.416 265.639L282.645 270.424L282.176 270.19ZM131.331 309.981C129.718 309.981 128.279 309.609 127.013 308.863C125.765 308.1 124.794 307.077 124.1 305.794C123.424 304.493 123.086 303.08 123.086 301.554C123.086 299.768 123.537 298.243 124.438 296.977C125.34 295.694 126.493 294.731 127.898 294.09C129.319 293.448 130.767 293.127 132.241 293.127C133.888 293.127 135.336 293.518 136.585 294.298C137.833 295.061 138.787 296.075 139.446 297.341C140.122 298.607 140.46 299.951 140.46 301.372C140.46 302.95 140.044 304.398 139.212 305.716C138.379 307.034 137.261 308.074 135.856 308.837C134.469 309.6 132.961 309.981 131.331 309.981ZM132.241 309.409C133.351 309.409 134.348 309.123 135.232 308.551C136.116 307.979 136.81 307.146 137.313 306.054C137.833 304.944 138.093 303.626 138.093 302.101C138.093 300.488 137.807 299.049 137.235 297.783C136.68 296.517 135.874 295.529 134.816 294.818C133.776 294.107 132.562 293.752 131.175 293.752C129.371 293.752 127.967 294.367 126.961 295.598C125.956 296.812 125.453 298.494 125.453 300.644C125.453 302.291 125.739 303.783 126.311 305.118C126.883 306.453 127.681 307.502 128.704 308.265C129.744 309.028 130.923 309.409 132.241 309.409ZM145.771 293.934C144.696 293.934 143.855 294.237 143.248 294.844C142.641 295.434 142.19 296.387 141.895 297.705C141.878 297.74 141.817 297.757 141.713 297.757C141.627 297.757 141.583 297.731 141.583 297.679C141.653 297.194 141.731 296.405 141.817 295.312C141.904 294.22 141.947 293.396 141.947 292.841C141.947 292.755 141.999 292.711 142.103 292.711C142.207 292.711 142.259 292.755 142.259 292.841C142.259 293.223 142.736 293.414 143.69 293.414C145.181 293.466 146.924 293.492 148.918 293.492C149.941 293.492 151.025 293.474 152.169 293.44L153.938 293.414C154.579 293.414 155.047 293.37 155.342 293.284C155.637 293.197 155.828 293.023 155.914 292.763C155.932 292.694 155.984 292.659 156.07 292.659C156.174 292.659 156.226 292.694 156.226 292.763C156.174 293.249 156.114 294.029 156.044 295.104C155.992 296.179 155.966 297.037 155.966 297.679C155.966 297.731 155.914 297.757 155.81 297.757C155.724 297.757 155.68 297.731 155.68 297.679C155.559 296.344 155.212 295.39 154.64 294.818C154.068 294.229 153.218 293.934 152.091 293.934C151.449 293.934 150.99 293.977 150.712 294.064C150.435 294.133 150.244 294.281 150.14 294.506C150.036 294.714 149.984 295.069 149.984 295.572V307.563C149.984 308.1 150.036 308.49 150.14 308.733C150.262 308.976 150.487 309.14 150.817 309.227C151.146 309.314 151.675 309.357 152.403 309.357C152.438 309.357 152.455 309.409 152.455 309.513C152.455 309.617 152.438 309.669 152.403 309.669C151.796 309.669 151.319 309.661 150.973 309.643L148.918 309.617L146.915 309.643C146.568 309.661 146.083 309.669 145.459 309.669C145.407 309.669 145.381 309.617 145.381 309.513C145.381 309.409 145.407 309.357 145.459 309.357C146.17 309.357 146.69 309.314 147.019 309.227C147.366 309.14 147.6 308.976 147.721 308.733C147.843 308.473 147.903 308.083 147.903 307.563V295.52C147.903 295.035 147.851 294.688 147.747 294.48C147.643 294.255 147.444 294.107 147.149 294.038C146.872 293.968 146.412 293.934 145.771 293.934ZM161.837 307.459C161.837 308.013 161.906 308.421 162.045 308.681C162.184 308.924 162.444 309.097 162.825 309.201C163.224 309.305 163.857 309.357 164.724 309.357C164.776 309.357 164.802 309.409 164.802 309.513C164.802 309.617 164.776 309.669 164.724 309.669C164.013 309.669 163.458 309.661 163.06 309.643L160.797 309.617L159.002 309.643C158.673 309.661 158.23 309.669 157.676 309.669C157.624 309.669 157.598 309.617 157.598 309.513C157.598 309.409 157.624 309.357 157.676 309.357C158.3 309.357 158.751 309.314 159.028 309.227C159.306 309.14 159.496 308.976 159.6 308.733C159.704 308.473 159.756 308.083 159.756 307.563V295.52C159.756 295 159.704 294.619 159.6 294.376C159.496 294.133 159.297 293.968 159.002 293.882C158.725 293.778 158.282 293.726 157.676 293.726C157.624 293.726 157.598 293.674 157.598 293.57C157.598 293.466 157.624 293.414 157.676 293.414L158.976 293.44C159.739 293.474 160.337 293.492 160.771 293.492C161.187 293.492 161.681 293.466 162.253 293.414C162.461 293.414 162.782 293.405 163.216 293.388C163.666 293.353 164.057 293.336 164.386 293.336C166.016 293.336 167.325 293.7 168.313 294.428C169.302 295.139 169.796 296.223 169.796 297.679C169.796 298.806 169.51 299.76 168.938 300.54C168.383 301.32 167.663 301.901 166.779 302.283C165.912 302.664 165.01 302.855 164.074 302.855C163.571 302.855 163.155 302.812 162.825 302.725C162.773 302.725 162.747 302.681 162.747 302.595C162.747 302.543 162.756 302.491 162.773 302.439C162.808 302.387 162.843 302.369 162.877 302.387C163.155 302.456 163.458 302.491 163.788 302.491C164.828 302.491 165.704 302.118 166.415 301.372C167.126 300.627 167.481 299.552 167.481 298.147C167.481 296.777 167.134 295.711 166.441 294.948C165.747 294.168 164.828 293.778 163.684 293.778C163.146 293.778 162.756 293.821 162.513 293.908C162.271 293.977 162.097 294.142 161.993 294.402C161.889 294.645 161.837 295.035 161.837 295.572V307.459ZM174.219 302.309H181.294L181.476 302.881H173.907L174.219 302.309ZM187.354 309.357C187.441 309.357 187.484 309.409 187.484 309.513C187.484 309.617 187.441 309.669 187.354 309.669C187.024 309.669 186.513 309.652 185.819 309.617C185.091 309.583 184.571 309.565 184.259 309.565C183.86 309.565 183.366 309.583 182.776 309.617C182.187 309.652 181.745 309.669 181.45 309.669C181.38 309.669 181.346 309.617 181.346 309.513C181.346 309.409 181.38 309.357 181.45 309.357C182.039 309.357 182.464 309.305 182.724 309.201C182.984 309.08 183.114 308.872 183.114 308.577C183.114 308.282 182.984 307.875 182.724 307.354L177.132 295.728L177.965 294.48L172.893 306.236C172.65 306.826 172.529 307.311 172.529 307.693C172.529 308.247 172.745 308.664 173.179 308.941C173.612 309.218 174.237 309.357 175.052 309.357C175.138 309.357 175.182 309.409 175.182 309.513C175.182 309.617 175.138 309.669 175.052 309.669C174.739 309.669 174.289 309.652 173.699 309.617C173.04 309.583 172.468 309.565 171.983 309.565C171.532 309.565 170.994 309.583 170.37 309.617C169.815 309.652 169.364 309.669 169.017 309.669C168.948 309.669 168.913 309.617 168.913 309.513C168.913 309.409 168.948 309.357 169.017 309.357C169.503 309.357 169.91 309.262 170.24 309.071C170.587 308.88 170.916 308.551 171.228 308.083C171.54 307.615 171.896 306.921 172.295 306.002L177.835 293.231C177.852 293.179 177.913 293.153 178.017 293.153C178.121 293.136 178.181 293.162 178.199 293.231L184.441 306.106C185.048 307.372 185.551 308.23 185.949 308.681C186.366 309.132 186.834 309.357 187.354 309.357ZM196.667 309.669C196.615 309.669 196.589 309.617 196.589 309.513C196.589 309.409 196.615 309.357 196.667 309.357C197.308 309.357 197.776 309.314 198.071 309.227C198.383 309.14 198.591 308.976 198.695 308.733C198.817 308.473 198.877 308.083 198.877 307.563V295.52C198.877 295.017 198.808 294.645 198.669 294.402C198.531 294.142 198.297 293.968 197.967 293.882C197.638 293.778 197.152 293.726 196.511 293.726C196.476 293.726 196.459 293.674 196.459 293.57C196.459 293.466 196.476 293.414 196.511 293.414L197.915 293.44C198.713 293.474 199.337 293.492 199.788 293.492C200.308 293.492 200.984 293.474 201.816 293.44L203.247 293.414C203.282 293.414 203.299 293.466 203.299 293.57C203.299 293.674 203.282 293.726 203.247 293.726C202.605 293.726 202.12 293.778 201.79 293.882C201.461 293.986 201.227 294.168 201.088 294.428C200.95 294.688 200.88 295.069 200.88 295.572V307.563C200.88 308.1 200.932 308.49 201.036 308.733C201.14 308.976 201.34 309.14 201.634 309.227C201.929 309.314 202.406 309.357 203.065 309.357C203.117 309.357 203.143 309.409 203.143 309.513C203.143 309.617 203.117 309.669 203.065 309.669C202.493 309.669 202.042 309.661 201.712 309.643L199.788 309.617L197.967 309.643C197.655 309.661 197.222 309.669 196.667 309.669ZM186.991 309.669C186.939 309.669 186.913 309.617 186.913 309.513C186.913 309.409 186.939 309.357 186.991 309.357C187.598 309.34 188.144 309.166 188.63 308.837C189.115 308.508 189.583 308.057 190.034 307.485C190.485 306.895 191.127 305.993 191.959 304.78C192.774 303.548 193.381 302.699 193.78 302.231C194.178 301.745 194.595 301.424 195.028 301.268C195.479 301.095 196.12 301.008 196.953 301.008C197.577 301.008 198.444 301.034 199.554 301.086L199.528 301.554C199.354 301.537 199.172 301.52 198.981 301.502C198.808 301.485 198.626 301.476 198.435 301.476C197.759 301.476 197.222 301.572 196.823 301.762C196.424 301.936 196.034 302.265 195.652 302.751C195.271 303.219 194.69 304.06 193.91 305.274C192.904 306.834 192.21 307.892 191.829 308.447C191.465 308.984 191.196 309.323 191.023 309.461C190.867 309.6 190.685 309.669 190.476 309.669H186.991ZM192.349 296.639C191.621 295.598 190.875 294.853 190.112 294.402C189.367 293.951 188.526 293.726 187.589 293.726C187.555 293.726 187.537 293.674 187.537 293.57C187.537 293.466 187.555 293.414 187.589 293.414L188.604 293.44C189.263 293.474 189.896 293.492 190.502 293.492C191.057 293.492 191.716 293.474 192.479 293.44L193.832 293.414C193.866 293.414 193.884 293.466 193.884 293.57C193.884 293.674 193.866 293.726 193.832 293.726C193.346 293.726 192.991 293.786 192.765 293.908C192.54 294.029 192.427 294.229 192.427 294.506C192.427 294.957 192.809 295.78 193.572 296.977L196.225 301.19L195.782 301.424L192.349 296.639ZM209.229 309.669C209.021 309.669 208.83 309.609 208.657 309.487C208.501 309.349 208.223 308.993 207.825 308.421C207.443 307.849 206.767 306.808 205.796 305.3C205.016 304.086 204.435 303.236 204.053 302.751C203.672 302.265 203.282 301.936 202.883 301.762C202.484 301.572 201.947 301.476 201.27 301.476C201.08 301.476 200.897 301.485 200.724 301.502C200.551 301.52 200.386 301.537 200.23 301.554L200.204 301.086C201.296 301.034 202.146 301.008 202.753 301.008C203.602 301.008 204.244 301.095 204.677 301.268C205.128 301.424 205.553 301.736 205.952 302.205C206.351 302.673 206.958 303.531 207.773 304.78C208.605 305.993 209.246 306.895 209.697 307.485C210.148 308.057 210.616 308.508 211.102 308.837C211.587 309.166 212.133 309.34 212.74 309.357C212.792 309.357 212.818 309.409 212.818 309.513C212.818 309.617 212.792 309.669 212.74 309.669H209.229ZM203.481 301.19L206.134 297.029C206.914 295.85 207.304 295.017 207.304 294.532C207.304 293.994 206.845 293.726 205.926 293.726C205.874 293.726 205.848 293.674 205.848 293.57C205.848 293.466 205.874 293.414 205.926 293.414L207.252 293.44C208.015 293.474 208.674 293.492 209.229 293.492C209.836 293.492 210.469 293.474 211.128 293.44L212.142 293.414C212.177 293.414 212.194 293.466 212.194 293.57C212.194 293.674 212.177 293.726 212.142 293.726C211.206 293.726 210.356 293.951 209.593 294.402C208.848 294.853 208.111 295.598 207.382 296.639L203.949 301.424L203.481 301.19ZM213.444 309.669C213.392 309.669 213.366 309.617 213.366 309.513C213.366 309.409 213.392 309.357 213.444 309.357C214.068 309.357 214.519 309.314 214.796 309.227C215.091 309.14 215.29 308.976 215.394 308.733C215.499 308.473 215.551 308.083 215.551 307.563V295.52C215.551 295 215.499 294.619 215.394 294.376C215.29 294.133 215.091 293.968 214.796 293.882C214.519 293.778 214.068 293.726 213.444 293.726C213.392 293.726 213.366 293.674 213.366 293.57C213.366 293.466 213.392 293.414 213.444 293.414H224.056C224.229 293.414 224.316 293.492 224.316 293.648L224.368 296.925C224.368 296.977 224.316 297.011 224.212 297.029C224.125 297.029 224.073 297.003 224.056 296.951C223.934 295.997 223.596 295.269 223.041 294.766C222.486 294.263 221.758 294.012 220.856 294.012H219.53C218.767 294.012 218.256 294.124 217.995 294.35C217.735 294.575 217.605 295 217.605 295.624V307.459C217.605 308.083 217.718 308.508 217.943 308.733C218.186 308.958 218.663 309.071 219.374 309.071H221.091C222.062 309.071 222.868 308.785 223.509 308.213C224.168 307.623 224.619 306.791 224.862 305.716C224.862 305.681 224.897 305.664 224.966 305.664C225.018 305.664 225.061 305.681 225.096 305.716C225.148 305.733 225.174 305.751 225.174 305.768C225.001 307.016 224.914 308.187 224.914 309.279C224.914 309.418 224.888 309.522 224.836 309.591C224.784 309.643 224.68 309.669 224.524 309.669H213.444ZM223.067 303.687C223.067 302.942 222.85 302.395 222.417 302.049C222.001 301.684 221.333 301.502 220.414 301.502H216.617V300.904H220.466C221.351 300.904 222.001 300.757 222.417 300.462C222.833 300.15 223.041 299.673 223.041 299.032C223.041 298.997 223.085 298.98 223.171 298.98C223.275 298.98 223.327 298.997 223.327 299.032L223.301 301.216L223.327 302.387C223.362 302.942 223.379 303.375 223.379 303.687C223.379 303.722 223.327 303.739 223.223 303.739C223.119 303.739 223.067 303.722 223.067 303.687ZM240.519 295.572C240.519 295.052 240.467 294.671 240.363 294.428C240.259 294.168 240.051 293.986 239.739 293.882C239.427 293.778 238.941 293.726 238.282 293.726C238.23 293.726 238.204 293.674 238.204 293.57C238.204 293.466 238.23 293.414 238.282 293.414L239.505 293.44C240.302 293.474 240.987 293.492 241.56 293.492C242.045 293.492 242.669 293.474 243.432 293.44L244.759 293.414C244.811 293.414 244.837 293.466 244.837 293.57C244.837 293.674 244.811 293.726 244.759 293.726C244.117 293.726 243.64 293.778 243.328 293.882C243.033 293.968 242.834 294.133 242.73 294.376C242.626 294.619 242.574 295 242.574 295.52V307.563C242.574 308.083 242.626 308.473 242.73 308.733C242.834 308.976 243.033 309.14 243.328 309.227C243.64 309.314 244.117 309.357 244.759 309.357C244.811 309.357 244.837 309.409 244.837 309.513C244.837 309.617 244.811 309.669 244.759 309.669C244.204 309.669 243.762 309.661 243.432 309.643L241.56 309.617L239.505 309.643C239.21 309.661 238.803 309.669 238.282 309.669C238.23 309.669 238.204 309.617 238.204 309.513C238.204 309.409 238.23 309.357 238.282 309.357C238.959 309.357 239.444 309.314 239.739 309.227C240.051 309.14 240.259 308.976 240.363 308.733C240.467 308.49 240.519 308.1 240.519 307.563V295.572ZM229.933 300.904H241.429V301.502H229.933V300.904ZM228.971 295.52C228.971 295 228.919 294.619 228.815 294.376C228.711 294.133 228.512 293.968 228.217 293.882C227.922 293.778 227.454 293.726 226.812 293.726C226.76 293.726 226.734 293.674 226.734 293.57C226.734 293.466 226.76 293.414 226.812 293.414L228.139 293.44C228.867 293.474 229.474 293.492 229.959 293.492C230.497 293.492 231.165 293.474 231.962 293.44L233.289 293.414C233.323 293.414 233.341 293.466 233.341 293.57C233.341 293.674 233.323 293.726 233.289 293.726C232.63 293.726 232.144 293.778 231.832 293.882C231.52 293.986 231.303 294.168 231.182 294.428C231.078 294.671 231.026 295.052 231.026 295.572V307.563C231.026 308.083 231.078 308.473 231.182 308.733C231.303 308.976 231.511 309.14 231.806 309.227C232.118 309.314 232.612 309.357 233.289 309.357C233.323 309.357 233.341 309.409 233.341 309.513C233.341 309.617 233.323 309.669 233.289 309.669C232.716 309.669 232.274 309.661 231.962 309.643L229.959 309.617L228.113 309.643C227.783 309.661 227.333 309.669 226.76 309.669C226.726 309.669 226.708 309.617 226.708 309.513C226.708 309.409 226.726 309.357 226.76 309.357C227.402 309.357 227.87 309.314 228.165 309.227C228.477 309.14 228.685 308.976 228.789 308.733C228.91 308.473 228.971 308.083 228.971 307.563V295.52ZM261.268 293.284C261.32 293.214 261.433 293.179 261.606 293.179C261.71 293.179 261.805 293.197 261.892 293.231C261.979 293.266 262.022 293.31 262.022 293.362V307.563C262.022 308.083 262.074 308.473 262.178 308.733C262.3 308.976 262.508 309.14 262.802 309.227C263.097 309.314 263.565 309.357 264.207 309.357C264.259 309.357 264.285 309.409 264.285 309.513C264.285 309.617 264.259 309.669 264.207 309.669C263.652 309.669 263.21 309.661 262.88 309.643L261.008 309.617L258.953 309.643C258.658 309.661 258.251 309.669 257.731 309.669C257.679 309.669 257.653 309.617 257.653 309.513C257.653 309.409 257.679 309.357 257.731 309.357C258.407 309.357 258.892 309.314 259.187 309.227C259.499 309.14 259.707 308.976 259.811 308.733C259.915 308.49 259.967 308.1 259.967 307.563V295.234H260.566L249.017 309.929C248.965 309.981 248.853 310.007 248.679 310.007C248.402 310.007 248.263 309.947 248.263 309.825V295.52C248.263 295 248.203 294.619 248.081 294.376C247.977 294.133 247.769 293.968 247.457 293.882C247.162 293.778 246.694 293.726 246.052 293.726C246.018 293.726 246 293.674 246 293.57C246 293.466 246.018 293.414 246.052 293.414L247.431 293.44C248.229 293.474 248.844 293.492 249.278 293.492C249.832 293.492 250.509 293.474 251.306 293.44L252.555 293.414C252.607 293.414 252.633 293.466 252.633 293.57C252.633 293.674 252.607 293.726 252.555 293.726C251.878 293.726 251.384 293.778 251.072 293.882C250.777 293.968 250.578 294.133 250.474 294.376C250.37 294.619 250.318 295 250.318 295.52V307.979H249.72L261.268 293.284ZM265.73 309.669C265.678 309.669 265.652 309.617 265.652 309.513C265.652 309.409 265.678 309.357 265.73 309.357C266.355 309.357 266.805 309.314 267.083 309.227C267.378 309.14 267.577 308.976 267.681 308.733C267.785 308.473 267.837 308.083 267.837 307.563V295.52C267.837 295 267.785 294.619 267.681 294.376C267.577 294.133 267.378 293.968 267.083 293.882C266.805 293.778 266.355 293.726 265.73 293.726C265.678 293.726 265.652 293.674 265.652 293.57C265.652 293.466 265.678 293.414 265.73 293.414H276.342C276.516 293.414 276.602 293.492 276.602 293.648L276.654 296.925C276.654 296.977 276.602 297.011 276.498 297.029C276.412 297.029 276.36 297.003 276.342 296.951C276.221 295.997 275.883 295.269 275.328 294.766C274.773 294.263 274.045 294.012 273.143 294.012H271.817C271.054 294.012 270.542 294.124 270.282 294.35C270.022 294.575 269.892 295 269.892 295.624V307.459C269.892 308.083 270.005 308.508 270.23 308.733C270.473 308.958 270.95 309.071 271.661 309.071H273.377C274.348 309.071 275.154 308.785 275.796 308.213C276.455 307.623 276.906 306.791 277.148 305.716C277.148 305.681 277.183 305.664 277.253 305.664C277.305 305.664 277.348 305.681 277.383 305.716C277.435 305.733 277.461 305.751 277.461 305.768C277.287 307.016 277.2 308.187 277.2 309.279C277.2 309.418 277.174 309.522 277.122 309.591C277.07 309.643 276.966 309.669 276.81 309.669H265.73ZM275.354 303.687C275.354 302.942 275.137 302.395 274.704 302.049C274.287 301.684 273.62 301.502 272.701 301.502H268.904V300.904H272.753C273.637 300.904 274.287 300.757 274.704 300.462C275.12 300.15 275.328 299.673 275.328 299.032C275.328 298.997 275.371 298.98 275.458 298.98C275.562 298.98 275.614 298.997 275.614 299.032L275.588 301.216L275.614 302.387C275.649 302.942 275.666 303.375 275.666 303.687C275.666 303.722 275.614 303.739 275.51 303.739C275.406 303.739 275.354 303.722 275.354 303.687ZM169.815 324.231C169.832 324.179 169.893 324.153 169.997 324.153C170.118 324.136 170.188 324.162 170.205 324.231L177.254 340.669H174.991L169.087 326.806L170.023 325.48L163.807 340.669H163.079L169.815 324.231ZM161.648 344.753C161.648 343.903 161.622 343.201 161.57 342.646C161.535 342.108 161.492 341.658 161.44 341.294C161.388 340.964 161.362 340.643 161.362 340.331C161.362 340.192 161.379 340.114 161.414 340.097C161.449 340.062 161.527 340.045 161.648 340.045H178.346C178.502 340.045 178.589 340.062 178.606 340.097C178.641 340.114 178.658 340.192 178.658 340.331C178.658 340.435 178.641 340.678 178.606 341.059C178.467 342.221 178.398 343.452 178.398 344.753C178.398 344.839 178.346 344.883 178.242 344.883C178.155 344.883 178.112 344.839 178.112 344.753C178.112 343.366 177.722 342.334 176.942 341.658C176.161 340.999 174.956 340.669 173.326 340.669H166.044C164.743 340.669 163.729 340.99 163.001 341.632C162.29 342.291 161.934 343.331 161.934 344.753C161.934 344.839 161.882 344.883 161.778 344.883C161.691 344.883 161.648 344.839 161.648 344.753ZM190.214 326.728C190.37 326.382 190.448 326.095 190.448 325.87C190.448 325.107 189.789 324.726 188.471 324.726C188.419 324.726 188.393 324.674 188.393 324.57C188.393 324.466 188.419 324.414 188.471 324.414L189.564 324.44C190.188 324.474 190.743 324.492 191.228 324.492C191.54 324.492 191.922 324.474 192.373 324.44L193.361 324.414C193.413 324.414 193.439 324.466 193.439 324.57C193.439 324.674 193.413 324.726 193.361 324.726C192.893 324.726 192.433 324.908 191.983 325.272C191.549 325.636 191.176 326.147 190.864 326.806L186.156 336.976C185.723 337.912 185.402 338.658 185.194 339.213C184.934 339.854 184.743 340.262 184.622 340.435C184.501 340.591 184.301 340.669 184.024 340.669H179.758C179.724 340.669 179.706 340.617 179.706 340.513C179.706 340.409 179.724 340.357 179.758 340.357C181.024 340.357 182.16 340.062 183.165 339.473C184.188 338.866 184.969 337.973 185.506 336.794L190.214 326.728ZM179.784 326.572C179.403 325.861 179.056 325.376 178.744 325.116C178.449 324.856 178.05 324.726 177.547 324.726C177.513 324.726 177.495 324.674 177.495 324.57C177.495 324.466 177.513 324.414 177.547 324.414L178.484 324.44C179.004 324.474 179.533 324.492 180.07 324.492C180.885 324.492 181.674 324.474 182.437 324.44C182.697 324.422 183.018 324.414 183.4 324.414C183.434 324.414 183.452 324.466 183.452 324.57C183.452 324.674 183.434 324.726 183.4 324.726C182.307 324.726 181.761 324.994 181.761 325.532C181.761 325.757 181.848 326.017 182.021 326.312L186.781 335.077L185.636 337.314L179.784 326.572ZM193.601 340.669C193.566 340.669 193.549 340.617 193.549 340.513C193.549 340.409 193.566 340.357 193.601 340.357C194.242 340.357 194.71 340.314 195.005 340.227C195.317 340.14 195.525 339.976 195.629 339.733C195.751 339.473 195.811 339.083 195.811 338.563V326.52C195.811 326 195.751 325.619 195.629 325.376C195.525 325.133 195.317 324.968 195.005 324.882C194.71 324.778 194.242 324.726 193.601 324.726C193.566 324.726 193.549 324.674 193.549 324.57C193.549 324.466 193.566 324.414 193.601 324.414L194.953 324.44C195.716 324.474 196.323 324.492 196.774 324.492C197.242 324.492 197.857 324.474 198.62 324.44L199.869 324.414C199.921 324.414 199.947 324.466 199.947 324.57C199.947 324.674 199.921 324.726 199.869 324.726C199.279 324.726 198.846 324.778 198.568 324.882C198.291 324.968 198.1 325.133 197.996 325.376C197.909 325.619 197.866 326 197.866 326.52V338.511C197.866 339.1 197.892 339.49 197.944 339.681C198.014 339.872 198.152 339.993 198.36 340.045C198.586 340.097 199.028 340.123 199.687 340.123H203.302C203.978 340.123 204.438 340.097 204.681 340.045C204.923 339.976 205.071 339.846 205.123 339.655C205.192 339.447 205.227 339.065 205.227 338.511V326.52C205.227 326 205.175 325.619 205.071 325.376C204.984 325.133 204.802 324.968 204.524 324.882C204.247 324.778 203.814 324.726 203.224 324.726C203.172 324.726 203.146 324.674 203.146 324.57C203.146 324.466 203.172 324.414 203.224 324.414C204.837 324.466 205.851 324.492 206.267 324.492C206.718 324.492 207.307 324.474 208.036 324.44L209.336 324.414C209.371 324.414 209.388 324.466 209.388 324.57C209.388 324.674 209.371 324.726 209.336 324.726C208.729 324.726 208.287 324.778 208.01 324.882C207.732 324.968 207.542 325.133 207.438 325.376C207.333 325.619 207.281 326 207.281 326.52V338.537C207.281 339.057 207.333 339.43 207.438 339.655C207.559 339.863 207.741 339.993 207.984 340.045C208.244 340.097 208.695 340.123 209.336 340.123H212.717C213.411 340.123 213.879 340.097 214.122 340.045C214.365 339.993 214.512 339.872 214.564 339.681C214.633 339.473 214.668 339.083 214.668 338.511V326.52C214.668 326 214.616 325.619 214.512 325.376C214.425 325.133 214.235 324.968 213.94 324.882C213.662 324.778 213.229 324.726 212.639 324.726C212.605 324.726 212.587 324.674 212.587 324.57C212.587 324.466 212.605 324.414 212.639 324.414L213.914 324.44C214.677 324.474 215.292 324.492 215.76 324.492C216.246 324.492 216.853 324.474 217.581 324.44L218.908 324.414C218.96 324.414 218.986 324.466 218.986 324.57C218.986 324.674 218.96 324.726 218.908 324.726C218.266 324.726 217.789 324.778 217.477 324.882C217.182 324.968 216.974 325.133 216.853 325.376C216.749 325.619 216.697 326 216.697 326.52V338.563C216.697 339.083 216.749 339.464 216.853 339.707C216.974 339.95 217.182 340.123 217.477 340.227C217.789 340.314 218.266 340.357 218.908 340.357C218.96 340.357 218.986 340.409 218.986 340.513C218.986 340.617 218.96 340.669 218.908 340.669H193.601ZM235.398 324.284C235.45 324.214 235.563 324.179 235.736 324.179C235.84 324.179 235.935 324.197 236.022 324.231C236.109 324.266 236.152 324.31 236.152 324.362V338.563C236.152 339.083 236.204 339.473 236.308 339.733C236.43 339.976 236.638 340.14 236.932 340.227C237.227 340.314 237.695 340.357 238.337 340.357C238.389 340.357 238.415 340.409 238.415 340.513C238.415 340.617 238.389 340.669 238.337 340.669C237.782 340.669 237.34 340.661 237.01 340.643L235.138 340.617L233.083 340.643C232.788 340.661 232.381 340.669 231.861 340.669C231.809 340.669 231.783 340.617 231.783 340.513C231.783 340.409 231.809 340.357 231.861 340.357C232.537 340.357 233.022 340.314 233.317 340.227C233.629 340.14 233.837 339.976 233.941 339.733C234.045 339.49 234.097 339.1 234.097 338.563V326.234H234.696L223.147 340.929C223.095 340.981 222.983 341.007 222.809 341.007C222.532 341.007 222.393 340.947 222.393 340.825V326.52C222.393 326 222.333 325.619 222.211 325.376C222.107 325.133 221.899 324.968 221.587 324.882C221.292 324.778 220.824 324.726 220.182 324.726C220.148 324.726 220.13 324.674 220.13 324.57C220.13 324.466 220.148 324.414 220.182 324.414L221.561 324.44C222.359 324.474 222.974 324.492 223.408 324.492C223.962 324.492 224.639 324.474 225.436 324.44L226.685 324.414C226.737 324.414 226.763 324.466 226.763 324.57C226.763 324.674 226.737 324.726 226.685 324.726C226.008 324.726 225.514 324.778 225.202 324.882C224.907 324.968 224.708 325.133 224.604 325.376C224.5 325.619 224.448 326 224.448 326.52V338.979H223.85L235.398 324.284Z" fill="black"/>
<path d="M34.6457 217.323H363.78" stroke="black" stroke-width="2.94488"/>
</svg>
