<svg width="32" height="32" viewBox="0 0 32 32" fill="none" xmlns="http://www.w3.org/2000/svg">
<circle cx="16" cy="16" r="16" fill="#647A6D"/>
<g clip-path="url(#clip0_12_59)">
<path d="M19.75 26C20.4404 26 21 25.4404 21 24.75C21 24.0596 20.4404 23.5 19.75 23.5C19.0596 23.5 18.5 24.0596 18.5 24.75C18.5 25.4404 19.0596 26 19.75 26Z" fill="#FDFDFD"/>
<path d="M14.75 26C15.4404 26 16 25.4404 16 24.75C16 24.0596 15.4404 23.5 14.75 23.5C14.0596 23.5 13.5 24.0596 13.5 24.75C13.5 25.4404 14.0596 26 14.75 26Z" fill="#FDFDFD"/>
<path d="M25.7644 12.7687C25.5287 12.4428 25.1516 12.25 24.75 12.25H11.9303L10.9794 7.02656C10.8719 6.43219 10.3544 6 9.75 6H7.25C6.55906 6 6 6.55906 6 7.25C6 7.94094 6.55906 8.5 7.25 8.5H8.70625L11.0206 21.2234C11.1281 21.8178 11.6456 22.25 12.25 22.25H22.25C22.7884 22.25 23.2656 21.9056 23.4353 21.3956L25.9353 13.8956C26.0634 13.5147 25.9987 13.0947 25.7644 12.7687Z" fill="#FDFDFD"/>
</g>
<defs>
<clipPath id="clip0_12_59">
<rect width="20" height="20" fill="white" transform="translate(6 6)"/>
</clipPath>
</defs>
</svg>
