<svg width="32" height="32" viewBox="0 0 32 32" fill="none" xmlns="http://www.w3.org/2000/svg">
<circle cx="16" cy="16" r="16" fill="#647A6D"/>
<g clip-path="url(#clip0_12_54)">
<path d="M9.95479 14.259L11.7535 12.4601C11.9992 11.584 11.7783 10.6046 11.0891 9.91574C9.99342 8.81984 8.56307 8.64934 7.30569 7.81051C6.85217 7.50809 6.71557 7.33789 6.71557 7.33789C5.59959 8.9 5.75791 11.9421 7.41041 13.5946C8.0994 14.2835 9.07881 14.5048 9.95479 14.259Z" fill="#FDFDFD"/>
<path d="M10.9617 14.1335C10.7548 14.3407 10.6769 14.8356 10.8336 15.4096C10.9792 15.9443 11.4294 16.5891 12.0698 17.2857C12.4841 16.8208 12.8814 16.3871 13.24 16.0139C13.7614 15.4154 14.244 14.9096 14.6908 14.4939C14.0285 13.8967 13.4157 13.4784 12.9044 13.3391C12.3302 13.1824 11.8351 13.2603 11.6282 13.4672L10.9617 14.1335Z" fill="#FDFDFD"/>
<path d="M18.0817 18.1258C17.6889 18.5377 17.222 18.9791 16.6786 19.4527C16.3395 19.7786 15.9498 20.1368 15.5327 20.5103C17.5463 22.27 19.8827 24.158 20.4455 24.6043C21.2804 25.2829 22.0682 25.4863 22.5246 25.03C22.981 24.5738 22.7772 23.7861 22.0988 22.9508C21.6589 22.3964 19.819 20.1194 18.0817 18.1258Z" fill="#FDFDFD"/>
<path d="M19.0167 15.6953L16.9969 13.676C16.1116 13.9173 14.9159 15.0145 13.6885 16.4244C11.7416 18.4476 8.61421 22.3131 8.02898 23.0512C7.36714 23.8656 7.16859 24.6339 7.61359 25.0788C8.0589 25.5241 8.82706 25.3253 9.64159 24.6638C10.3795 24.0782 14.245 20.9508 16.2682 19.0042C17.6781 17.7767 18.7753 16.5808 19.0167 15.6953Z" fill="#FDFDFD"/>
<path d="M20.5 14.2581L18.4241 12.1824L17.386 13.2204L19.4619 15.2963L20.5 14.2581Z" fill="#FDFDFD"/>
<path d="M25.8244 9.76156L22.9204 6.85809C22.686 6.62356 22.306 6.62356 22.0718 6.85809L20.4653 8.46426L24.2178 12.2168L25.8243 10.6104C26.0586 10.3761 26.0586 9.99613 25.8244 9.76156Z" fill="#FDFDFD"/>
<path d="M19.6615 9.26797C18.4039 10.5257 19.422 11.1844 18.8232 11.7831L20.899 13.8591C21.4979 13.2603 22.1566 14.2783 23.414 13.0209L23.7935 12.6413L20.0409 8.88867L19.6615 9.26797Z" fill="#FDFDFD"/>
</g>
<defs>
<clipPath id="clip0_12_54">
<rect width="20" height="20" fill="white" transform="translate(6 6)"/>
</clipPath>
</defs>
</svg>
