<svg width="285" height="285" viewBox="0 0 285 285" fill="none" xmlns="http://www.w3.org/2000/svg">
<rect width="285" height="285" rx="32" fill="#647A6D"/>
<circle cx="143" cy="142" r="127" fill="#BFC1C0"/>
<path d="M112.772 58.8457C112.79 58.7914 112.854 58.7643 112.962 58.7643C113.089 58.7462 113.161 58.7733 113.18 58.8457L120.535 76H118.174L112.012 61.5329L112.99 60.1486L106.502 76H105.742L112.772 58.8457ZM104.25 80.2614C104.25 79.3748 104.222 78.6419 104.168 78.0629C104.132 77.5019 104.087 77.0314 104.032 76.6514C103.978 76.3076 103.951 75.9729 103.951 75.6471C103.951 75.5024 103.969 75.421 104.005 75.4029C104.041 75.3667 104.123 75.3486 104.25 75.3486H121.675C121.838 75.3486 121.929 75.3667 121.947 75.4029C121.983 75.421 122.001 75.5024 122.001 75.6471C122.001 75.7557 121.983 76.009 121.947 76.4071C121.802 77.6195 121.73 78.9043 121.73 80.2614C121.73 80.3519 121.675 80.3971 121.567 80.3971C121.476 80.3971 121.431 80.3519 121.431 80.2614C121.431 78.8138 121.024 77.7371 120.21 77.0314C119.395 76.3438 118.138 76 116.437 76H108.837C107.48 76 106.421 76.3348 105.661 77.0043C104.919 77.6919 104.548 78.7776 104.548 80.2614C104.548 80.3519 104.494 80.3971 104.385 80.3971C104.295 80.3971 104.25 80.3519 104.25 80.2614ZM134.06 61.4514C134.223 61.0895 134.305 60.791 134.305 60.5557C134.305 59.7595 133.617 59.3614 132.242 59.3614C132.188 59.3614 132.16 59.3071 132.16 59.1986C132.16 59.09 132.188 59.0357 132.242 59.0357L133.382 59.0629C134.033 59.099 134.612 59.1171 135.119 59.1171C135.445 59.1171 135.843 59.099 136.313 59.0629L137.345 59.0357C137.399 59.0357 137.426 59.09 137.426 59.1986C137.426 59.3071 137.399 59.3614 137.345 59.3614C136.856 59.3614 136.377 59.5514 135.906 59.9314C135.454 60.3114 135.065 60.8452 134.739 61.5329L129.826 72.1457C129.374 73.1229 129.039 73.901 128.822 74.48C128.55 75.1495 128.351 75.5748 128.225 75.7557C128.098 75.9186 127.89 76 127.6 76H123.149C123.113 76 123.095 75.9457 123.095 75.8371C123.095 75.7286 123.113 75.6743 123.149 75.6743C124.47 75.6743 125.655 75.3667 126.705 74.7514C127.772 74.1181 128.587 73.1862 129.148 71.9557L134.06 61.4514ZM123.176 61.2886C122.778 60.5467 122.416 60.04 122.09 59.7686C121.783 59.4971 121.367 59.3614 120.842 59.3614C120.806 59.3614 120.788 59.3071 120.788 59.1986C120.788 59.09 120.806 59.0357 120.842 59.0357L121.819 59.0629C122.362 59.099 122.914 59.1171 123.475 59.1171C124.325 59.1171 125.149 59.099 125.945 59.0629C126.216 59.0448 126.551 59.0357 126.949 59.0357C126.985 59.0357 127.003 59.09 127.003 59.1986C127.003 59.3071 126.985 59.3614 126.949 59.3614C125.809 59.3614 125.239 59.6419 125.239 60.2029C125.239 60.4381 125.33 60.7095 125.51 61.0171L130.478 70.1643L129.283 72.4986L123.176 61.2886ZM137.595 76C137.559 76 137.54 75.9457 137.54 75.8371C137.54 75.7286 137.559 75.6743 137.595 75.6743C138.264 75.6743 138.753 75.629 139.06 75.5386C139.386 75.4481 139.603 75.2762 139.712 75.0229C139.839 74.7514 139.902 74.3443 139.902 73.8014V61.2343C139.902 60.6914 139.839 60.2933 139.712 60.04C139.603 59.7867 139.386 59.6148 139.06 59.5243C138.753 59.4157 138.264 59.3614 137.595 59.3614C137.559 59.3614 137.54 59.3071 137.54 59.1986C137.54 59.09 137.559 59.0357 137.595 59.0357L139.006 59.0629C139.802 59.099 140.436 59.1171 140.906 59.1171C141.395 59.1171 142.037 59.099 142.833 59.0629L144.136 59.0357C144.19 59.0357 144.218 59.09 144.218 59.1986C144.218 59.3071 144.19 59.3614 144.136 59.3614C143.521 59.3614 143.069 59.4157 142.779 59.5243C142.49 59.6148 142.29 59.7867 142.182 60.04C142.091 60.2933 142.046 60.6914 142.046 61.2343V73.7471C142.046 74.3624 142.073 74.7695 142.128 74.9686C142.2 75.1676 142.345 75.2943 142.562 75.3486C142.797 75.4029 143.259 75.43 143.946 75.43H147.719C148.425 75.43 148.904 75.4029 149.158 75.3486C149.411 75.2762 149.565 75.1405 149.619 74.9414C149.691 74.7243 149.728 74.3262 149.728 73.7471V61.2343C149.728 60.6914 149.673 60.2933 149.565 60.04C149.474 59.7867 149.284 59.6148 148.995 59.5243C148.705 59.4157 148.253 59.3614 147.638 59.3614C147.583 59.3614 147.556 59.3071 147.556 59.1986C147.556 59.09 147.583 59.0357 147.638 59.0357C149.32 59.09 150.379 59.1171 150.813 59.1171C151.284 59.1171 151.899 59.099 152.659 59.0629L154.016 59.0357C154.052 59.0357 154.07 59.09 154.07 59.1986C154.07 59.3071 154.052 59.3614 154.016 59.3614C153.383 59.3614 152.921 59.4157 152.632 59.5243C152.342 59.6148 152.143 59.7867 152.035 60.04C151.926 60.2933 151.872 60.6914 151.872 61.2343V73.7743C151.872 74.3171 151.926 74.7062 152.035 74.9414C152.161 75.1586 152.351 75.2943 152.605 75.3486C152.876 75.4029 153.347 75.43 154.016 75.43H157.545C158.269 75.43 158.757 75.4029 159.01 75.3486C159.264 75.2943 159.418 75.1676 159.472 74.9686C159.544 74.7514 159.58 74.3443 159.58 73.7471V61.2343C159.58 60.6914 159.526 60.2933 159.418 60.04C159.327 59.7867 159.128 59.6148 158.82 59.5243C158.531 59.4157 158.079 59.3614 157.463 59.3614C157.427 59.3614 157.409 59.3071 157.409 59.1986C157.409 59.09 157.427 59.0357 157.463 59.0357L158.793 59.0629C159.59 59.099 160.232 59.1171 160.72 59.1171C161.227 59.1171 161.86 59.099 162.62 59.0629L164.005 59.0357C164.059 59.0357 164.086 59.09 164.086 59.1986C164.086 59.3071 164.059 59.3614 164.005 59.3614C163.335 59.3614 162.838 59.4157 162.512 59.5243C162.204 59.6148 161.987 59.7867 161.86 60.04C161.752 60.2933 161.698 60.6914 161.698 61.2343V73.8014C161.698 74.3443 161.752 74.7424 161.86 74.9957C161.987 75.249 162.204 75.43 162.512 75.5386C162.838 75.629 163.335 75.6743 164.005 75.6743C164.059 75.6743 164.086 75.7286 164.086 75.8371C164.086 75.9457 164.059 76 164.005 76H137.595ZM169.814 68.3186H177.197L177.387 68.9157H169.488L169.814 68.3186ZM183.521 75.6743C183.611 75.6743 183.657 75.7286 183.657 75.8371C183.657 75.9457 183.611 76 183.521 76C183.177 76 182.643 75.9819 181.919 75.9457C181.159 75.9095 180.617 75.8914 180.291 75.8914C179.875 75.8914 179.359 75.9095 178.744 75.9457C178.128 75.9819 177.667 76 177.359 76C177.287 76 177.251 75.9457 177.251 75.8371C177.251 75.7286 177.287 75.6743 177.359 75.6743C177.975 75.6743 178.418 75.62 178.689 75.5114C178.961 75.3848 179.097 75.1676 179.097 74.86C179.097 74.5524 178.961 74.1271 178.689 73.5843L172.854 61.4514L173.722 60.1486L168.429 72.4171C168.176 73.0324 168.049 73.539 168.049 73.9371C168.049 74.5162 168.276 74.9505 168.728 75.24C169.18 75.5295 169.832 75.6743 170.682 75.6743C170.773 75.6743 170.818 75.7286 170.818 75.8371C170.818 75.9457 170.773 76 170.682 76C170.357 76 169.886 75.9819 169.271 75.9457C168.583 75.9095 167.986 75.8914 167.479 75.8914C167.009 75.8914 166.448 75.9095 165.797 75.9457C165.218 75.9819 164.747 76 164.385 76C164.313 76 164.277 75.9457 164.277 75.8371C164.277 75.7286 164.313 75.6743 164.385 75.6743C164.892 75.6743 165.317 75.5748 165.661 75.3757C166.023 75.1767 166.367 74.8329 166.692 74.3443C167.018 73.8557 167.389 73.1319 167.805 72.1729L173.587 58.8457C173.605 58.7914 173.668 58.7643 173.777 58.7643C173.885 58.7462 173.948 58.7733 173.967 58.8457L180.481 72.2814C181.114 73.6024 181.639 74.4981 182.055 74.9686C182.489 75.439 182.978 75.6743 183.521 75.6743ZM97.269 99.4186C98.3729 99.4186 99.35 99.6176 100.2 100.016C101.051 100.414 101.702 100.966 102.155 101.671C102.625 102.359 102.86 103.146 102.86 104.033C102.86 104.992 102.607 105.86 102.1 106.639C101.612 107.399 100.933 108.005 100.065 108.457C99.2143 108.891 98.2552 109.109 97.1876 109.109C96.6086 109.109 95.9752 109.081 95.2876 109.027C95.0343 109.009 94.7357 108.991 94.3919 108.973C94.0481 108.955 93.659 108.946 93.2248 108.946L91.3248 108.973C90.981 108.991 90.5195 109 89.9405 109C89.8862 109 89.859 108.946 89.859 108.837C89.859 108.729 89.8862 108.674 89.9405 108.674C90.5738 108.674 91.0443 108.629 91.3519 108.539C91.6595 108.43 91.8676 108.249 91.9762 107.996C92.1029 107.742 92.1662 107.344 92.1662 106.801V94.2343C92.1662 93.6914 92.1029 93.2933 91.9762 93.04C91.8676 92.7867 91.6595 92.6148 91.3519 92.5243C91.0624 92.4157 90.601 92.3614 89.9676 92.3614C89.9314 92.3614 89.9133 92.3071 89.9133 92.1986C89.9133 92.09 89.9314 92.0357 89.9676 92.0357L91.3248 92.0629C92.121 92.099 92.7543 92.1171 93.2248 92.1171C93.7314 92.1171 94.2652 92.09 94.8262 92.0357C95.0252 92.0176 95.2605 91.9995 95.5319 91.9814C95.8214 91.9633 96.129 91.9543 96.4548 91.9543C98.011 91.9543 99.1871 92.28 99.9833 92.9314C100.798 93.5648 101.205 94.4243 101.205 95.51C101.205 96.5233 100.825 97.41 100.065 98.17C99.3048 98.93 98.2733 99.4638 96.9705 99.7714L97.269 99.4186ZM95.939 92.4157C95.5048 92.4157 95.17 92.461 94.9348 92.5514C94.7176 92.6419 94.5548 92.8229 94.4462 93.0943C94.3557 93.3476 94.3105 93.7457 94.3105 94.2886V99.6086L93.4148 99.3914C94.1929 99.4457 94.8895 99.4729 95.5048 99.4729C96.699 99.4729 97.5948 99.129 98.1919 98.4414C98.789 97.7538 99.0876 96.849 99.0876 95.7271C99.0876 94.6957 98.8252 93.8905 98.3005 93.3114C97.7938 92.7143 97.0067 92.4157 95.939 92.4157ZM96.7533 108.566C98.0381 108.566 98.9881 108.231 99.6033 107.561C100.237 106.892 100.553 105.933 100.553 104.684C100.553 103.309 100.173 102.205 99.4133 101.373C98.6533 100.54 97.5767 100.115 96.1833 100.097C95.2786 100.061 94.3829 100.106 93.4962 100.233L94.3105 99.9343V106.801C94.3105 107.254 94.3738 107.607 94.5005 107.86C94.6271 108.095 94.8624 108.276 95.2062 108.403C95.55 108.511 96.0657 108.566 96.7533 108.566ZM109.112 101.319H116.495L116.685 101.916H108.786L109.112 101.319ZM122.819 108.674C122.909 108.674 122.955 108.729 122.955 108.837C122.955 108.946 122.909 109 122.819 109C122.475 109 121.941 108.982 121.218 108.946C120.458 108.91 119.915 108.891 119.589 108.891C119.173 108.891 118.657 108.91 118.042 108.946C117.427 108.982 116.965 109 116.658 109C116.585 109 116.549 108.946 116.549 108.837C116.549 108.729 116.585 108.674 116.658 108.674C117.273 108.674 117.716 108.62 117.988 108.511C118.259 108.385 118.395 108.168 118.395 107.86C118.395 107.552 118.259 107.127 117.988 106.584L112.152 94.4514L113.02 93.1486L107.728 105.417C107.474 106.032 107.348 106.539 107.348 106.937C107.348 107.516 107.574 107.95 108.026 108.24C108.478 108.53 109.13 108.674 109.98 108.674C110.071 108.674 110.116 108.729 110.116 108.837C110.116 108.946 110.071 109 109.98 109C109.655 109 109.184 108.982 108.569 108.946C107.881 108.91 107.284 108.891 106.778 108.891C106.307 108.891 105.746 108.91 105.095 108.946C104.516 108.982 104.045 109 103.683 109C103.611 109 103.575 108.946 103.575 108.837C103.575 108.729 103.611 108.674 103.683 108.674C104.19 108.674 104.615 108.575 104.959 108.376C105.321 108.177 105.665 107.833 105.99 107.344C106.316 106.856 106.687 106.132 107.103 105.173L112.885 91.8457C112.903 91.7914 112.966 91.7643 113.075 91.7643C113.183 91.7462 113.247 91.7733 113.265 91.8457L119.779 105.281C120.412 106.602 120.937 107.498 121.353 107.969C121.788 108.439 122.276 108.674 122.819 108.674ZM123.228 109C123.191 109 123.173 108.946 123.173 108.837C123.173 108.729 123.191 108.674 123.228 108.674C123.897 108.674 124.386 108.629 124.693 108.539C125.019 108.448 125.236 108.276 125.345 108.023C125.471 107.751 125.535 107.344 125.535 106.801V94.2343C125.535 93.6914 125.471 93.2933 125.345 93.04C125.236 92.7867 125.019 92.6148 124.693 92.5243C124.386 92.4157 123.897 92.3614 123.228 92.3614C123.191 92.3614 123.173 92.3071 123.173 92.1986C123.173 92.09 123.191 92.0357 123.228 92.0357L124.639 92.0629C125.435 92.099 126.069 92.1171 126.539 92.1171C127.028 92.1171 127.67 92.099 128.466 92.0629L129.769 92.0357C129.823 92.0357 129.85 92.09 129.85 92.1986C129.85 92.3071 129.823 92.3614 129.769 92.3614C129.154 92.3614 128.701 92.4157 128.412 92.5243C128.122 92.6148 127.923 92.7867 127.815 93.04C127.724 93.2933 127.679 93.6914 127.679 94.2343V106.747C127.679 107.362 127.706 107.77 127.76 107.969C127.833 108.168 127.978 108.294 128.195 108.349C128.43 108.403 128.891 108.43 129.579 108.43H133.352C134.058 108.43 134.537 108.403 134.79 108.349C135.044 108.276 135.198 108.14 135.252 107.941C135.324 107.724 135.36 107.326 135.36 106.747V94.2343C135.36 93.6914 135.306 93.2933 135.198 93.04C135.107 92.7867 134.917 92.6148 134.628 92.5243C134.338 92.4157 133.886 92.3614 133.27 92.3614C133.216 92.3614 133.189 92.3071 133.189 92.1986C133.189 92.09 133.216 92.0357 133.27 92.0357C134.953 92.09 136.012 92.1171 136.446 92.1171C136.917 92.1171 137.532 92.099 138.292 92.0629L139.649 92.0357C139.685 92.0357 139.703 92.09 139.703 92.1986C139.703 92.3071 139.685 92.3614 139.649 92.3614C139.016 92.3614 138.554 92.4157 138.265 92.5243C137.975 92.6148 137.776 92.7867 137.668 93.04C137.559 93.2933 137.505 93.6914 137.505 94.2343V106.774C137.505 107.317 137.559 107.706 137.668 107.941C137.794 108.159 137.984 108.294 138.238 108.349C138.509 108.403 138.979 108.43 139.649 108.43H143.178C143.901 108.43 144.39 108.403 144.643 108.349C144.897 108.294 145.05 108.168 145.105 107.969C145.177 107.751 145.213 107.344 145.213 106.747V94.2343C145.213 93.6914 145.159 93.2933 145.05 93.04C144.96 92.7867 144.761 92.6148 144.453 92.5243C144.164 92.4157 143.711 92.3614 143.096 92.3614C143.06 92.3614 143.042 92.3071 143.042 92.1986C143.042 92.09 143.06 92.0357 143.096 92.0357L144.426 92.0629C145.222 92.099 145.865 92.1171 146.353 92.1171C146.86 92.1171 147.493 92.099 148.253 92.0629L149.638 92.0357C149.692 92.0357 149.719 92.09 149.719 92.1986C149.719 92.3071 149.692 92.3614 149.638 92.3614C148.968 92.3614 148.47 92.4157 148.145 92.5243C147.837 92.6148 147.62 92.7867 147.493 93.04C147.385 93.2933 147.33 93.6914 147.33 94.2343V106.801C147.33 107.344 147.385 107.742 147.493 107.996C147.62 108.249 147.837 108.43 148.145 108.539C148.47 108.629 148.968 108.674 149.638 108.674C149.692 108.674 149.719 108.729 149.719 108.837C149.719 108.946 149.692 109 149.638 109H123.228ZM151.212 109C151.158 109 151.131 108.946 151.131 108.837C151.131 108.729 151.158 108.674 151.212 108.674C151.864 108.674 152.334 108.629 152.624 108.539C152.931 108.448 153.139 108.276 153.248 108.023C153.357 107.751 153.411 107.344 153.411 106.801V94.2343C153.411 93.6914 153.357 93.2933 153.248 93.04C153.139 92.7867 152.931 92.6148 152.624 92.5243C152.334 92.4157 151.864 92.3614 151.212 92.3614C151.158 92.3614 151.131 92.3071 151.131 92.1986C151.131 92.09 151.158 92.0357 151.212 92.0357H162.287C162.468 92.0357 162.558 92.1171 162.558 92.28L162.612 95.7C162.612 95.7543 162.558 95.7905 162.449 95.8086C162.359 95.8086 162.305 95.7814 162.287 95.7271C162.16 94.7319 161.807 93.9719 161.228 93.4471C160.649 92.9224 159.889 92.66 158.948 92.66H157.564C156.768 92.66 156.234 92.7776 155.962 93.0129C155.691 93.2481 155.555 93.6914 155.555 94.3429V106.693C155.555 107.344 155.673 107.788 155.908 108.023C156.161 108.258 156.659 108.376 157.401 108.376H159.192C160.206 108.376 161.047 108.077 161.717 107.48C162.404 106.865 162.875 105.996 163.128 104.874C163.128 104.838 163.164 104.82 163.237 104.82C163.291 104.82 163.336 104.838 163.372 104.874C163.427 104.892 163.454 104.91 163.454 104.929C163.273 106.231 163.182 107.453 163.182 108.593C163.182 108.738 163.155 108.846 163.101 108.919C163.047 108.973 162.938 109 162.775 109H151.212ZM161.255 102.757C161.255 101.979 161.029 101.409 160.577 101.047C160.142 100.667 159.446 100.477 158.487 100.477H154.524V99.8529H158.541C159.464 99.8529 160.142 99.699 160.577 99.3914C161.011 99.0657 161.228 98.5681 161.228 97.8986C161.228 97.8624 161.273 97.8443 161.364 97.8443C161.472 97.8443 161.527 97.8624 161.527 97.8986L161.499 100.179L161.527 101.4C161.563 101.979 161.581 102.431 161.581 102.757C161.581 102.793 161.527 102.811 161.418 102.811C161.309 102.811 161.255 102.793 161.255 102.757ZM165.299 109C165.245 109 165.218 108.946 165.218 108.837C165.218 108.729 165.245 108.674 165.299 108.674C165.969 108.674 166.457 108.629 166.765 108.539C167.073 108.448 167.281 108.276 167.389 108.023C167.516 107.751 167.579 107.344 167.579 106.801V94.2343C167.579 93.6914 167.525 93.2933 167.416 93.04C167.308 92.7867 167.1 92.6148 166.792 92.5243C166.503 92.4157 166.032 92.3614 165.381 92.3614C165.326 92.3614 165.299 92.3071 165.299 92.1986C165.299 92.09 165.326 92.0357 165.381 92.0357H176.944C177.124 92.0357 177.215 92.1171 177.215 92.28L177.269 96.1343C177.269 96.1886 177.215 96.2248 177.106 96.2429C177.016 96.2429 176.962 96.2157 176.944 96.1614C176.817 95.0214 176.446 94.1529 175.831 93.5557C175.234 92.9586 174.446 92.66 173.469 92.66H171.732C170.954 92.66 170.42 92.7776 170.131 93.0129C169.859 93.23 169.724 93.6462 169.724 94.2614V106.693C169.724 107.272 169.796 107.697 169.941 107.969C170.104 108.222 170.402 108.403 170.836 108.511C171.271 108.62 171.958 108.674 172.899 108.674C172.935 108.674 172.954 108.729 172.954 108.837C172.954 108.946 172.935 109 172.899 109C172.157 109 171.578 108.991 171.162 108.973L168.611 108.946L166.711 108.973C166.367 108.991 165.896 109 165.299 109ZM187.256 109.326C185.573 109.326 184.071 108.937 182.75 108.159C181.447 107.362 180.434 106.295 179.71 104.956C179.004 103.599 178.652 102.124 178.652 100.531C178.652 98.6676 179.122 97.0752 180.063 95.7543C181.004 94.4152 182.207 93.411 183.673 92.7414C185.157 92.0719 186.668 91.7371 188.206 91.7371C189.925 91.7371 191.436 92.1443 192.739 92.9586C194.042 93.7548 195.037 94.8133 195.724 96.1343C196.43 97.4552 196.783 98.8576 196.783 100.341C196.783 101.988 196.349 103.499 195.48 104.874C194.612 106.25 193.444 107.335 191.979 108.131C190.531 108.928 188.957 109.326 187.256 109.326ZM188.206 108.729C189.364 108.729 190.404 108.43 191.327 107.833C192.25 107.236 192.974 106.367 193.499 105.227C194.042 104.069 194.313 102.694 194.313 101.101C194.313 99.4186 194.014 97.9167 193.417 96.5957C192.838 95.2748 191.997 94.2433 190.893 93.5014C189.807 92.7595 188.541 92.3886 187.093 92.3886C185.211 92.3886 183.745 93.031 182.696 94.3157C181.646 95.5824 181.122 97.3376 181.122 99.5814C181.122 101.3 181.42 102.857 182.017 104.25C182.614 105.643 183.447 106.738 184.514 107.534C185.6 108.33 186.831 108.729 188.206 108.729ZM112.541 124.846C112.559 124.791 112.622 124.764 112.731 124.764C112.857 124.746 112.93 124.773 112.948 124.846L120.304 142H117.942L111.781 127.533L112.758 126.149L106.271 142H105.511L112.541 124.846ZM104.018 146.261C104.018 145.375 103.991 144.642 103.936 144.063C103.9 143.502 103.855 143.031 103.801 142.651C103.746 142.308 103.719 141.973 103.719 141.647C103.719 141.502 103.737 141.421 103.774 141.403C103.81 141.367 103.891 141.349 104.018 141.349H121.444C121.606 141.349 121.697 141.367 121.715 141.403C121.751 141.421 121.769 141.502 121.769 141.647C121.769 141.756 121.751 142.009 121.715 142.407C121.57 143.62 121.498 144.904 121.498 146.261C121.498 146.352 121.444 146.397 121.335 146.397C121.245 146.397 121.199 146.352 121.199 146.261C121.199 144.814 120.792 143.737 119.978 143.031C119.164 142.344 117.906 142 116.205 142H108.605C107.248 142 106.189 142.335 105.429 143.004C104.687 143.692 104.316 144.778 104.316 146.261C104.316 146.352 104.262 146.397 104.154 146.397C104.063 146.397 104.018 146.352 104.018 146.261ZM131.491 142.326C129.808 142.326 128.306 141.937 126.985 141.159C125.683 140.362 124.669 139.295 123.945 137.956C123.24 136.599 122.887 135.124 122.887 133.531C122.887 131.668 123.357 130.075 124.298 128.754C125.239 127.415 126.443 126.411 127.908 125.741C129.392 125.072 130.903 124.737 132.441 124.737C134.16 124.737 135.671 125.144 136.974 125.959C138.277 126.755 139.272 127.813 139.96 129.134C140.665 130.455 141.018 131.858 141.018 133.341C141.018 134.988 140.584 136.499 139.715 137.874C138.847 139.25 137.68 140.335 136.214 141.131C134.766 141.928 133.192 142.326 131.491 142.326ZM132.441 141.729C133.599 141.729 134.64 141.43 135.563 140.833C136.485 140.236 137.209 139.367 137.734 138.227C138.277 137.069 138.548 135.694 138.548 134.101C138.548 132.419 138.25 130.917 137.653 129.596C137.073 128.275 136.232 127.243 135.128 126.501C134.043 125.76 132.776 125.389 131.328 125.389C129.446 125.389 127.981 126.031 126.931 127.316C125.882 128.582 125.357 130.338 125.357 132.581C125.357 134.3 125.655 135.857 126.253 137.25C126.85 138.643 127.682 139.738 128.75 140.534C129.835 141.33 131.066 141.729 132.441 141.729ZM145.297 125.66L145.975 125.714L145.704 138.906C145.686 139.847 145.858 140.543 146.219 140.996C146.581 141.448 147.169 141.674 147.984 141.674C148.038 141.674 148.065 141.729 148.065 141.837C148.065 141.946 148.038 142 147.984 142C147.495 142 147.115 141.991 146.844 141.973L145.351 141.946L143.858 141.973C143.605 141.991 143.234 142 142.745 142C142.709 142 142.691 141.946 142.691 141.837C142.691 141.729 142.709 141.674 142.745 141.674C144.247 141.674 145.007 140.751 145.025 138.906L145.297 125.66ZM164.025 141.674C164.061 141.674 164.079 141.729 164.079 141.837C164.079 141.946 164.061 142 164.025 142C163.428 142 162.958 141.991 162.614 141.973L160.714 141.946L158.895 141.973C158.588 141.991 158.162 142 157.619 142C157.583 142 157.565 141.946 157.565 141.837C157.565 141.729 157.583 141.674 157.619 141.674C158.235 141.674 158.687 141.629 158.977 141.539C159.266 141.43 159.456 141.249 159.547 140.996C159.637 140.742 159.664 140.344 159.628 139.801L159.085 127.017L160.144 125.497L153.114 141.81C153.078 141.882 153.005 141.919 152.897 141.919C152.788 141.919 152.716 141.882 152.679 141.81L145.595 127.289C145.269 126.619 144.889 126.13 144.455 125.823C144.021 125.515 143.514 125.361 142.935 125.361C142.899 125.361 142.881 125.307 142.881 125.199C142.881 125.09 142.899 125.036 142.935 125.036L144.021 125.063C144.238 125.081 144.519 125.09 144.862 125.09C145.26 125.09 145.586 125.081 145.839 125.063C146.093 125.045 146.292 125.036 146.437 125.036C146.672 125.036 146.862 125.117 147.007 125.28C147.151 125.443 147.378 125.832 147.685 126.447L153.847 138.96L152.842 140.697L159.384 125.714C159.565 125.262 159.836 125.036 160.198 125.036C160.307 125.036 160.451 125.045 160.632 125.063C160.813 125.081 161.049 125.09 161.338 125.09L162.722 125.063C162.939 125.045 163.256 125.036 163.672 125.036C163.709 125.036 163.727 125.09 163.727 125.199C163.727 125.307 163.709 125.361 163.672 125.361C162.768 125.361 162.125 125.506 161.745 125.796C161.365 126.085 161.184 126.592 161.202 127.316L161.772 139.801C161.809 140.362 161.881 140.77 161.989 141.023C162.098 141.276 162.297 141.448 162.587 141.539C162.894 141.629 163.374 141.674 164.025 141.674ZM169.503 134.319H176.885L177.075 134.916H169.177L169.503 134.319ZM183.21 141.674C183.3 141.674 183.345 141.729 183.345 141.837C183.345 141.946 183.3 142 183.21 142C182.866 142 182.332 141.982 181.608 141.946C180.848 141.91 180.305 141.891 179.98 141.891C179.564 141.891 179.048 141.91 178.433 141.946C177.817 141.982 177.356 142 177.048 142C176.976 142 176.94 141.946 176.94 141.837C176.94 141.729 176.976 141.674 177.048 141.674C177.664 141.674 178.107 141.62 178.378 141.511C178.65 141.385 178.785 141.168 178.785 140.86C178.785 140.552 178.65 140.127 178.378 139.584L172.543 127.451L173.411 126.149L168.118 138.417C167.865 139.032 167.738 139.539 167.738 139.937C167.738 140.516 167.964 140.95 168.417 141.24C168.869 141.53 169.521 141.674 170.371 141.674C170.462 141.674 170.507 141.729 170.507 141.837C170.507 141.946 170.462 142 170.371 142C170.045 142 169.575 141.982 168.96 141.946C168.272 141.91 167.675 141.891 167.168 141.891C166.698 141.891 166.137 141.91 165.485 141.946C164.906 141.982 164.436 142 164.074 142C164.002 142 163.965 141.946 163.965 141.837C163.965 141.729 164.002 141.674 164.074 141.674C164.581 141.674 165.006 141.575 165.35 141.376C165.712 141.177 166.055 140.833 166.381 140.344C166.707 139.856 167.078 139.132 167.494 138.173L173.275 124.846C173.294 124.791 173.357 124.764 173.465 124.764C173.574 124.746 173.637 124.773 173.655 124.846L180.17 138.281C180.803 139.602 181.328 140.498 181.744 140.969C182.178 141.439 182.667 141.674 183.21 141.674Z" fill="#040605"/>
<path d="M91.586 179.872C91.6213 179.825 91.6978 179.801 91.8156 179.801C91.8863 179.801 91.951 179.813 92.0099 179.836C92.0688 179.86 92.0982 179.889 92.0982 179.925V189.569C92.0982 189.922 92.1335 190.187 92.2042 190.364C92.2866 190.529 92.4279 190.641 92.6281 190.7C92.8283 190.759 93.1463 190.788 93.582 190.788C93.6173 190.788 93.635 190.823 93.635 190.894C93.635 190.965 93.6173 191 93.582 191C93.2052 191 92.9049 190.994 92.6811 190.982L91.4093 190.965L90.0139 190.982C89.8137 190.994 89.5369 191 89.1837 191C89.1483 191 89.1307 190.965 89.1307 190.894C89.1307 190.823 89.1483 190.788 89.1837 190.788C89.6429 190.788 89.9727 190.759 90.1728 190.7C90.3848 190.641 90.5261 190.529 90.5968 190.364C90.6674 190.199 90.7028 189.934 90.7028 189.569V181.196H91.109L83.2662 191.177C83.2309 191.212 83.1543 191.23 83.0366 191.23C82.8482 191.23 82.754 191.188 82.754 191.106V181.391C82.754 181.038 82.7127 180.778 82.6303 180.614C82.5597 180.449 82.4183 180.337 82.2064 180.278C82.0062 180.207 81.6882 180.172 81.2525 180.172C81.229 180.172 81.2172 180.137 81.2172 180.066C81.2172 179.995 81.229 179.96 81.2525 179.96L82.1887 179.978C82.7304 180.001 83.1485 180.013 83.4429 180.013C83.8197 180.013 84.279 180.001 84.8207 179.978L85.6685 179.96C85.7039 179.96 85.7215 179.995 85.7215 180.066C85.7215 180.137 85.7039 180.172 85.6685 180.172C85.2093 180.172 84.8736 180.207 84.6617 180.278C84.4615 180.337 84.3261 180.449 84.2554 180.614C84.1847 180.778 84.1494 181.038 84.1494 181.391V189.852H83.7431L91.586 179.872ZM103.784 181.426C103.784 181.073 103.749 180.814 103.678 180.649C103.608 180.472 103.466 180.349 103.254 180.278C103.042 180.207 102.713 180.172 102.265 180.172C102.23 180.172 102.212 180.137 102.212 180.066C102.212 179.995 102.23 179.96 102.265 179.96L103.095 179.978C103.637 180.001 104.102 180.013 104.491 180.013C104.821 180.013 105.245 180.001 105.763 179.978L106.664 179.96C106.699 179.96 106.717 179.995 106.717 180.066C106.717 180.137 106.699 180.172 106.664 180.172C106.228 180.172 105.904 180.207 105.692 180.278C105.492 180.337 105.356 180.449 105.286 180.614C105.215 180.778 105.18 181.038 105.18 181.391V189.569C105.18 189.922 105.215 190.187 105.286 190.364C105.356 190.529 105.492 190.641 105.692 190.7C105.904 190.759 106.228 190.788 106.664 190.788C106.699 190.788 106.717 190.823 106.717 190.894C106.717 190.965 106.699 191 106.664 191C106.287 191 105.986 190.994 105.763 190.982L104.491 190.965L103.095 190.982C102.895 190.994 102.619 191 102.265 191C102.23 191 102.212 190.965 102.212 190.894C102.212 190.823 102.23 190.788 102.265 190.788C102.724 190.788 103.054 190.759 103.254 190.7C103.466 190.641 103.608 190.529 103.678 190.364C103.749 190.199 103.784 189.934 103.784 189.569V181.426ZM96.5951 185.047H104.403V185.454H96.5951V185.047ZM95.9415 181.391C95.9415 181.038 95.9062 180.778 95.8355 180.614C95.7649 180.449 95.6295 180.337 95.4293 180.278C95.2291 180.207 94.9111 180.172 94.4754 180.172C94.4401 180.172 94.4224 180.137 94.4224 180.066C94.4224 179.995 94.4401 179.96 94.4754 179.96L95.3763 179.978C95.8709 180.001 96.283 180.013 96.6128 180.013C96.9778 180.013 97.4312 180.001 97.9729 179.978L98.8737 179.96C98.8973 179.96 98.9091 179.995 98.9091 180.066C98.9091 180.137 98.8973 180.172 98.8737 180.172C98.4263 180.172 98.0965 180.207 97.8846 180.278C97.6726 180.349 97.5254 180.472 97.443 180.649C97.3723 180.814 97.337 181.073 97.337 181.426V189.569C97.337 189.922 97.3723 190.187 97.443 190.364C97.5254 190.529 97.6667 190.641 97.8669 190.7C98.0789 190.759 98.4145 190.788 98.8737 190.788C98.8973 190.788 98.9091 190.823 98.9091 190.894C98.9091 190.965 98.8973 191 98.8737 191C98.4851 191 98.1848 190.994 97.9729 190.982L96.6128 190.965L95.3586 190.982C95.1349 190.994 94.8287 191 94.4401 191C94.4165 191 94.4048 190.965 94.4048 190.894C94.4048 190.823 94.4165 190.788 94.4401 190.788C94.8758 190.788 95.1937 190.759 95.3939 190.7C95.6059 190.641 95.7472 190.529 95.8179 190.364C95.9003 190.187 95.9415 189.922 95.9415 189.569V181.391ZM110.457 180.313C109.727 180.313 109.156 180.519 108.743 180.932C108.331 181.332 108.025 181.98 107.825 182.875C107.813 182.898 107.772 182.91 107.701 182.91C107.642 182.91 107.613 182.892 107.613 182.857C107.66 182.527 107.713 181.991 107.772 181.249C107.831 180.508 107.86 179.948 107.86 179.571C107.86 179.513 107.895 179.483 107.966 179.483C108.037 179.483 108.072 179.513 108.072 179.571C108.072 179.83 108.396 179.96 109.044 179.96C110.056 179.995 111.24 180.013 112.594 180.013C113.289 180.013 114.025 180.001 114.802 179.978L116.003 179.96C116.439 179.96 116.757 179.931 116.957 179.872C117.157 179.813 117.287 179.695 117.346 179.518C117.358 179.471 117.393 179.448 117.452 179.448C117.522 179.448 117.558 179.471 117.558 179.518C117.522 179.848 117.481 180.378 117.434 181.108C117.399 181.838 117.381 182.421 117.381 182.857C117.381 182.892 117.346 182.91 117.275 182.91C117.216 182.91 117.187 182.892 117.187 182.857C117.104 181.95 116.869 181.302 116.48 180.914C116.092 180.513 115.515 180.313 114.749 180.313C114.313 180.313 114.001 180.343 113.813 180.402C113.625 180.449 113.495 180.549 113.424 180.702C113.354 180.843 113.318 181.085 113.318 181.426V189.569C113.318 189.934 113.354 190.199 113.424 190.364C113.507 190.529 113.66 190.641 113.884 190.7C114.107 190.759 114.466 190.788 114.961 190.788C114.985 190.788 114.996 190.823 114.996 190.894C114.996 190.965 114.985 191 114.961 191C114.549 191 114.225 190.994 113.99 190.982L112.594 190.965L111.234 190.982C110.998 190.994 110.669 191 110.245 191C110.209 191 110.192 190.965 110.192 190.894C110.192 190.823 110.209 190.788 110.245 190.788C110.728 190.788 111.081 190.759 111.305 190.7C111.54 190.641 111.699 190.529 111.782 190.364C111.864 190.187 111.905 189.922 111.905 189.569V181.391C111.905 181.061 111.87 180.826 111.799 180.684C111.729 180.531 111.593 180.431 111.393 180.384C111.205 180.337 110.892 180.313 110.457 180.313ZM118.595 191C118.56 191 118.542 190.965 118.542 190.894C118.542 190.823 118.56 190.788 118.595 190.788C119.019 190.788 119.325 190.759 119.513 190.7C119.714 190.641 119.849 190.529 119.92 190.364C119.99 190.187 120.026 189.922 120.026 189.569V181.391C120.026 181.038 119.99 180.778 119.92 180.614C119.849 180.449 119.714 180.337 119.513 180.278C119.325 180.207 119.019 180.172 118.595 180.172C118.56 180.172 118.542 180.137 118.542 180.066C118.542 179.995 118.56 179.96 118.595 179.96H125.802C125.92 179.96 125.978 180.013 125.978 180.119L126.014 182.345C126.014 182.38 125.978 182.404 125.908 182.415C125.849 182.415 125.814 182.398 125.802 182.362C125.719 181.715 125.49 181.22 125.113 180.879C124.736 180.537 124.242 180.366 123.629 180.366H122.728C122.21 180.366 121.863 180.443 121.686 180.596C121.509 180.749 121.421 181.038 121.421 181.461V189.499C121.421 189.922 121.498 190.211 121.651 190.364C121.816 190.517 122.139 190.594 122.622 190.594H123.788C124.448 190.594 124.995 190.399 125.431 190.011C125.878 189.61 126.185 189.045 126.349 188.315C126.349 188.292 126.373 188.28 126.42 188.28C126.455 188.28 126.485 188.292 126.508 188.315C126.544 188.327 126.561 188.339 126.561 188.35C126.444 189.198 126.385 189.993 126.385 190.735C126.385 190.829 126.367 190.9 126.332 190.947C126.296 190.982 126.226 191 126.12 191H118.595ZM125.131 186.937C125.131 186.431 124.983 186.06 124.689 185.824C124.406 185.577 123.953 185.454 123.329 185.454H120.75V185.047H123.364C123.965 185.047 124.406 184.947 124.689 184.747C124.972 184.535 125.113 184.211 125.113 183.775C125.113 183.752 125.142 183.74 125.201 183.74C125.272 183.74 125.307 183.752 125.307 183.775L125.29 185.259L125.307 186.054C125.331 186.431 125.343 186.725 125.343 186.937C125.343 186.961 125.307 186.973 125.237 186.973C125.166 186.973 125.131 186.961 125.131 186.937ZM130.589 189.499C130.589 189.875 130.636 190.152 130.73 190.329C130.824 190.494 131.001 190.611 131.26 190.682C131.531 190.753 131.961 190.788 132.549 190.788C132.585 190.788 132.602 190.823 132.602 190.894C132.602 190.965 132.585 191 132.549 191C132.067 191 131.69 190.994 131.419 190.982L129.882 190.965L128.663 190.982C128.44 190.994 128.139 191 127.762 191C127.727 191 127.709 190.965 127.709 190.894C127.709 190.823 127.727 190.788 127.762 190.788C128.186 190.788 128.492 190.759 128.681 190.7C128.869 190.641 128.999 190.529 129.07 190.364C129.14 190.187 129.176 189.922 129.176 189.569V181.391C129.176 181.038 129.14 180.778 129.07 180.614C128.999 180.449 128.863 180.337 128.663 180.278C128.475 180.207 128.175 180.172 127.762 180.172C127.727 180.172 127.709 180.137 127.709 180.066C127.709 179.995 127.727 179.96 127.762 179.96L128.646 179.978C129.164 180.001 129.57 180.013 129.864 180.013C130.147 180.013 130.483 179.995 130.871 179.96C131.013 179.96 131.23 179.954 131.525 179.942C131.831 179.919 132.096 179.907 132.32 179.907C133.427 179.907 134.316 180.154 134.987 180.649C135.658 181.132 135.994 181.868 135.994 182.857C135.994 183.622 135.8 184.27 135.411 184.8C135.034 185.33 134.545 185.724 133.945 185.983C133.356 186.242 132.744 186.372 132.108 186.372C131.766 186.372 131.484 186.343 131.26 186.284C131.225 186.284 131.207 186.254 131.207 186.195C131.207 186.16 131.213 186.125 131.225 186.089C131.248 186.054 131.272 186.042 131.295 186.054C131.484 186.101 131.69 186.125 131.913 186.125C132.62 186.125 133.215 185.872 133.697 185.365C134.18 184.859 134.422 184.129 134.422 183.175C134.422 182.245 134.186 181.52 133.715 181.002C133.244 180.472 132.62 180.207 131.843 180.207C131.478 180.207 131.213 180.237 131.048 180.296C130.883 180.343 130.765 180.455 130.695 180.631C130.624 180.796 130.589 181.061 130.589 181.426V189.499ZM141.803 191.071C141.509 191.071 141.156 191.053 140.744 191.018C140.579 191.006 140.361 190.994 140.09 190.982C139.831 190.971 139.531 190.965 139.189 190.965L138.041 190.982C137.806 190.994 137.493 191 137.105 191C137.07 191 137.052 190.965 137.052 190.894C137.052 190.823 137.07 190.788 137.105 190.788C137.541 190.776 137.853 190.747 138.041 190.7C138.229 190.641 138.359 190.529 138.43 190.364C138.512 190.199 138.553 189.934 138.553 189.569V181.391C138.553 181.026 138.518 180.767 138.447 180.614C138.377 180.449 138.247 180.337 138.059 180.278C137.87 180.219 137.558 180.184 137.123 180.172C137.099 180.172 137.087 180.137 137.087 180.066C137.087 179.995 137.099 179.96 137.123 179.96L137.97 179.978C138.489 180.001 138.907 180.013 139.225 180.013C139.578 180.013 140.025 180.001 140.567 179.978L141.468 179.96C141.503 179.96 141.521 179.995 141.521 180.066C141.521 180.137 141.503 180.172 141.468 180.172C141.02 180.184 140.691 180.219 140.479 180.278C140.278 180.337 140.137 180.455 140.055 180.631C139.984 180.796 139.949 181.061 139.949 181.426V189.569C139.949 189.958 140.049 190.246 140.249 190.435C140.449 190.623 140.856 190.717 141.468 190.717C142.375 190.717 143.022 190.505 143.411 190.081C143.811 189.646 144.011 188.969 144.011 188.05C144.011 187.026 143.794 186.29 143.358 185.842C142.922 185.383 142.263 185.153 141.38 185.153C140.85 185.153 140.178 185.247 139.366 185.436L139.313 185.065C140.231 184.865 141.079 184.765 141.856 184.765C144.294 184.765 145.513 185.73 145.513 187.662C145.513 188.333 145.354 188.927 145.036 189.446C144.73 189.964 144.294 190.364 143.729 190.647C143.164 190.929 142.522 191.071 141.803 191.071ZM146.532 191C146.497 191 146.479 190.965 146.479 190.894C146.479 190.823 146.497 190.788 146.532 190.788C146.956 190.788 147.262 190.759 147.451 190.7C147.651 190.641 147.786 190.529 147.857 190.364C147.928 190.187 147.963 189.922 147.963 189.569V181.391C147.963 181.038 147.928 180.778 147.857 180.614C147.786 180.449 147.651 180.337 147.451 180.278C147.262 180.207 146.956 180.172 146.532 180.172C146.497 180.172 146.479 180.137 146.479 180.066C146.479 179.995 146.497 179.96 146.532 179.96H153.739C153.857 179.96 153.916 180.013 153.916 180.119L153.951 182.345C153.951 182.38 153.916 182.404 153.845 182.415C153.786 182.415 153.751 182.398 153.739 182.362C153.657 181.715 153.427 181.22 153.05 180.879C152.674 180.537 152.179 180.366 151.567 180.366H150.666C150.148 180.366 149.8 180.443 149.624 180.596C149.447 180.749 149.359 181.038 149.359 181.461V189.499C149.359 189.922 149.435 190.211 149.588 190.364C149.753 190.517 150.077 190.594 150.56 190.594H151.726C152.385 190.594 152.933 190.399 153.368 190.011C153.816 189.61 154.122 189.045 154.287 188.315C154.287 188.292 154.31 188.28 154.357 188.28C154.393 188.28 154.422 188.292 154.446 188.315C154.481 188.327 154.499 188.339 154.499 188.35C154.381 189.198 154.322 189.993 154.322 190.735C154.322 190.829 154.304 190.9 154.269 190.947C154.234 190.982 154.163 191 154.057 191H146.532ZM153.068 186.937C153.068 186.431 152.921 186.06 152.626 185.824C152.344 185.577 151.89 185.454 151.266 185.454H148.687V185.047H151.302C151.902 185.047 152.344 184.947 152.626 184.747C152.909 184.535 153.05 184.211 153.05 183.775C153.05 183.752 153.08 183.74 153.139 183.74C153.209 183.74 153.245 183.752 153.245 183.775L153.227 185.259L153.245 186.054C153.268 186.431 153.28 186.725 153.28 186.937C153.28 186.961 153.245 186.973 153.174 186.973C153.103 186.973 153.068 186.961 153.068 186.937ZM158.526 189.499C158.526 189.875 158.573 190.152 158.667 190.329C158.762 190.494 158.938 190.611 159.197 190.682C159.468 190.753 159.898 190.788 160.487 190.788C160.522 190.788 160.54 190.823 160.54 190.894C160.54 190.965 160.522 191 160.487 191C160.004 191 159.627 190.994 159.356 190.982L157.819 190.965L156.601 190.982C156.377 190.994 156.077 191 155.7 191C155.664 191 155.647 190.965 155.647 190.894C155.647 190.823 155.664 190.788 155.7 190.788C156.124 190.788 156.43 190.759 156.618 190.7C156.807 190.641 156.936 190.529 157.007 190.364C157.078 190.187 157.113 189.922 157.113 189.569V181.391C157.113 181.038 157.078 180.778 157.007 180.614C156.936 180.449 156.801 180.337 156.601 180.278C156.412 180.207 156.112 180.172 155.7 180.172C155.664 180.172 155.647 180.137 155.647 180.066C155.647 179.995 155.664 179.96 155.7 179.96L156.583 179.978C157.101 180.001 157.507 180.013 157.802 180.013C158.084 180.013 158.42 179.995 158.809 179.96C158.95 179.96 159.168 179.954 159.462 179.942C159.768 179.919 160.033 179.907 160.257 179.907C161.364 179.907 162.253 180.154 162.924 180.649C163.596 181.132 163.931 181.868 163.931 182.857C163.931 183.622 163.737 184.27 163.348 184.8C162.971 185.33 162.483 185.724 161.882 185.983C161.293 186.242 160.681 186.372 160.045 186.372C159.704 186.372 159.421 186.343 159.197 186.284C159.162 186.284 159.144 186.254 159.144 186.195C159.144 186.16 159.15 186.125 159.162 186.089C159.185 186.054 159.209 186.042 159.233 186.054C159.421 186.101 159.627 186.125 159.851 186.125C160.557 186.125 161.152 185.872 161.635 185.365C162.118 184.859 162.359 184.129 162.359 183.175C162.359 182.245 162.124 181.52 161.653 181.002C161.182 180.472 160.557 180.207 159.78 180.207C159.415 180.207 159.15 180.237 158.985 180.296C158.82 180.343 158.703 180.455 158.632 180.631C158.561 180.796 158.526 181.061 158.526 181.426V189.499ZM165.067 189.552C165.444 189.552 165.732 189.687 165.932 189.958C166.144 190.229 166.25 190.629 166.25 191.159C166.25 191.712 166.127 192.242 165.879 192.749C165.632 193.255 165.267 193.756 164.784 194.25C164.772 194.262 164.755 194.268 164.731 194.268C164.696 194.268 164.666 194.25 164.643 194.215C164.619 194.18 164.619 194.15 164.643 194.127C164.925 193.75 165.114 193.385 165.208 193.031C165.314 192.69 165.367 192.307 165.367 191.883C165.367 191.553 165.326 191.294 165.243 191.106C165.173 190.929 165.061 190.776 164.908 190.647L165.579 190.523C165.591 190.723 165.538 190.876 165.42 190.982C165.302 191.088 165.137 191.141 164.925 191.141C164.678 191.141 164.484 191.071 164.342 190.929C164.213 190.788 164.148 190.6 164.148 190.364C164.148 190.105 164.225 189.905 164.378 189.764C164.543 189.622 164.772 189.552 165.067 189.552ZM179.835 191C179.67 191 179.529 190.959 179.411 190.876C179.293 190.782 179.087 190.541 178.793 190.152C178.498 189.764 177.992 189.057 177.273 188.032L177.062 187.732C176.555 187.014 176.184 186.513 175.949 186.231C175.713 185.936 175.466 185.73 175.207 185.612C174.959 185.495 174.63 185.436 174.218 185.436C174.076 185.436 173.941 185.442 173.811 185.454C173.682 185.465 173.564 185.477 173.458 185.489L173.44 185.171C174.218 185.136 174.818 185.118 175.242 185.118C175.796 185.118 176.22 185.183 176.514 185.312C176.808 185.43 177.085 185.642 177.344 185.948C177.603 186.242 178.039 186.82 178.651 187.679C179.228 188.48 179.682 189.081 180.011 189.481C180.341 189.881 180.683 190.199 181.036 190.435C181.389 190.658 181.784 190.776 182.219 190.788C182.243 190.788 182.255 190.823 182.255 190.894C182.255 190.965 182.243 191 182.219 191H179.835ZM171.162 191C171.138 191 171.126 190.965 171.126 190.894C171.126 190.823 171.138 190.788 171.162 190.788C171.597 190.788 171.915 190.759 172.116 190.7C172.328 190.641 172.469 190.529 172.54 190.364C172.622 190.187 172.663 189.922 172.663 189.569V181.391C172.663 181.038 172.622 180.778 172.54 180.614C172.469 180.449 172.333 180.337 172.133 180.278C171.933 180.207 171.615 180.172 171.179 180.172C171.156 180.172 171.144 180.137 171.144 180.066C171.144 179.995 171.156 179.96 171.179 179.96L172.08 179.978C172.575 180.001 172.981 180.013 173.299 180.013C173.652 180.013 174.1 180.001 174.642 179.978L175.525 179.96C175.56 179.96 175.578 179.995 175.578 180.066C175.578 180.137 175.56 180.172 175.525 180.172C175.101 180.172 174.783 180.207 174.571 180.278C174.371 180.349 174.235 180.472 174.165 180.649C174.094 180.814 174.059 181.073 174.059 181.426V189.569C174.059 189.934 174.094 190.199 174.165 190.364C174.235 190.529 174.371 190.641 174.571 190.7C174.771 190.759 175.089 190.788 175.525 190.788C175.56 190.788 175.578 190.823 175.578 190.894C175.578 190.965 175.56 191 175.525 191C175.148 191 174.848 190.994 174.624 190.982L173.299 190.965L172.063 190.982C171.851 190.994 171.55 191 171.162 191ZM175.383 185.242L177.521 182.274C178.039 181.579 178.298 181.055 178.298 180.702C178.298 180.349 178.015 180.172 177.45 180.172C177.427 180.172 177.415 180.137 177.415 180.066C177.415 179.995 177.427 179.96 177.45 179.96L178.227 179.978C178.698 180.001 179.128 180.013 179.517 180.013C179.929 180.013 180.359 180.001 180.806 179.978L181.495 179.96C181.53 179.96 181.548 179.995 181.548 180.066C181.548 180.137 181.53 180.172 181.495 180.172C180.906 180.172 180.347 180.337 179.817 180.667C179.299 180.985 178.781 181.479 178.263 182.15L175.701 185.401L175.383 185.242ZM185.437 186.001H190.242L190.365 186.39H185.225L185.437 186.001ZM194.357 190.788C194.416 190.788 194.446 190.823 194.446 190.894C194.446 190.965 194.416 191 194.357 191C194.134 191 193.786 190.988 193.315 190.965C192.821 190.941 192.467 190.929 192.255 190.929C191.984 190.929 191.649 190.941 191.248 190.965C190.848 190.988 190.548 191 190.348 191C190.3 191 190.277 190.965 190.277 190.894C190.277 190.823 190.3 190.788 190.348 190.788C190.748 190.788 191.036 190.753 191.213 190.682C191.39 190.6 191.478 190.458 191.478 190.258C191.478 190.058 191.39 189.781 191.213 189.428L187.415 181.532L187.981 180.684L184.536 188.668C184.371 189.069 184.289 189.398 184.289 189.658C184.289 190.034 184.436 190.317 184.73 190.505C185.025 190.694 185.449 190.788 186.002 190.788C186.061 190.788 186.091 190.823 186.091 190.894C186.091 190.965 186.061 191 186.002 191C185.79 191 185.484 190.988 185.084 190.965C184.636 190.941 184.248 190.929 183.918 190.929C183.612 190.929 183.247 190.941 182.823 190.965C182.446 190.988 182.14 191 181.904 191C181.857 191 181.834 190.965 181.834 190.894C181.834 190.823 181.857 190.788 181.904 190.788C182.234 190.788 182.511 190.723 182.734 190.594C182.97 190.464 183.194 190.24 183.406 189.922C183.618 189.605 183.859 189.134 184.13 188.509L187.892 179.836C187.904 179.801 187.945 179.783 188.016 179.783C188.087 179.772 188.128 179.789 188.14 179.836L192.379 188.58C192.791 189.44 193.133 190.023 193.403 190.329C193.686 190.635 194.004 190.788 194.357 190.788ZM203.261 191C203.096 191 202.955 190.959 202.837 190.876C202.719 190.782 202.513 190.541 202.219 190.152C201.924 189.764 201.418 189.057 200.7 188.032L200.488 187.732C199.981 187.014 199.61 186.513 199.375 186.231C199.139 185.936 198.892 185.73 198.633 185.612C198.386 185.495 198.056 185.436 197.644 185.436C197.502 185.436 197.367 185.442 197.238 185.454C197.108 185.465 196.99 185.477 196.884 185.489L196.867 185.171C197.644 185.136 198.244 185.118 198.668 185.118C199.222 185.118 199.646 185.183 199.94 185.312C200.235 185.43 200.511 185.642 200.77 185.948C201.029 186.242 201.465 186.82 202.077 187.679C202.654 188.48 203.108 189.081 203.438 189.481C203.767 189.881 204.109 190.199 204.462 190.435C204.815 190.658 205.21 190.776 205.646 190.788C205.669 190.788 205.681 190.823 205.681 190.894C205.681 190.965 205.669 191 205.646 191H203.261ZM194.588 191C194.564 191 194.553 190.965 194.553 190.894C194.553 190.823 194.564 190.788 194.588 190.788C195.024 190.788 195.342 190.759 195.542 190.7C195.754 190.641 195.895 190.529 195.966 190.364C196.048 190.187 196.089 189.922 196.089 189.569V181.391C196.089 181.038 196.048 180.778 195.966 180.614C195.895 180.449 195.76 180.337 195.559 180.278C195.359 180.207 195.041 180.172 194.606 180.172C194.582 180.172 194.57 180.137 194.57 180.066C194.57 179.995 194.582 179.96 194.606 179.96L195.506 179.978C196.001 180.001 196.407 180.013 196.725 180.013C197.079 180.013 197.526 180.001 198.068 179.978L198.951 179.96C198.986 179.96 199.004 179.995 199.004 180.066C199.004 180.137 198.986 180.172 198.951 180.172C198.527 180.172 198.209 180.207 197.997 180.278C197.797 180.349 197.661 180.472 197.591 180.649C197.52 180.814 197.485 181.073 197.485 181.426V189.569C197.485 189.934 197.52 190.199 197.591 190.364C197.661 190.529 197.797 190.641 197.997 190.7C198.197 190.759 198.515 190.788 198.951 190.788C198.986 190.788 199.004 190.823 199.004 190.894C199.004 190.965 198.986 191 198.951 191C198.574 191 198.274 190.994 198.05 190.982L196.725 190.965L195.489 190.982C195.277 190.994 194.977 191 194.588 191ZM198.81 185.242L200.947 182.274C201.465 181.579 201.724 181.055 201.724 180.702C201.724 180.349 201.442 180.172 200.876 180.172C200.853 180.172 200.841 180.137 200.841 180.066C200.841 179.995 200.853 179.96 200.876 179.96L201.654 179.978C202.125 180.001 202.554 180.013 202.943 180.013C203.355 180.013 203.785 180.001 204.232 179.978L204.921 179.96C204.957 179.96 204.974 179.995 204.974 180.066C204.974 180.137 204.957 180.172 204.921 180.172C204.333 180.172 203.773 180.337 203.243 180.667C202.725 180.985 202.207 181.479 201.689 182.15L199.128 185.401L198.81 185.242ZM96.3637 212.212C95.2685 212.212 94.2911 211.959 93.4314 211.452C92.5836 210.934 91.9241 210.239 91.4531 209.368C90.9938 208.485 90.7642 207.525 90.7642 206.489C90.7642 205.276 91.0703 204.24 91.6827 203.38C92.2951 202.509 93.0782 201.855 94.032 201.419C94.9976 200.984 95.9809 200.766 96.9819 200.766C98.1006 200.766 99.0839 201.031 99.9318 201.561C100.78 202.079 101.427 202.768 101.875 203.627C102.334 204.487 102.564 205.4 102.564 206.365C102.564 207.437 102.281 208.42 101.716 209.315C101.151 210.21 100.391 210.917 99.4372 211.435C98.4951 211.953 97.4706 212.212 96.3637 212.212ZM96.9819 211.823C97.7356 211.823 98.4127 211.629 99.0133 211.24C99.6138 210.852 100.085 210.287 100.426 209.545C100.78 208.791 100.956 207.896 100.956 206.86C100.956 205.765 100.762 204.787 100.373 203.928C99.9966 203.068 99.449 202.397 98.7306 201.914C98.0241 201.431 97.1998 201.19 96.2577 201.19C95.033 201.19 94.0791 201.608 93.3961 202.444C92.7131 203.268 92.3716 204.41 92.3716 205.871C92.3716 206.989 92.5659 208.002 92.9545 208.909C93.3431 209.816 93.8848 210.528 94.5796 211.046C95.2862 211.564 96.0869 211.823 96.9819 211.823ZM106.17 201.313C105.44 201.313 104.869 201.519 104.457 201.932C104.045 202.332 103.739 202.98 103.539 203.875C103.527 203.898 103.486 203.91 103.415 203.91C103.356 203.91 103.327 203.892 103.327 203.857C103.374 203.527 103.427 202.991 103.486 202.249C103.544 201.508 103.574 200.948 103.574 200.571C103.574 200.513 103.609 200.483 103.68 200.483C103.751 200.483 103.786 200.513 103.786 200.571C103.786 200.83 104.11 200.96 104.757 200.96C105.77 200.995 106.954 201.013 108.308 201.013C109.003 201.013 109.739 201.001 110.516 200.978L111.717 200.96C112.153 200.96 112.471 200.931 112.671 200.872C112.871 200.813 113.001 200.695 113.059 200.518C113.071 200.471 113.107 200.448 113.165 200.448C113.236 200.448 113.271 200.471 113.271 200.518C113.236 200.848 113.195 201.378 113.148 202.108C113.112 202.838 113.095 203.421 113.095 203.857C113.095 203.892 113.059 203.91 112.989 203.91C112.93 203.91 112.9 203.892 112.9 203.857C112.818 202.95 112.583 202.302 112.194 201.914C111.805 201.513 111.228 201.313 110.463 201.313C110.027 201.313 109.715 201.343 109.527 201.402C109.338 201.449 109.209 201.549 109.138 201.702C109.067 201.843 109.032 202.085 109.032 202.426V210.569C109.032 210.934 109.067 211.199 109.138 211.364C109.22 211.529 109.374 211.641 109.597 211.7C109.821 211.759 110.18 211.788 110.675 211.788C110.698 211.788 110.71 211.823 110.71 211.894C110.71 211.965 110.698 212 110.675 212C110.263 212 109.939 211.994 109.703 211.982L108.308 211.965L106.948 211.982C106.712 211.994 106.382 212 105.959 212C105.923 212 105.906 211.965 105.906 211.894C105.906 211.823 105.923 211.788 105.959 211.788C106.441 211.788 106.795 211.759 107.018 211.7C107.254 211.641 107.413 211.529 107.495 211.364C107.578 211.187 107.619 210.922 107.619 210.569V202.391C107.619 202.061 107.584 201.826 107.513 201.684C107.442 201.531 107.307 201.431 107.107 201.384C106.918 201.337 106.606 201.313 106.17 201.313ZM117.082 210.499C117.082 210.875 117.129 211.152 117.223 211.329C117.317 211.494 117.494 211.611 117.753 211.682C118.024 211.753 118.454 211.788 119.043 211.788C119.078 211.788 119.096 211.823 119.096 211.894C119.096 211.965 119.078 212 119.043 212C118.56 212 118.183 211.994 117.912 211.982L116.375 211.965L115.157 211.982C114.933 211.994 114.632 212 114.256 212C114.22 212 114.203 211.965 114.203 211.894C114.203 211.823 114.22 211.788 114.256 211.788C114.68 211.788 114.986 211.759 115.174 211.7C115.363 211.641 115.492 211.529 115.563 211.364C115.633 211.187 115.669 210.922 115.669 210.569V202.391C115.669 202.038 115.633 201.778 115.563 201.614C115.492 201.449 115.357 201.337 115.157 201.278C114.968 201.207 114.668 201.172 114.256 201.172C114.22 201.172 114.203 201.137 114.203 201.066C114.203 200.995 114.22 200.96 114.256 200.96L115.139 200.978C115.657 201.001 116.063 201.013 116.358 201.013C116.64 201.013 116.976 200.995 117.365 200.96C117.506 200.96 117.724 200.954 118.018 200.942C118.324 200.919 118.589 200.907 118.813 200.907C119.92 200.907 120.809 201.154 121.48 201.649C122.151 202.132 122.487 202.868 122.487 203.857C122.487 204.622 122.293 205.27 121.904 205.8C121.527 206.33 121.039 206.724 120.438 206.983C119.849 207.242 119.237 207.372 118.601 207.372C118.259 207.372 117.977 207.343 117.753 207.284C117.718 207.284 117.7 207.254 117.7 207.195C117.7 207.16 117.706 207.125 117.718 207.089C117.741 207.054 117.765 207.042 117.788 207.054C117.977 207.101 118.183 207.125 118.407 207.125C119.113 207.125 119.708 206.872 120.191 206.365C120.674 205.859 120.915 205.129 120.915 204.175C120.915 203.245 120.679 202.52 120.208 202.002C119.737 201.472 119.113 201.207 118.336 201.207C117.971 201.207 117.706 201.237 117.541 201.296C117.376 201.343 117.259 201.455 117.188 201.631C117.117 201.796 117.082 202.061 117.082 202.426V210.499ZM125.491 207.001H130.296L130.419 207.39H125.279L125.491 207.001ZM134.412 211.788C134.47 211.788 134.5 211.823 134.5 211.894C134.5 211.965 134.47 212 134.412 212C134.188 212 133.84 211.988 133.369 211.965C132.875 211.941 132.521 211.929 132.309 211.929C132.039 211.929 131.703 211.941 131.303 211.965C130.902 211.988 130.602 212 130.402 212C130.355 212 130.331 211.965 130.331 211.894C130.331 211.823 130.355 211.788 130.402 211.788C130.802 211.788 131.091 211.753 131.267 211.682C131.444 211.6 131.532 211.458 131.532 211.258C131.532 211.058 131.444 210.781 131.267 210.428L127.47 202.532L128.035 201.684L124.59 209.668C124.425 210.069 124.343 210.398 124.343 210.658C124.343 211.034 124.49 211.317 124.785 211.505C125.079 211.694 125.503 211.788 126.056 211.788C126.115 211.788 126.145 211.823 126.145 211.894C126.145 211.965 126.115 212 126.056 212C125.844 212 125.538 211.988 125.138 211.965C124.69 211.941 124.302 211.929 123.972 211.929C123.666 211.929 123.301 211.941 122.877 211.965C122.5 211.988 122.194 212 121.958 212C121.911 212 121.888 211.965 121.888 211.894C121.888 211.823 121.911 211.788 121.958 211.788C122.288 211.788 122.565 211.723 122.789 211.594C123.024 211.464 123.248 211.24 123.46 210.922C123.672 210.605 123.913 210.134 124.184 209.509L127.946 200.836C127.958 200.801 127.999 200.783 128.07 200.783C128.141 200.772 128.182 200.789 128.194 200.836L132.433 209.58C132.845 210.44 133.187 211.023 133.458 211.329C133.74 211.635 134.058 211.788 134.412 211.788ZM140.736 212C140.701 212 140.683 211.965 140.683 211.894C140.683 211.823 140.701 211.788 140.736 211.788C141.172 211.788 141.49 211.759 141.69 211.7C141.902 211.641 142.043 211.529 142.114 211.364C142.196 211.187 142.238 210.922 142.238 210.569V202.391C142.238 202.049 142.191 201.796 142.096 201.631C142.002 201.455 141.843 201.337 141.619 201.278C141.396 201.207 141.066 201.172 140.63 201.172C140.607 201.172 140.595 201.137 140.595 201.066C140.595 200.995 140.607 200.96 140.63 200.96L141.584 200.978C142.126 201.001 142.55 201.013 142.856 201.013C143.209 201.013 143.668 201.001 144.234 200.978L145.205 200.96C145.229 200.96 145.24 200.995 145.24 201.066C145.24 201.137 145.229 201.172 145.205 201.172C144.769 201.172 144.44 201.207 144.216 201.278C143.992 201.349 143.833 201.472 143.739 201.649C143.645 201.826 143.598 202.085 143.598 202.426V210.569C143.598 210.934 143.633 211.199 143.704 211.364C143.774 211.529 143.91 211.641 144.11 211.7C144.31 211.759 144.634 211.788 145.082 211.788C145.117 211.788 145.135 211.823 145.135 211.894C145.135 211.965 145.117 212 145.082 212C144.693 212 144.387 211.994 144.163 211.982L142.856 211.965L141.619 211.982C141.407 211.994 141.113 212 140.736 212ZM134.165 212C134.13 212 134.112 211.965 134.112 211.894C134.112 211.823 134.13 211.788 134.165 211.788C134.577 211.776 134.948 211.658 135.278 211.435C135.608 211.211 135.926 210.905 136.232 210.516C136.538 210.116 136.974 209.503 137.539 208.679C138.092 207.843 138.505 207.266 138.775 206.948C139.046 206.618 139.329 206.401 139.623 206.295C139.93 206.177 140.365 206.118 140.93 206.118C141.354 206.118 141.943 206.136 142.697 206.171L142.679 206.489C142.561 206.477 142.438 206.465 142.308 206.454C142.191 206.442 142.067 206.436 141.937 206.436C141.478 206.436 141.113 206.501 140.842 206.63C140.571 206.748 140.306 206.972 140.047 207.301C139.788 207.619 139.394 208.19 138.864 209.015C138.181 210.075 137.71 210.793 137.451 211.17C137.203 211.535 137.021 211.764 136.903 211.859C136.797 211.953 136.673 212 136.532 212H134.165ZM137.804 203.15C137.309 202.444 136.803 201.937 136.285 201.631C135.778 201.325 135.207 201.172 134.571 201.172C134.548 201.172 134.536 201.137 134.536 201.066C134.536 200.995 134.548 200.96 134.571 200.96L135.26 200.978C135.708 201.001 136.138 201.013 136.55 201.013C136.927 201.013 137.374 201.001 137.892 200.978L138.811 200.96C138.834 200.96 138.846 200.995 138.846 201.066C138.846 201.137 138.834 201.172 138.811 201.172C138.481 201.172 138.24 201.213 138.087 201.296C137.933 201.378 137.857 201.513 137.857 201.702C137.857 202.008 138.116 202.567 138.634 203.38L140.436 206.242L140.136 206.401L137.804 203.15ZM149.268 212C149.127 212 148.997 211.959 148.879 211.876C148.773 211.782 148.585 211.541 148.314 211.152C148.055 210.764 147.596 210.057 146.936 209.032C146.406 208.208 146.012 207.631 145.753 207.301C145.494 206.972 145.229 206.748 144.958 206.63C144.687 206.501 144.322 206.436 143.863 206.436C143.733 206.436 143.61 206.442 143.492 206.454C143.374 206.465 143.262 206.477 143.156 206.489L143.138 206.171C143.88 206.136 144.457 206.118 144.87 206.118C145.447 206.118 145.882 206.177 146.177 206.295C146.483 206.401 146.771 206.612 147.042 206.93C147.313 207.248 147.725 207.831 148.279 208.679C148.844 209.503 149.28 210.116 149.586 210.516C149.892 210.905 150.21 211.211 150.54 211.435C150.869 211.658 151.24 211.776 151.653 211.788C151.688 211.788 151.706 211.823 151.706 211.894C151.706 211.965 151.688 212 151.653 212H149.268ZM145.364 206.242L147.166 203.415C147.696 202.615 147.961 202.049 147.961 201.72C147.961 201.354 147.649 201.172 147.025 201.172C146.989 201.172 146.972 201.137 146.972 201.066C146.972 200.995 146.989 200.96 147.025 200.96L147.925 200.978C148.444 201.001 148.891 201.013 149.268 201.013C149.68 201.013 150.11 201.001 150.557 200.978L151.246 200.96C151.27 200.96 151.282 200.995 151.282 201.066C151.282 201.137 151.27 201.172 151.246 201.172C150.61 201.172 150.033 201.325 149.515 201.631C149.009 201.937 148.508 202.444 148.014 203.15L145.682 206.401L145.364 206.242ZM152.13 212C152.095 212 152.077 211.965 152.077 211.894C152.077 211.823 152.095 211.788 152.13 211.788C152.554 211.788 152.86 211.759 153.049 211.7C153.249 211.641 153.384 211.529 153.455 211.364C153.526 211.187 153.561 210.922 153.561 210.569V202.391C153.561 202.038 153.526 201.778 153.455 201.614C153.384 201.449 153.249 201.337 153.049 201.278C152.86 201.207 152.554 201.172 152.13 201.172C152.095 201.172 152.077 201.137 152.077 201.066C152.077 200.995 152.095 200.96 152.13 200.96H159.337C159.455 200.96 159.514 201.013 159.514 201.119L159.549 203.345C159.549 203.38 159.514 203.404 159.443 203.415C159.384 203.415 159.349 203.398 159.337 203.362C159.255 202.715 159.025 202.22 158.648 201.879C158.271 201.537 157.777 201.366 157.165 201.366H156.264C155.746 201.366 155.398 201.443 155.221 201.596C155.045 201.749 154.957 202.038 154.957 202.461V210.499C154.957 210.922 155.033 211.211 155.186 211.364C155.351 211.517 155.675 211.594 156.158 211.594H157.324C157.983 211.594 158.531 211.399 158.966 211.011C159.414 210.61 159.72 210.045 159.885 209.315C159.885 209.292 159.908 209.28 159.955 209.28C159.991 209.28 160.02 209.292 160.044 209.315C160.079 209.327 160.097 209.339 160.097 209.35C159.979 210.198 159.92 210.993 159.92 211.735C159.92 211.829 159.902 211.9 159.867 211.947C159.832 211.982 159.761 212 159.655 212H152.13ZM158.666 207.937C158.666 207.431 158.519 207.06 158.224 206.824C157.942 206.577 157.488 206.454 156.864 206.454H154.285V206.047H156.9C157.5 206.047 157.942 205.947 158.224 205.747C158.507 205.535 158.648 205.211 158.648 204.775C158.648 204.752 158.678 204.74 158.737 204.74C158.807 204.74 158.843 204.752 158.843 204.775L158.825 206.259L158.843 207.054C158.866 207.431 158.878 207.725 158.878 207.937C158.878 207.961 158.843 207.973 158.772 207.973C158.701 207.973 158.666 207.961 158.666 207.937ZM170.518 202.426C170.518 202.073 170.483 201.814 170.412 201.649C170.342 201.472 170.2 201.349 169.988 201.278C169.776 201.207 169.447 201.172 168.999 201.172C168.964 201.172 168.946 201.137 168.946 201.066C168.946 200.995 168.964 200.96 168.999 200.96L169.829 200.978C170.371 201.001 170.836 201.013 171.225 201.013C171.555 201.013 171.979 201.001 172.497 200.978L173.398 200.96C173.433 200.96 173.451 200.995 173.451 201.066C173.451 201.137 173.433 201.172 173.398 201.172C172.962 201.172 172.638 201.207 172.426 201.278C172.226 201.337 172.09 201.449 172.02 201.614C171.949 201.778 171.914 202.038 171.914 202.391V210.569C171.914 210.922 171.949 211.187 172.02 211.364C172.09 211.529 172.226 211.641 172.426 211.7C172.638 211.759 172.962 211.788 173.398 211.788C173.433 211.788 173.451 211.823 173.451 211.894C173.451 211.965 173.433 212 173.398 212C173.021 212 172.72 211.994 172.497 211.982L171.225 211.965L169.829 211.982C169.629 211.994 169.353 212 168.999 212C168.964 212 168.946 211.965 168.946 211.894C168.946 211.823 168.964 211.788 168.999 211.788C169.459 211.788 169.788 211.759 169.988 211.7C170.2 211.641 170.342 211.529 170.412 211.364C170.483 211.199 170.518 210.934 170.518 210.569V202.426ZM163.329 206.047H171.137V206.454H163.329V206.047ZM162.676 202.391C162.676 202.038 162.64 201.778 162.57 201.614C162.499 201.449 162.363 201.337 162.163 201.278C161.963 201.207 161.645 201.172 161.209 201.172C161.174 201.172 161.156 201.137 161.156 201.066C161.156 200.995 161.174 200.96 161.209 200.96L162.11 200.978C162.605 201.001 163.017 201.013 163.347 201.013C163.712 201.013 164.165 201.001 164.707 200.978L165.608 200.96C165.631 200.96 165.643 200.995 165.643 201.066C165.643 201.137 165.631 201.172 165.608 201.172C165.16 201.172 164.831 201.207 164.619 201.278C164.407 201.349 164.259 201.472 164.177 201.649C164.106 201.814 164.071 202.073 164.071 202.426V210.569C164.071 210.922 164.106 211.187 164.177 211.364C164.259 211.529 164.401 211.641 164.601 211.7C164.813 211.759 165.149 211.788 165.608 211.788C165.631 211.788 165.643 211.823 165.643 211.894C165.643 211.965 165.631 212 165.608 212C165.219 212 164.919 211.994 164.707 211.982L163.347 211.965L162.093 211.982C161.869 211.994 161.563 212 161.174 212C161.151 212 161.139 211.965 161.139 211.894C161.139 211.823 161.151 211.788 161.174 211.788C161.61 211.788 161.928 211.759 162.128 211.7C162.34 211.641 162.481 211.529 162.552 211.364C162.634 211.187 162.676 210.922 162.676 210.569V202.391ZM184.61 200.872C184.645 200.825 184.722 200.801 184.839 200.801C184.91 200.801 184.975 200.813 185.034 200.836C185.093 200.86 185.122 200.889 185.122 200.925V210.569C185.122 210.922 185.157 211.187 185.228 211.364C185.31 211.529 185.452 211.641 185.652 211.7C185.852 211.759 186.17 211.788 186.606 211.788C186.641 211.788 186.659 211.823 186.659 211.894C186.659 211.965 186.641 212 186.606 212C186.229 212 185.929 211.994 185.705 211.982L184.433 211.965L183.038 211.982C182.837 211.994 182.561 212 182.207 212C182.172 212 182.154 211.965 182.154 211.894C182.154 211.823 182.172 211.788 182.207 211.788C182.667 211.788 182.996 211.759 183.197 211.7C183.409 211.641 183.55 211.529 183.621 211.364C183.691 211.199 183.726 210.934 183.726 210.569V202.196H184.133L176.29 212.177C176.255 212.212 176.178 212.23 176.06 212.23C175.872 212.23 175.778 212.188 175.778 212.106V202.391C175.778 202.038 175.736 201.778 175.654 201.614C175.583 201.449 175.442 201.337 175.23 201.278C175.03 201.207 174.712 201.172 174.276 201.172C174.253 201.172 174.241 201.137 174.241 201.066C174.241 200.995 174.253 200.96 174.276 200.96L175.212 200.978C175.754 201.001 176.172 201.013 176.467 201.013C176.843 201.013 177.303 201.001 177.844 200.978L178.692 200.96C178.728 200.96 178.745 200.995 178.745 201.066C178.745 201.137 178.728 201.172 178.692 201.172C178.233 201.172 177.897 201.207 177.685 201.278C177.485 201.337 177.35 201.449 177.279 201.614C177.208 201.778 177.173 202.038 177.173 202.391V210.852H176.767L184.61 200.872ZM187.64 212C187.605 212 187.587 211.965 187.587 211.894C187.587 211.823 187.605 211.788 187.64 211.788C188.064 211.788 188.371 211.759 188.559 211.7C188.759 211.641 188.895 211.529 188.965 211.364C189.036 211.187 189.071 210.922 189.071 210.569V202.391C189.071 202.038 189.036 201.778 188.965 201.614C188.895 201.449 188.759 201.337 188.559 201.278C188.371 201.207 188.064 201.172 187.64 201.172C187.605 201.172 187.587 201.137 187.587 201.066C187.587 200.995 187.605 200.96 187.64 200.96H194.847C194.965 200.96 195.024 201.013 195.024 201.119L195.059 203.345C195.059 203.38 195.024 203.404 194.953 203.415C194.894 203.415 194.859 203.398 194.847 203.362C194.765 202.715 194.535 202.22 194.158 201.879C193.782 201.537 193.287 201.366 192.675 201.366H191.774C191.256 201.366 190.908 201.443 190.732 201.596C190.555 201.749 190.467 202.038 190.467 202.461V210.499C190.467 210.922 190.543 211.211 190.696 211.364C190.861 211.517 191.185 211.594 191.668 211.594H192.834C193.493 211.594 194.041 211.399 194.476 211.011C194.924 210.61 195.23 210.045 195.395 209.315C195.395 209.292 195.418 209.28 195.466 209.28C195.501 209.28 195.53 209.292 195.554 209.315C195.589 209.327 195.607 209.339 195.607 209.35C195.489 210.198 195.43 210.993 195.43 211.735C195.43 211.829 195.413 211.9 195.377 211.947C195.342 211.982 195.271 212 195.165 212H187.64ZM194.176 207.937C194.176 207.431 194.029 207.06 193.735 206.824C193.452 206.577 192.999 206.454 192.374 206.454H189.795V206.047H192.41C193.01 206.047 193.452 205.947 193.735 205.747C194.017 205.535 194.158 205.211 194.158 204.775C194.158 204.752 194.188 204.74 194.247 204.74C194.317 204.74 194.353 204.752 194.353 204.775L194.335 206.259L194.353 207.054C194.376 207.431 194.388 207.725 194.388 207.937C194.388 207.961 194.353 207.973 194.282 207.973C194.211 207.973 194.176 207.961 194.176 207.937ZM122.5 221.836C122.512 221.801 122.553 221.783 122.624 221.783C122.706 221.772 122.753 221.789 122.765 221.836L127.552 233H126.015L122.005 223.585L122.641 222.684L118.42 233H117.925L122.5 221.836ZM116.954 235.773C116.954 235.196 116.936 234.719 116.901 234.342C116.877 233.977 116.848 233.671 116.812 233.424C116.777 233.2 116.759 232.982 116.759 232.77C116.759 232.676 116.771 232.623 116.795 232.611C116.818 232.588 116.871 232.576 116.954 232.576H128.294C128.4 232.576 128.459 232.588 128.47 232.611C128.494 232.623 128.506 232.676 128.506 232.77C128.506 232.841 128.494 233.006 128.47 233.265C128.376 234.054 128.329 234.89 128.329 235.773C128.329 235.832 128.294 235.862 128.223 235.862C128.164 235.862 128.135 235.832 128.135 235.773C128.135 234.831 127.87 234.13 127.34 233.671C126.81 233.224 125.992 233 124.885 233H119.939C119.056 233 118.367 233.218 117.872 233.654C117.389 234.101 117.148 234.808 117.148 235.773C117.148 235.832 117.113 235.862 117.042 235.862C116.983 235.862 116.954 235.832 116.954 235.773ZM136.354 223.532C136.46 223.297 136.513 223.102 136.513 222.949C136.513 222.431 136.065 222.172 135.17 222.172C135.135 222.172 135.117 222.137 135.117 222.066C135.117 221.995 135.135 221.96 135.17 221.96L135.912 221.978C136.336 222.001 136.713 222.013 137.043 222.013C137.255 222.013 137.514 222.001 137.82 221.978L138.491 221.96C138.527 221.96 138.544 221.995 138.544 222.066C138.544 222.137 138.527 222.172 138.491 222.172C138.173 222.172 137.861 222.296 137.555 222.543C137.261 222.79 137.007 223.138 136.795 223.585L133.598 230.492C133.304 231.128 133.086 231.634 132.945 232.011C132.768 232.447 132.639 232.723 132.556 232.841C132.474 232.947 132.338 233 132.15 233H129.253C129.229 233 129.218 232.965 129.218 232.894C129.218 232.823 129.229 232.788 129.253 232.788C130.113 232.788 130.884 232.588 131.567 232.187C132.262 231.775 132.792 231.169 133.157 230.368L136.354 223.532ZM129.271 223.426C129.012 222.943 128.776 222.614 128.564 222.437C128.364 222.26 128.093 222.172 127.751 222.172C127.728 222.172 127.716 222.137 127.716 222.066C127.716 221.995 127.728 221.96 127.751 221.96L128.387 221.978C128.741 222.001 129.1 222.013 129.465 222.013C130.018 222.013 130.554 222.001 131.072 221.978C131.249 221.966 131.467 221.96 131.726 221.96C131.749 221.96 131.761 221.995 131.761 222.066C131.761 222.137 131.749 222.172 131.726 222.172C130.984 222.172 130.613 222.354 130.613 222.72C130.613 222.873 130.672 223.049 130.79 223.249L134.022 229.202L133.245 230.721L129.271 223.426ZM138.654 233C138.63 233 138.619 232.965 138.619 232.894C138.619 232.823 138.63 232.788 138.654 232.788C139.09 232.788 139.408 232.759 139.608 232.7C139.82 232.641 139.961 232.529 140.032 232.364C140.114 232.187 140.155 231.922 140.155 231.569V223.391C140.155 223.038 140.114 222.778 140.032 222.614C139.961 222.449 139.82 222.337 139.608 222.278C139.408 222.207 139.09 222.172 138.654 222.172C138.63 222.172 138.619 222.137 138.619 222.066C138.619 221.995 138.63 221.96 138.654 221.96L139.572 221.978C140.091 222.001 140.503 222.013 140.809 222.013C141.127 222.013 141.545 222.001 142.063 221.978L142.911 221.96C142.946 221.96 142.964 221.995 142.964 222.066C142.964 222.137 142.946 222.172 142.911 222.172C142.511 222.172 142.216 222.207 142.028 222.278C141.839 222.337 141.71 222.449 141.639 222.614C141.58 222.778 141.551 223.038 141.551 223.391V231.534C141.551 231.934 141.568 232.199 141.604 232.329C141.651 232.458 141.745 232.541 141.886 232.576C142.039 232.611 142.34 232.629 142.787 232.629H145.243C145.702 232.629 146.014 232.611 146.179 232.576C146.344 232.529 146.444 232.441 146.479 232.311C146.526 232.17 146.55 231.911 146.55 231.534V223.391C146.55 223.038 146.514 222.778 146.444 222.614C146.385 222.449 146.261 222.337 146.073 222.278C145.884 222.207 145.59 222.172 145.19 222.172C145.154 222.172 145.137 222.137 145.137 222.066C145.137 221.995 145.154 221.96 145.19 221.96C146.285 221.995 146.974 222.013 147.256 222.013C147.562 222.013 147.963 222.001 148.457 221.978L149.341 221.96C149.364 221.96 149.376 221.995 149.376 222.066C149.376 222.137 149.364 222.172 149.341 222.172C148.928 222.172 148.628 222.207 148.44 222.278C148.251 222.337 148.122 222.449 148.051 222.614C147.98 222.778 147.945 223.038 147.945 223.391V231.552C147.945 231.905 147.98 232.158 148.051 232.311C148.134 232.452 148.257 232.541 148.422 232.576C148.599 232.611 148.905 232.629 149.341 232.629H151.637C152.108 232.629 152.426 232.611 152.591 232.576C152.756 232.541 152.856 232.458 152.891 232.329C152.938 232.187 152.962 231.922 152.962 231.534V223.391C152.962 223.038 152.926 222.778 152.856 222.614C152.797 222.449 152.667 222.337 152.467 222.278C152.279 222.207 151.984 222.172 151.584 222.172C151.56 222.172 151.549 222.137 151.549 222.066C151.549 221.995 151.56 221.96 151.584 221.96L152.449 221.978C152.968 222.001 153.386 222.013 153.704 222.013C154.033 222.013 154.446 222.001 154.94 221.978L155.841 221.96C155.876 221.96 155.894 221.995 155.894 222.066C155.894 222.137 155.876 222.172 155.841 222.172C155.405 222.172 155.081 222.207 154.869 222.278C154.669 222.337 154.528 222.449 154.446 222.614C154.375 222.778 154.34 223.038 154.34 223.391V231.569C154.34 231.922 154.375 232.182 154.446 232.346C154.528 232.511 154.669 232.629 154.869 232.7C155.081 232.759 155.405 232.788 155.841 232.788C155.876 232.788 155.894 232.823 155.894 232.894C155.894 232.965 155.876 233 155.841 233H138.654ZM167.04 221.872C167.076 221.825 167.152 221.801 167.27 221.801C167.341 221.801 167.405 221.813 167.464 221.836C167.523 221.86 167.552 221.889 167.552 221.925V231.569C167.552 231.922 167.588 232.187 167.658 232.364C167.741 232.529 167.882 232.641 168.082 232.7C168.283 232.759 168.601 232.788 169.036 232.788C169.072 232.788 169.089 232.823 169.089 232.894C169.089 232.965 169.072 233 169.036 233C168.659 233 168.359 232.994 168.135 232.982L166.864 232.965L165.468 232.982C165.268 232.994 164.991 233 164.638 233C164.603 233 164.585 232.965 164.585 232.894C164.585 232.823 164.603 232.788 164.638 232.788C165.097 232.788 165.427 232.759 165.627 232.7C165.839 232.641 165.98 232.529 166.051 232.364C166.122 232.199 166.157 231.934 166.157 231.569V223.196H166.563L158.72 233.177C158.685 233.212 158.609 233.23 158.491 233.23C158.302 233.23 158.208 233.188 158.208 233.106V223.391C158.208 223.038 158.167 222.778 158.085 222.614C158.014 222.449 157.873 222.337 157.661 222.278C157.46 222.207 157.142 222.172 156.707 222.172C156.683 222.172 156.671 222.137 156.671 222.066C156.671 221.995 156.683 221.96 156.707 221.96L157.643 221.978C158.185 222.001 158.603 222.013 158.897 222.013C159.274 222.013 159.733 222.001 160.275 221.978L161.123 221.96C161.158 221.96 161.176 221.995 161.176 222.066C161.176 222.137 161.158 222.172 161.123 222.172C160.664 222.172 160.328 222.207 160.116 222.278C159.916 222.337 159.78 222.449 159.71 222.614C159.639 222.778 159.604 223.038 159.604 223.391V231.852H159.197L167.04 221.872Z" fill="black"/>
<path d="M38 153H247" stroke="black" stroke-width="2"/>
</svg>
