<svg width="2039" height="261" viewBox="0 0 2039 261" fill="none" xmlns="http://www.w3.org/2000/svg">
<circle cx="130.5" cy="130.5" r="130.5" fill="#647A6D"/>
<circle cx="131" cy="130" r="91" fill="#BFC1C0"/>
<path d="M340.507 84.9403C340.603 84.6521 340.939 84.508 341.515 84.508C342.188 84.412 342.572 84.556 342.668 84.9403L381.714 176H369.179L336.473 99.2044L341.66 91.8562L307.224 176H303.19L340.507 84.9403ZM295.265 198.621C295.265 193.914 295.121 190.024 294.833 186.95C294.641 183.973 294.401 181.475 294.113 179.458C293.824 177.633 293.68 175.856 293.68 174.127C293.68 173.358 293.776 172.926 293.968 172.83C294.161 172.638 294.593 172.542 295.265 172.542H387.766C388.63 172.542 389.111 172.638 389.207 172.83C389.399 172.926 389.495 173.358 389.495 174.127C389.495 174.703 389.399 176.048 389.207 178.161C388.438 184.597 388.054 191.417 388.054 198.621C388.054 199.101 387.766 199.341 387.189 199.341C386.709 199.341 386.469 199.101 386.469 198.621C386.469 190.936 384.308 185.221 379.985 181.475C375.663 177.825 368.987 176 359.958 176H319.615C312.411 176 306.792 177.777 302.757 181.331C298.819 184.981 296.85 190.744 296.85 198.621C296.85 199.101 296.562 199.341 295.986 199.341C295.505 199.341 295.265 199.101 295.265 198.621ZM470.8 98.7721C471.664 96.851 472.096 95.2661 472.096 94.0174C472.096 89.791 468.446 87.6778 461.146 87.6778C460.858 87.6778 460.714 87.3897 460.714 86.8133C460.714 86.237 460.858 85.9488 461.146 85.9488L467.198 86.0929C470.656 86.285 473.729 86.3811 476.419 86.3811C478.148 86.3811 480.261 86.285 482.758 86.0929L488.234 85.9488C488.522 85.9488 488.666 86.237 488.666 86.8133C488.666 87.3897 488.522 87.6778 488.234 87.6778C485.64 87.6778 483.095 88.6864 480.597 90.7035C478.196 92.7207 476.131 95.5543 474.402 99.2044L448.323 155.54C445.922 160.727 444.145 164.858 442.992 167.931C441.551 171.485 440.494 173.743 439.822 174.703C439.15 175.568 438.045 176 436.508 176H412.879C412.687 176 412.591 175.712 412.591 175.136C412.591 174.559 412.687 174.271 412.879 174.271C419.891 174.271 426.182 172.638 431.754 169.372C437.421 166.01 441.743 161.064 444.721 154.532L470.8 98.7721ZM413.023 97.9076C410.91 93.9694 408.989 91.2799 407.26 89.839C405.627 88.3982 403.417 87.6778 400.632 87.6778C400.44 87.6778 400.344 87.3897 400.344 86.8133C400.344 86.237 400.44 85.9488 400.632 85.9488L405.819 86.0929C408.7 86.285 411.63 86.3811 414.608 86.3811C419.122 86.3811 423.493 86.285 427.719 86.0929C429.16 85.9969 430.937 85.9488 433.05 85.9488C433.242 85.9488 433.338 86.237 433.338 86.8133C433.338 87.3897 433.242 87.6778 433.05 87.6778C426.999 87.6778 423.973 89.1667 423.973 92.1444C423.973 93.3931 424.453 94.8339 425.414 96.4668L451.781 145.022L445.441 157.413L413.023 97.9076ZM506.851 176C506.658 176 506.562 175.712 506.562 175.136C506.562 174.559 506.658 174.271 506.851 174.271C510.405 174.271 512.998 174.031 514.631 173.551C516.36 173.07 517.513 172.158 518.089 170.813C518.761 169.372 519.097 167.211 519.097 164.329V97.6195C519.097 94.7378 518.761 92.6246 518.089 91.2799C517.513 89.9351 516.36 89.0226 514.631 88.5423C512.998 87.966 510.405 87.6778 506.851 87.6778C506.658 87.6778 506.562 87.3897 506.562 86.8133C506.562 86.237 506.658 85.9488 506.851 85.9488L514.343 86.0929C518.569 86.285 521.931 86.3811 524.429 86.3811C527.022 86.3811 530.432 86.285 534.658 86.0929L541.574 85.9488C541.862 85.9488 542.007 86.237 542.007 86.8133C542.007 87.3897 541.862 87.6778 541.574 87.6778C538.308 87.6778 535.907 87.966 534.37 88.5423C532.833 89.0226 531.777 89.9351 531.2 91.2799C530.72 92.6246 530.48 94.7378 530.48 97.6195V164.041C530.48 167.307 530.624 169.468 530.912 170.525C531.296 171.581 532.065 172.254 533.218 172.542C534.466 172.83 536.916 172.974 540.566 172.974H560.593C564.339 172.974 566.885 172.83 568.229 172.542C569.574 172.158 570.391 171.437 570.679 170.381C571.063 169.228 571.255 167.115 571.255 164.041V97.6195C571.255 94.7378 570.967 92.6246 570.391 91.2799C569.91 89.9351 568.902 89.0226 567.365 88.5423C565.828 87.966 563.427 87.6778 560.161 87.6778C559.873 87.6778 559.729 87.3897 559.729 86.8133C559.729 86.237 559.873 85.9488 560.161 85.9488C569.094 86.237 574.713 86.3811 577.018 86.3811C579.516 86.3811 582.782 86.285 586.816 86.0929L594.02 85.9488C594.212 85.9488 594.308 86.237 594.308 86.8133C594.308 87.3897 594.212 87.6778 594.02 87.6778C590.658 87.6778 588.209 87.966 586.672 88.5423C585.135 89.0226 584.078 89.9351 583.502 91.2799C582.926 92.6246 582.638 94.7378 582.638 97.6195V164.185C582.638 167.067 582.926 169.132 583.502 170.381C584.174 171.533 585.183 172.254 586.528 172.542C587.969 172.83 590.466 172.974 594.02 172.974H612.751C616.593 172.974 619.186 172.83 620.531 172.542C621.876 172.254 622.692 171.581 622.981 170.525C623.365 169.372 623.557 167.211 623.557 164.041V97.6195C623.557 94.7378 623.269 92.6246 622.692 91.2799C622.212 89.9351 621.155 89.0226 619.523 88.5423C617.986 87.966 615.584 87.6778 612.318 87.6778C612.126 87.6778 612.03 87.3897 612.03 86.8133C612.03 86.237 612.126 85.9488 612.318 85.9488L619.378 86.0929C623.605 86.285 627.015 86.3811 629.608 86.3811C632.298 86.3811 635.66 86.285 639.694 86.0929L647.042 85.9488C647.33 85.9488 647.474 86.237 647.474 86.8133C647.474 87.3897 647.33 87.6778 647.042 87.6778C643.488 87.6778 640.847 87.966 639.118 88.5423C637.485 89.0226 636.332 89.9351 635.66 91.2799C635.083 92.6246 634.795 94.7378 634.795 97.6195V164.329C634.795 167.211 635.083 169.324 635.66 170.669C636.332 172.014 637.485 172.974 639.118 173.551C640.847 174.031 643.488 174.271 647.042 174.271C647.33 174.271 647.474 174.559 647.474 175.136C647.474 175.712 647.33 176 647.042 176H506.851ZM695.168 135.225H734.358L735.367 138.395H693.439L695.168 135.225ZM767.929 174.271C768.409 174.271 768.65 174.559 768.65 175.136C768.65 175.712 768.409 176 767.929 176C766.104 176 763.27 175.904 759.428 175.712C755.394 175.52 752.512 175.424 750.783 175.424C748.574 175.424 745.837 175.52 742.571 175.712C739.305 175.904 736.855 176 735.223 176C734.838 176 734.646 175.712 734.646 175.136C734.646 174.559 734.838 174.271 735.223 174.271C738.488 174.271 740.842 173.983 742.283 173.407C743.723 172.734 744.444 171.581 744.444 169.949C744.444 168.316 743.723 166.058 742.283 163.177L711.305 98.7721L715.916 91.8562L687.82 156.981C686.475 160.247 685.802 162.937 685.802 165.05C685.802 168.124 687.003 170.429 689.404 171.966C691.806 173.503 695.264 174.271 699.778 174.271C700.259 174.271 700.499 174.559 700.499 175.136C700.499 175.712 700.259 176 699.778 176C698.049 176 695.552 175.904 692.286 175.712C688.636 175.52 685.466 175.424 682.777 175.424C680.279 175.424 677.302 175.52 673.844 175.712C670.77 175.904 668.272 176 666.351 176C665.967 176 665.775 175.712 665.775 175.136C665.775 174.559 665.967 174.271 666.351 174.271C669.041 174.271 671.298 173.743 673.123 172.686C675.044 171.63 676.869 169.804 678.598 167.211C680.327 164.618 682.296 160.775 684.506 155.684L715.195 84.9403C715.291 84.6521 715.627 84.508 716.204 84.508C716.78 84.412 717.116 84.556 717.212 84.9403L751.792 156.261C755.154 163.273 757.939 168.027 760.149 170.525C762.454 173.022 765.047 174.271 767.929 174.271ZM875.908 125.139C881.768 125.139 886.955 126.196 891.469 128.309C895.984 130.422 899.442 133.352 901.843 137.098C904.34 140.748 905.589 144.926 905.589 149.633C905.589 154.724 904.244 159.335 901.555 163.465C898.961 167.499 895.359 170.717 890.749 173.118C886.234 175.424 881.143 176.576 875.476 176.576C872.402 176.576 869.04 176.432 865.39 176.144C864.046 176.048 862.461 175.952 860.636 175.856C858.811 175.76 856.745 175.712 854.44 175.712L844.354 175.856C842.529 175.952 840.08 176 837.006 176C836.718 176 836.574 175.712 836.574 175.136C836.574 174.559 836.718 174.271 837.006 174.271C840.368 174.271 842.866 174.031 844.498 173.551C846.131 172.974 847.236 172.014 847.812 170.669C848.485 169.324 848.821 167.211 848.821 164.329V97.6195C848.821 94.7378 848.485 92.6246 847.812 91.2799C847.236 89.9351 846.131 89.0226 844.498 88.5423C842.962 87.966 840.512 87.6778 837.15 87.6778C836.958 87.6778 836.862 87.3897 836.862 86.8133C836.862 86.237 836.958 85.9488 837.15 85.9488L844.354 86.0929C848.581 86.285 851.943 86.3811 854.44 86.3811C857.13 86.3811 859.963 86.237 862.941 85.9488C863.998 85.8528 865.246 85.7567 866.687 85.6607C868.224 85.5646 869.857 85.5166 871.586 85.5166C879.847 85.5166 886.09 87.2456 890.316 90.7035C894.639 94.0655 896.8 98.628 896.8 104.391C896.8 109.77 894.783 114.477 890.749 118.511C886.714 122.546 881.239 125.379 874.323 127.012L875.908 125.139ZM868.848 87.966C866.543 87.966 864.766 88.2061 863.517 88.6864C862.365 89.1667 861.5 90.1272 860.924 91.568C860.444 92.9128 860.203 95.026 860.203 97.9076V126.148L855.449 124.995C859.579 125.283 863.277 125.427 866.543 125.427C872.883 125.427 877.637 123.602 880.807 119.952C883.977 116.302 885.562 111.499 885.562 105.544C885.562 100.069 884.169 95.7944 881.383 92.7207C878.694 89.5509 874.515 87.966 868.848 87.966ZM873.171 173.695C879.991 173.695 885.033 171.918 888.299 168.364C891.661 164.81 893.342 159.719 893.342 153.091C893.342 145.791 891.325 139.932 887.291 135.513C883.256 131.094 877.541 128.837 870.145 128.741C865.342 128.549 860.588 128.789 855.881 129.462L860.203 127.877V164.329C860.203 166.731 860.54 168.604 861.212 169.949C861.884 171.197 863.133 172.158 864.958 172.83C866.783 173.407 869.521 173.695 873.171 173.695ZM956.063 135.225H995.253L996.262 138.395H954.334L956.063 135.225ZM1028.82 174.271C1029.3 174.271 1029.54 174.559 1029.54 175.136C1029.54 175.712 1029.3 176 1028.82 176C1027 176 1024.17 175.904 1020.32 175.712C1016.29 175.52 1013.41 175.424 1011.68 175.424C1009.47 175.424 1006.73 175.52 1003.47 175.712C1000.2 175.904 997.751 176 996.118 176C995.733 176 995.541 175.712 995.541 175.136C995.541 174.559 995.733 174.271 996.118 174.271C999.383 174.271 1001.74 173.983 1003.18 173.407C1004.62 172.734 1005.34 171.581 1005.34 169.949C1005.34 168.316 1004.62 166.058 1003.18 163.177L972.2 98.7721L976.811 91.8562L948.715 156.981C947.37 160.247 946.698 162.937 946.698 165.05C946.698 168.124 947.898 170.429 950.3 171.966C952.701 173.503 956.159 174.271 960.673 174.271C961.154 174.271 961.394 174.559 961.394 175.136C961.394 175.712 961.154 176 960.673 176C958.944 176 956.447 175.904 953.181 175.712C949.531 175.52 946.361 175.424 943.672 175.424C941.174 175.424 938.197 175.52 934.739 175.712C931.665 175.904 929.168 176 927.246 176C926.862 176 926.67 175.712 926.67 175.136C926.67 174.559 926.862 174.271 927.246 174.271C929.936 174.271 932.193 173.743 934.018 172.686C935.939 171.63 937.764 169.804 939.493 167.211C941.222 164.618 943.192 160.775 945.401 155.684L976.09 84.9403C976.186 84.6521 976.522 84.508 977.099 84.508C977.675 84.412 978.011 84.556 978.107 84.9403L1012.69 156.261C1016.05 163.273 1018.83 168.027 1021.04 170.525C1023.35 173.022 1025.94 174.271 1028.82 174.271ZM1048.28 176C1048.09 176 1047.99 175.712 1047.99 175.136C1047.99 174.559 1048.09 174.271 1048.28 174.271C1051.84 174.271 1054.43 174.031 1056.06 173.551C1057.79 173.07 1058.95 172.158 1059.52 170.813C1060.19 169.372 1060.53 167.211 1060.53 164.329V97.6195C1060.53 94.7378 1060.19 92.6246 1059.52 91.2799C1058.95 89.9351 1057.79 89.0226 1056.06 88.5423C1054.43 87.966 1051.84 87.6778 1048.28 87.6778C1048.09 87.6778 1047.99 87.3897 1047.99 86.8133C1047.99 86.237 1048.09 85.9488 1048.28 85.9488L1055.78 86.0929C1060 86.285 1063.36 86.3811 1065.86 86.3811C1068.45 86.3811 1071.86 86.285 1076.09 86.0929L1083.01 85.9488C1083.29 85.9488 1083.44 86.237 1083.44 86.8133C1083.44 87.3897 1083.29 87.6778 1083.01 87.6778C1079.74 87.6778 1077.34 87.966 1075.8 88.5423C1074.27 89.0226 1073.21 89.9351 1072.63 91.2799C1072.15 92.6246 1071.91 94.7378 1071.91 97.6195V164.041C1071.91 167.307 1072.06 169.468 1072.34 170.525C1072.73 171.581 1073.5 172.254 1074.65 172.542C1075.9 172.83 1078.35 172.974 1082 172.974H1102.03C1105.77 172.974 1108.32 172.83 1109.66 172.542C1111.01 172.158 1111.82 171.437 1112.11 170.381C1112.5 169.228 1112.69 167.115 1112.69 164.041V97.6195C1112.69 94.7378 1112.4 92.6246 1111.82 91.2799C1111.34 89.9351 1110.33 89.0226 1108.8 88.5423C1107.26 87.966 1104.86 87.6778 1101.59 87.6778C1101.31 87.6778 1101.16 87.3897 1101.16 86.8133C1101.16 86.237 1101.31 85.9488 1101.59 85.9488C1110.53 86.237 1116.15 86.3811 1118.45 86.3811C1120.95 86.3811 1124.21 86.285 1128.25 86.0929L1135.45 85.9488C1135.64 85.9488 1135.74 86.237 1135.74 86.8133C1135.74 87.3897 1135.64 87.6778 1135.45 87.6778C1132.09 87.6778 1129.64 87.966 1128.1 88.5423C1126.57 89.0226 1125.51 89.9351 1124.93 91.2799C1124.36 92.6246 1124.07 94.7378 1124.07 97.6195V164.185C1124.07 167.067 1124.36 169.132 1124.93 170.381C1125.61 171.533 1126.62 172.254 1127.96 172.542C1129.4 172.83 1131.9 172.974 1135.45 172.974H1154.18C1158.03 172.974 1160.62 172.83 1161.96 172.542C1163.31 172.254 1164.12 171.581 1164.41 170.525C1164.8 169.372 1164.99 167.211 1164.99 164.041V97.6195C1164.99 94.7378 1164.7 92.6246 1164.12 91.2799C1163.64 89.9351 1162.59 89.0226 1160.96 88.5423C1159.42 87.966 1157.02 87.6778 1153.75 87.6778C1153.56 87.6778 1153.46 87.3897 1153.46 86.8133C1153.46 86.237 1153.56 85.9488 1153.75 85.9488L1160.81 86.0929C1165.04 86.285 1168.45 86.3811 1171.04 86.3811C1173.73 86.3811 1177.09 86.285 1181.13 86.0929L1188.47 85.9488C1188.76 85.9488 1188.91 86.237 1188.91 86.8133C1188.91 87.3897 1188.76 87.6778 1188.47 87.6778C1184.92 87.6778 1182.28 87.966 1180.55 88.5423C1178.92 89.0226 1177.76 89.9351 1177.09 91.2799C1176.52 92.6246 1176.23 94.7378 1176.23 97.6195V164.329C1176.23 167.211 1176.52 169.324 1177.09 170.669C1177.76 172.014 1178.92 172.974 1180.55 173.551C1182.28 174.031 1184.92 174.271 1188.47 174.271C1188.76 174.271 1188.91 174.559 1188.91 175.136C1188.91 175.712 1188.76 176 1188.47 176H1048.28ZM1214.12 176C1213.84 176 1213.69 175.712 1213.69 175.136C1213.69 174.559 1213.84 174.271 1214.12 174.271C1217.58 174.271 1220.08 174.031 1221.62 173.551C1223.25 173.07 1224.35 172.158 1224.93 170.813C1225.51 169.372 1225.79 167.211 1225.79 164.329V97.6195C1225.79 94.7378 1225.51 92.6246 1224.93 91.2799C1224.35 89.9351 1223.25 89.0226 1221.62 88.5423C1220.08 87.966 1217.58 87.6778 1214.12 87.6778C1213.84 87.6778 1213.69 87.3897 1213.69 86.8133C1213.69 86.237 1213.84 85.9488 1214.12 85.9488H1272.91C1273.87 85.9488 1274.35 86.3811 1274.35 87.2456L1274.64 105.4C1274.64 105.688 1274.35 105.88 1273.77 105.976C1273.29 105.976 1273.01 105.832 1272.91 105.544C1272.24 100.261 1270.36 96.2267 1267.29 93.4411C1264.22 90.6555 1260.18 89.2627 1255.19 89.2627H1247.84C1243.61 89.2627 1240.78 89.8871 1239.34 91.1358C1237.9 92.3845 1237.18 94.7378 1237.18 98.1958V163.753C1237.18 167.211 1237.8 169.564 1239.05 170.813C1240.39 172.062 1243.04 172.686 1246.97 172.686H1256.48C1261.86 172.686 1266.33 171.101 1269.88 167.931C1273.53 164.666 1276.03 160.055 1277.38 154.1C1277.38 153.907 1277.57 153.811 1277.95 153.811C1278.24 153.811 1278.48 153.907 1278.67 154.1C1278.96 154.196 1279.1 154.292 1279.1 154.388C1278.14 161.304 1277.66 167.787 1277.66 173.839C1277.66 174.607 1277.52 175.184 1277.23 175.568C1276.94 175.856 1276.37 176 1275.5 176H1214.12ZM1267.43 142.861C1267.43 138.731 1266.23 135.705 1263.83 133.784C1261.53 131.767 1257.83 130.758 1252.74 130.758H1231.7V127.444H1253.03C1257.92 127.444 1261.53 126.628 1263.83 124.995C1266.14 123.266 1267.29 120.625 1267.29 117.071C1267.29 116.878 1267.53 116.782 1268.01 116.782C1268.59 116.782 1268.87 116.878 1268.87 117.071L1268.73 129.173L1268.87 135.657C1269.07 138.731 1269.16 141.132 1269.16 142.861C1269.16 143.053 1268.87 143.149 1268.3 143.149C1267.72 143.149 1267.43 143.053 1267.43 142.861ZM1306.19 176C1305.9 176 1305.76 175.712 1305.76 175.136C1305.76 174.559 1305.9 174.271 1306.19 174.271C1309.74 174.271 1312.34 174.031 1313.97 173.551C1315.6 173.07 1316.71 172.158 1317.29 170.813C1317.96 169.372 1318.29 167.211 1318.29 164.329V97.6195C1318.29 94.7378 1318.01 92.6246 1317.43 91.2799C1316.85 89.9351 1315.75 89.0226 1314.12 88.5423C1312.58 87.966 1310.08 87.6778 1306.62 87.6778C1306.33 87.6778 1306.19 87.3897 1306.19 86.8133C1306.19 86.237 1306.33 85.9488 1306.62 85.9488H1368C1368.96 85.9488 1369.44 86.3811 1369.44 87.2456L1369.73 107.705C1369.73 107.993 1369.44 108.185 1368.87 108.282C1368.39 108.282 1368.1 108.137 1368 107.849C1367.33 101.798 1365.36 97.1872 1362.09 94.0174C1358.92 90.8476 1354.75 89.2627 1349.56 89.2627H1340.34C1336.21 89.2627 1333.37 89.8871 1331.84 91.1358C1330.4 92.2884 1329.68 94.4977 1329.68 97.7636V163.753C1329.68 166.827 1330.06 169.084 1330.83 170.525C1331.69 171.87 1333.28 172.83 1335.58 173.407C1337.89 173.983 1341.54 174.271 1346.53 174.271C1346.73 174.271 1346.82 174.559 1346.82 175.136C1346.82 175.712 1346.73 176 1346.53 176C1342.6 176 1339.52 175.952 1337.31 175.856L1323.77 175.712L1313.68 175.856C1311.86 175.952 1309.36 176 1306.19 176ZM1440.03 177.729C1431.1 177.729 1423.13 175.664 1416.11 171.533C1409.2 167.307 1403.82 161.64 1399.98 154.532C1396.23 147.328 1394.36 139.499 1394.36 131.046C1394.36 121.153 1396.86 112.7 1401.85 105.688C1406.85 98.58 1413.23 93.249 1421.01 89.695C1428.89 86.1409 1436.91 84.3639 1445.08 84.3639C1454.2 84.3639 1462.22 86.5252 1469.14 90.8476C1476.05 95.074 1481.34 100.693 1484.99 107.705C1488.73 114.717 1490.61 122.161 1490.61 130.038C1490.61 138.779 1488.3 146.799 1483.69 154.1C1479.08 161.4 1472.88 167.163 1465.1 171.389C1457.42 175.616 1449.06 177.729 1440.03 177.729ZM1445.08 174.559C1451.22 174.559 1456.75 172.974 1461.64 169.804C1466.54 166.635 1470.39 162.024 1473.17 155.973C1476.05 149.825 1477.49 142.525 1477.49 134.072C1477.49 125.139 1475.91 117.167 1472.74 110.155C1469.67 103.143 1465.2 97.6675 1459.34 93.7293C1453.58 89.791 1446.85 87.8219 1439.17 87.8219C1429.18 87.8219 1421.4 91.2318 1415.83 98.0517C1410.26 104.776 1407.47 114.093 1407.47 126.004C1407.47 135.129 1409.05 143.389 1412.22 150.786C1415.39 158.182 1419.81 163.993 1425.48 168.22C1431.24 172.446 1437.78 174.559 1445.08 174.559ZM1610.48 84.9403C1610.58 84.6521 1610.91 84.508 1611.49 84.508C1612.16 84.412 1612.55 84.556 1612.64 84.9403L1651.69 176H1639.15L1606.45 99.2044L1611.63 91.8562L1577.2 176H1573.16L1610.48 84.9403ZM1565.24 198.621C1565.24 193.914 1565.1 190.024 1564.81 186.95C1564.62 183.973 1564.38 181.475 1564.09 179.458C1563.8 177.633 1563.65 175.856 1563.65 174.127C1563.65 173.358 1563.75 172.926 1563.94 172.83C1564.14 172.638 1564.57 172.542 1565.24 172.542H1657.74C1658.6 172.542 1659.09 172.638 1659.18 172.83C1659.37 172.926 1659.47 173.358 1659.47 174.127C1659.47 174.703 1659.37 176.048 1659.18 178.161C1658.41 184.597 1658.03 191.417 1658.03 198.621C1658.03 199.101 1657.74 199.341 1657.16 199.341C1656.68 199.341 1656.44 199.101 1656.44 198.621C1656.44 190.936 1654.28 185.221 1649.96 181.475C1645.64 177.825 1638.96 176 1629.93 176H1589.59C1582.39 176 1576.77 177.777 1572.73 181.331C1568.79 184.981 1566.82 190.744 1566.82 198.621C1566.82 199.101 1566.54 199.341 1565.96 199.341C1565.48 199.341 1565.24 199.101 1565.24 198.621ZM1728.37 177.729C1719.43 177.729 1711.46 175.664 1704.45 171.533C1697.53 167.307 1692.15 161.64 1688.31 154.532C1684.56 147.328 1682.69 139.499 1682.69 131.046C1682.69 121.153 1685.19 112.7 1690.18 105.688C1695.18 98.58 1701.57 93.249 1709.35 89.695C1717.22 86.1409 1725.24 84.3639 1733.41 84.3639C1742.53 84.3639 1750.55 86.5252 1757.47 90.8476C1764.39 95.074 1769.67 100.693 1773.32 107.705C1777.06 114.717 1778.94 122.161 1778.94 130.038C1778.94 138.779 1776.63 146.799 1772.02 154.1C1767.41 161.4 1761.22 167.163 1753.44 171.389C1745.75 175.616 1737.39 177.729 1728.37 177.729ZM1733.41 174.559C1739.56 174.559 1745.08 172.974 1749.98 169.804C1754.88 166.635 1758.72 162.024 1761.5 155.973C1764.39 149.825 1765.83 142.525 1765.83 134.072C1765.83 125.139 1764.24 117.167 1761.07 110.155C1758 103.143 1753.53 97.6675 1747.67 93.7293C1741.91 89.791 1735.19 87.8219 1727.5 87.8219C1717.51 87.8219 1709.73 91.2318 1704.16 98.0517C1698.59 104.776 1695.8 114.093 1695.8 126.004C1695.8 135.129 1697.39 143.389 1700.56 150.786C1703.73 158.182 1708.15 163.993 1713.81 168.22C1719.58 172.446 1726.11 174.559 1733.41 174.559ZM1818.94 89.2627L1822.54 89.5509L1821.1 159.575C1821 164.57 1821.92 168.268 1823.84 170.669C1825.76 173.07 1828.88 174.271 1833.2 174.271C1833.49 174.271 1833.63 174.559 1833.63 175.136C1833.63 175.712 1833.49 176 1833.2 176C1830.61 176 1828.59 175.952 1827.15 175.856L1819.23 175.712L1811.3 175.856C1809.96 175.952 1807.99 176 1805.39 176C1805.2 176 1805.11 175.712 1805.11 175.136C1805.11 174.559 1805.2 174.271 1805.39 174.271C1813.37 174.271 1817.4 169.372 1817.5 159.575L1818.94 89.2627ZM1918.36 174.271C1918.55 174.271 1918.64 174.559 1918.64 175.136C1918.64 175.712 1918.55 176 1918.36 176C1915.19 176 1912.69 175.952 1910.86 175.856L1900.78 175.712L1891.12 175.856C1889.49 175.952 1887.23 176 1884.35 176C1884.16 176 1884.06 175.712 1884.06 175.136C1884.06 174.559 1884.16 174.271 1884.35 174.271C1887.62 174.271 1890.02 174.031 1891.56 173.551C1893.09 172.974 1894.1 172.014 1894.58 170.669C1895.06 169.324 1895.21 167.211 1895.01 164.329L1892.13 96.4668L1897.75 88.3982L1860.43 174.991C1860.24 175.376 1859.86 175.568 1859.28 175.568C1858.71 175.568 1858.32 175.376 1858.13 174.991L1820.52 97.9076C1818.79 94.3536 1816.78 91.7601 1814.47 90.1272C1812.17 88.4943 1809.48 87.6778 1806.4 87.6778C1806.21 87.6778 1806.12 87.3897 1806.12 86.8133C1806.12 86.237 1806.21 85.9488 1806.4 85.9488L1812.17 86.0929C1813.32 86.189 1814.81 86.237 1816.63 86.237C1818.75 86.237 1820.48 86.189 1821.82 86.0929C1823.17 85.9969 1824.22 85.9488 1824.99 85.9488C1826.24 85.9488 1827.25 86.3811 1828.02 87.2456C1828.78 88.1101 1829.98 90.1752 1831.62 93.4411L1864.32 159.863L1858.99 169.084L1893.72 89.5509C1894.68 87.1495 1896.12 85.9488 1898.04 85.9488C1898.62 85.9488 1899.38 85.9969 1900.34 86.0929C1901.31 86.189 1902.55 86.237 1904.09 86.237L1911.44 86.0929C1912.59 85.9969 1914.27 85.9488 1916.48 85.9488C1916.67 85.9488 1916.77 86.237 1916.77 86.8133C1916.77 87.3897 1916.67 87.6778 1916.48 87.6778C1911.68 87.6778 1908.27 88.4463 1906.25 89.9831C1904.24 91.52 1903.27 94.2095 1903.37 98.0517L1906.4 164.329C1906.59 167.307 1906.97 169.468 1907.55 170.813C1908.13 172.158 1909.18 173.07 1910.72 173.551C1912.35 174.031 1914.9 174.271 1918.36 174.271ZM1964.72 135.225H2003.91L2004.92 138.395H1962.99L1964.72 135.225ZM2037.48 174.271C2037.96 174.271 2038.2 174.559 2038.2 175.136C2038.2 175.712 2037.96 176 2037.48 176C2035.66 176 2032.82 175.904 2028.98 175.712C2024.95 175.52 2022.06 175.424 2020.34 175.424C2018.13 175.424 2015.39 175.52 2012.12 175.712C2008.86 175.904 2006.41 176 2004.77 176C2004.39 176 2004.2 175.712 2004.2 175.136C2004.2 174.559 2004.39 174.271 2004.77 174.271C2008.04 174.271 2010.39 173.983 2011.83 173.407C2013.28 172.734 2014 171.581 2014 169.949C2014 168.316 2013.28 166.058 2011.83 163.177L1980.86 98.7721L1985.47 91.8562L1957.37 156.981C1956.03 160.247 1955.35 162.937 1955.35 165.05C1955.35 168.124 1956.56 170.429 1958.96 171.966C1961.36 173.503 1964.82 174.271 1969.33 174.271C1969.81 174.271 1970.05 174.559 1970.05 175.136C1970.05 175.712 1969.81 176 1969.33 176C1967.6 176 1965.1 175.904 1961.84 175.712C1958.19 175.52 1955.02 175.424 1952.33 175.424C1949.83 175.424 1946.85 175.52 1943.4 175.712C1940.32 175.904 1937.82 176 1935.9 176C1935.52 176 1935.33 175.712 1935.33 175.136C1935.33 174.559 1935.52 174.271 1935.9 174.271C1938.59 174.271 1940.85 173.743 1942.68 172.686C1944.6 171.63 1946.42 169.804 1948.15 167.211C1949.88 164.618 1951.85 160.775 1954.06 155.684L1984.75 84.9403C1984.84 84.6521 1985.18 84.508 1985.76 84.508C1986.33 84.412 1986.67 84.556 1986.76 84.9403L2021.34 156.261C2024.71 163.273 2027.49 168.027 2029.7 170.525C2032.01 173.022 2034.6 174.271 2037.48 174.271Z" fill="#FDFDFD"/>
</svg>
