<svg width="50" height="50" viewBox="0 0 50 50" fill="none" xmlns="http://www.w3.org/2000/svg">
<path fill-rule="evenodd" clip-rule="evenodd" d="M25.5372 49.8573C20.6303 49.8573 18.35 49.1379 14.3863 46.2601C11.8791 49.4976 3.93981 52.0276 3.59359 47.699C3.59359 44.4495 2.87726 41.7036 2.06542 38.706C1.09837 35.0128 0 30.9 0 24.9407C0 10.7077 11.6284 0 25.4058 0C39.1952 0 49.9999 11.2353 49.9999 25.0725C50.0461 38.6958 39.1014 49.7846 25.5372 49.8573ZM25.7401 12.3025C19.0305 11.9547 13.8013 16.6191 12.6432 23.9334C11.6881 29.9887 13.3834 37.363 14.828 37.7467C15.5205 37.9146 17.2636 36.4997 18.35 35.4085C20.1465 36.655 22.2384 37.4036 24.4149 37.5788C31.3672 37.9147 37.3077 32.5989 37.7745 25.6241C38.0462 18.6346 32.6934 12.7144 25.7401 12.3144L25.7401 12.3025Z" fill="#FDFDFD"/>
</svg>
