<svg width="32" height="32" viewBox="0 0 32 32" fill="none" xmlns="http://www.w3.org/2000/svg">
<circle cx="16" cy="16" r="16" fill="#647A6D"/>
<path d="M21.7857 6.57144C22.0478 6.57144 22.2932 6.69112 22.4546 6.89253L22.5184 6.98374L26.1613 12.9837C26.3334 13.2673 26.3251 13.6214 26.1482 13.8944L26.0829 13.9822L16.6544 25.1251C16.3348 25.5027 15.77 25.5279 15.4178 25.2007L15.3457 25.1251L5.91711 13.9822C5.70284 13.729 5.65586 13.378 5.78805 13.0807L5.83877 12.9837L9.48163 6.98374C9.61762 6.75975 9.84728 6.61208 10.1032 6.57866L10.2143 6.57144H21.7857ZM19.0129 14.2857H12.9863L15.9992 21.7189L19.0129 14.2857ZM23.5806 14.2857H20.8626L18.3623 20.4529L23.5806 14.2857ZM11.1366 14.2857H8.41858L13.636 20.4512L11.1366 14.2857ZM12.292 8.28573H10.6952L8.09287 12.5714H11.0672L12.292 8.28573ZM17.9252 8.28573H14.074L12.8492 12.5714H19.15L17.9252 8.28573ZM21.304 8.28573H19.7072L20.932 12.5714H23.9063L21.304 8.28573Z" fill="#FDFDFD"/>
</svg>
