<svg width="32" height="32" viewBox="0 0 32 32" fill="none" xmlns="http://www.w3.org/2000/svg">
<circle cx="16" cy="16" r="16" fill="#647A6D"/>
<path d="M4.748 19.1722C4.748 19.5741 5.07345 19.9003 5.47607 19.9003L26.2719 19.9003C26.6746 19.9003 27 19.5741 27 19.1722L27 12.7281C27 12.3262 26.6746 12 26.2719 12L5.47607 12C5.07345 12 4.748 12.3262 4.748 12.7281L4.748 19.1722ZM25.5439 18.4441L6.20414 18.4441L6.20414 13.4561L7.61514 13.4561L7.61514 14.6676C7.61514 15.0695 7.94059 15.3957 8.34321 15.3957C8.74583 15.3957 9.07128 15.0695 9.07128 14.6676L9.07128 13.4561L10.5274 13.4561L10.5274 14.6676C10.5274 15.0695 10.8529 15.3957 11.2555 15.3957C11.6581 15.3957 11.9836 15.0695 11.9836 14.6676L11.9836 13.4561L13.4397 13.4561L13.4397 14.6676C13.4397 15.0695 13.7651 15.3957 14.1678 15.3957C14.5704 15.3957 14.8958 15.0695 14.8958 14.6676L14.8958 13.4561L16.352 13.4561L16.352 14.6676C16.352 15.0695 16.6774 15.3957 17.08 15.3957C17.4827 15.3957 17.8081 15.0695 17.8081 14.6676L17.8081 13.4561L19.2643 13.4561L19.2643 14.6676C19.2643 15.0695 19.5897 15.3957 19.9923 15.3957C20.395 15.3957 20.7204 15.0695 20.7204 14.6676L20.7204 13.4561L22.1765 13.4561L22.1765 14.6676C22.1765 15.0695 22.502 15.3957 22.9046 15.3957C23.3072 15.3957 23.6327 15.0695 23.6327 14.6676L23.6327 13.4561L25.5439 13.4561L25.5439 18.4441Z" fill="#FDFDFD"/>
</svg>
