<svg width="50" height="50" viewBox="0 0 50 50" fill="none" xmlns="http://www.w3.org/2000/svg">
<path d="M41 4H9C6.24 4 4 6.24 4 9V41C4 43.76 6.24 46 9 46H41C43.76 46 46 43.76 46 41V9C46 6.24 43.76 4 41 4ZM37.72 33L33.99 32.99C33.99 32.99 33.91 33 33.78 33C33.48 33 32.86 32.92 32.13 32.42C30.82 31.51 29.57 29.25 28.58 29.25C28.51 29.25 28.45 29.26 28.39 29.28C27.53 29.55 27.27 30.41 27.27 31.46C27.27 31.83 27.01 32 26.31 32H24.38C22.22 32 20.13 31.95 17.78 29.38C14.32 25.59 11.08 18.85 11.08 18.85C11.08 18.85 10.9 18.46 11.09 18.23C11.27 18.02 11.69 18 11.85 18C11.89 18 11.91 18 11.91 18H15.91C15.91 18 16.28 18.07 16.55 18.27C16.78 18.44 16.9 18.75 16.9 18.75C16.9 18.75 17.58 20.07 18.43 21.56C19.86 24.02 20.63 24.84 21.18 24.84C21.27 24.84 21.36 24.82 21.45 24.77C22.27 24.32 22.03 20.68 22.03 20.68C22.03 20.68 22.04 19.36 21.61 18.78C21.28 18.32 20.65 18.19 20.37 18.15C20.15 18.12 20.51 17.6 20.99 17.36C21.61 17.06 22.64 17 23.88 17H24.48C25.65 17.02 25.68 17.14 26.14 17.25C27.52 17.58 27.05 18.87 27.05 21.96C27.05 22.95 26.87 24.34 27.58 24.81C27.63 24.84 27.7 24.86 27.79 24.86C28.25 24.86 29.24 24.27 30.82 21.6C31.7 20.08 32.38 18.57 32.38 18.57C32.38 18.57 32.53 18.3 32.76 18.16C32.98 18.03 32.98 18.03 33.27 18.03H33.3C33.62 18.03 36.8 18 37.5 18H37.58C38.25 18 38.86 18.01 38.97 18.42C39.13 19.04 38.48 20.15 36.77 22.45C33.95 26.22 33.63 25.94 35.97 28.12C38.21 30.2 38.67 31.21 38.75 31.34C39.68 32.88 37.72 33 37.72 33Z" fill="#FDFDFD"/>
</svg>
